<svg width="24" height="24" viewBox="0 0 24 24" fill="none" xmlns="http://www.w3.org/2000/svg">
<path d="M1 12.6758H19.6998" stroke="white" stroke-width="1.03" stroke-miterlimit="10" stroke-linecap="round" stroke-linejoin="round"/>
<path d="M19.6998 10.0896V18.0337C19.6668 21.2003 18.8088 22.0003 15.5418 22.0003H5.15799C1.83602 22.0003 1 21.1671 1 17.8561V10.0896C1 7.08972 1.69299 6.12308 4.29996 5.96753C4.56396 5.95642 4.84999 5.94531 5.15799 5.94531H15.5418C18.8638 5.94531 19.6998 6.77862 19.6998 10.0896Z" stroke="white" stroke-width="1.03" stroke-linecap="round" stroke-linejoin="round"/>
<path d="M23.0001 6.14431V13.9107C23.0001 16.9106 22.3071 17.8773 19.7001 18.0328V10.0886C19.7001 6.77762 18.8641 5.94431 15.5422 5.94431H5.15832C4.85032 5.94431 4.56429 5.95542 4.30029 5.96654C4.33329 2.79997 5.19132 2 8.45828 2H18.8421C22.1641 2 23.0001 2.83331 23.0001 6.14431Z" stroke="white" stroke-width="1.03" stroke-linecap="round" stroke-linejoin="round"/>
<path d="M4.57495 18.457H6.4669" stroke="white" stroke-width="1.03" stroke-miterlimit="10" stroke-linecap="round" stroke-linejoin="round"/>
<path d="M8.82104 18.457H12.605" stroke="white" stroke-width="1.03" stroke-miterlimit="10" stroke-linecap="round" stroke-linejoin="round"/>
</svg>
