<svg width="24" height="24" viewBox="0 0 24 24" fill="none" xmlns="http://www.w3.org/2000/svg">
<g clip-path="url(#clip0_527_35)">
<path fill-rule="evenodd" clip-rule="evenodd" d="M3.35265 13.153C3.38786 11.8082 3.74056 10.4896 4.38032 9.30368C5.04156 8.07669 5.99224 7.02336 7.15001 6.24244L7.15598 6.23828C7.1518 6.32036 7.14941 6.40303 7.14941 6.4857C7.14941 6.81698 7.18343 7.1447 7.24908 7.46349C6.45058 8.10107 5.78754 8.89626 5.30176 9.79733C4.80463 10.7198 4.50326 11.7339 4.4197 12.7741C4.0497 12.858 3.69162 12.9852 3.35205 13.1524L3.35265 13.153ZM16.8442 6.23828C17.9393 6.97519 18.8494 7.95535 19.5059 9.09848C20.1546 10.2285 20.5407 11.493 20.6303 12.7913C20.2841 12.6224 19.9189 12.4958 19.5411 12.4131C19.4134 11.4305 19.0917 10.4789 18.5964 9.61711C18.1214 8.78921 17.4947 8.05825 16.7505 7.46408C16.8162 7.14529 16.8502 6.81758 16.8502 6.4863C16.8502 6.40362 16.8478 6.32095 16.8436 6.23828H16.8442ZM15.7772 21.137C14.6498 21.6824 13.4145 21.9756 12.1612 21.9988C10.9128 22.0214 9.66189 21.7734 8.51845 21.2732C8.66227 21.1596 8.79953 21.0371 8.93083 20.9063C9.06928 20.7683 9.19819 20.6231 9.31755 20.4721C10.2175 20.8087 11.1807 20.9741 12.1427 20.9562C13.0928 20.939 14.031 20.7445 14.9065 20.3841C14.959 20.4417 15.0133 20.4983 15.0682 20.5536C15.2872 20.7718 15.5247 20.9669 15.7766 21.1376L15.7772 21.137Z" fill="white"/>
<path fill-rule="evenodd" clip-rule="evenodd" d="M7.13737 15.111L5.69553 17.6458H6.90999V18.1716H5.43652V18.6831H6.90999V19.1726H5.43652V20.3413H4.7914V19.1726H3.31076V18.6831H4.7914V18.1716H3.31076V17.6458H4.52284L3.07623 15.111H3.79476L4.82601 16.9529C4.94059 17.1635 5.0325 17.3461 5.09993 17.5007C5.15961 17.3788 5.25987 17.1867 5.39952 16.9238L6.37587 15.111H7.13797H7.13737ZM2.31831 14.3152C1.50369 15.127 1 16.2487 1 17.4876C1 18.7265 1.50369 19.8476 2.31831 20.6595C3.13292 21.4713 4.25846 21.9733 5.50098 21.9733C6.74349 21.9733 7.86963 21.4713 8.68365 20.6595C9.49826 19.8476 10.002 18.7259 10.002 17.4876C10.002 16.2493 9.49826 15.127 8.68365 14.3158C7.86903 13.5045 6.74349 13.002 5.50098 13.002C4.25846 13.002 3.13292 13.5039 2.31831 14.3158V14.3152Z" fill="white"/>
<path fill-rule="evenodd" clip-rule="evenodd" d="M13.4652 6.87109C13.5249 7.00848 13.5541 7.17322 13.5541 7.36533C13.5541 7.57112 13.5177 7.7549 13.4455 7.91965C13.3721 8.0838 13.2683 8.22536 13.1352 8.34431C13.0009 8.46385 12.8398 8.55842 12.6512 8.63039C12.462 8.70116 12.2531 8.74577 12.0246 8.7654L11.9488 9.53145C11.9464 9.55108 11.9416 9.56654 11.9327 9.58141C11.9243 9.59628 11.9082 9.60817 11.8861 9.61769C11.8628 9.62602 11.8324 9.63494 11.793 9.64088C11.7536 9.64683 11.7053 9.64921 11.645 9.64921C11.5692 9.64921 11.5084 9.64564 11.4618 9.63851C11.4153 9.63137 11.3789 9.62126 11.3532 9.60817C11.3263 9.59509 11.309 9.57784 11.3007 9.55702C11.2935 9.53502 11.2911 9.51063 11.2959 9.48506L11.3717 8.75826C11.269 8.74339 11.1724 8.72555 11.0822 8.70354C10.9903 8.68154 10.9086 8.65596 10.8352 8.6292C10.7606 8.60243 10.6973 8.57448 10.6436 8.54653C10.5899 8.51738 10.5493 8.49062 10.5225 8.46266C10.4944 8.4359 10.4747 8.39546 10.464 8.34193C10.4514 8.2884 10.4455 8.2093 10.4455 8.10343C10.4455 8.02314 10.4479 7.95593 10.4526 7.90359C10.4574 7.85125 10.4664 7.80962 10.4771 7.78166C10.489 7.75252 10.504 7.73289 10.5225 7.72219C10.541 7.71148 10.5618 7.70613 10.5845 7.70613C10.615 7.70613 10.6603 7.72457 10.72 7.75966C10.7797 7.79475 10.8555 7.83519 10.9486 7.87802C11.0417 7.92084 11.1551 7.96069 11.2869 7.99637C11.4188 8.03146 11.574 8.0499 11.7524 8.0499C12.0323 8.0499 12.2388 7.99756 12.3743 7.89407C12.5098 7.79059 12.5784 7.65201 12.5784 7.48012C12.5784 7.36593 12.5492 7.27195 12.4907 7.1988C12.4322 7.12445 12.3552 7.06022 12.2573 7.00372C12.1595 6.94781 12.0484 6.89785 11.9261 6.85384C11.8026 6.80864 11.6766 6.76224 11.5483 6.71288C11.42 6.66292 11.2941 6.60463 11.1706 6.53743C11.0482 6.47022 10.9372 6.38874 10.8394 6.2912C10.7415 6.19365 10.6645 6.0747 10.606 5.93553C10.5475 5.79695 10.5183 5.62744 10.5183 5.42998C10.5183 5.25096 10.5475 5.08918 10.6072 4.94287C10.6669 4.79537 10.754 4.6675 10.8662 4.55806C10.9784 4.44863 11.1169 4.3606 11.2804 4.2928C11.4451 4.2244 11.6313 4.1798 11.839 4.15541L11.9112 3.43694C11.9136 3.41731 11.9183 3.40185 11.9273 3.38817C11.9357 3.37628 11.9518 3.36379 11.9738 3.35308C11.9971 3.34237 12.0264 3.33464 12.0658 3.32988C12.1034 3.32513 12.1535 3.32275 12.215 3.32275C12.2884 3.32275 12.3504 3.32632 12.3982 3.33345C12.4471 3.34059 12.4847 3.3507 12.5104 3.36379C12.5372 3.37628 12.5533 3.39412 12.5605 3.41493C12.5677 3.43694 12.5712 3.46014 12.5712 3.4869L12.499 4.16255C12.5665 4.17206 12.6369 4.18574 12.7103 4.2018C12.7849 4.21905 12.8535 4.23927 12.918 4.26128C12.9812 4.28447 13.0403 4.30886 13.0928 4.33443C13.1453 4.35882 13.1817 4.38201 13.2014 4.40283C13.2223 4.42365 13.2378 4.44327 13.248 4.4635C13.2587 4.48312 13.2677 4.5087 13.2737 4.53784C13.2796 4.56817 13.2832 4.60386 13.2856 4.6449C13.288 4.68653 13.2892 4.7353 13.2892 4.78883C13.2892 4.86318 13.288 4.92384 13.2844 4.97142C13.2808 5.019 13.2737 5.05409 13.2635 5.07967C13.2552 5.10405 13.2438 5.1213 13.2319 5.12963C13.2193 5.13795 13.2062 5.14152 13.1889 5.14152C13.1585 5.14152 13.1131 5.12546 13.0534 5.09513C12.9938 5.0648 12.9204 5.0303 12.8338 4.99521C12.7461 4.96012 12.6458 4.92563 12.5318 4.89529C12.4197 4.86496 12.2949 4.8489 12.1583 4.8489C12.0347 4.8489 11.9285 4.8608 11.8408 4.88399C11.7518 4.90838 11.6808 4.94109 11.6259 4.98391C11.571 5.02673 11.5304 5.07788 11.5036 5.13736C11.4779 5.19684 11.4648 5.26166 11.4648 5.33363C11.4648 5.44545 11.494 5.53942 11.5537 5.61495C11.6134 5.69168 11.6928 5.75769 11.7918 5.81241C11.8909 5.86713 12.0031 5.91709 12.1278 5.96229C12.2537 6.00749 12.3809 6.05508 12.5104 6.10444C12.6411 6.1544 12.7682 6.21269 12.8941 6.27752C13.0188 6.34353 13.1298 6.42502 13.2289 6.52077C13.3268 6.61712 13.4049 6.7337 13.4646 6.87049L13.4652 6.87109ZM7.49854 6.48628C7.49854 7.72516 8.00222 8.84628 8.81684 9.65813C9.63146 10.47 10.757 10.972 11.9995 10.972C13.242 10.972 14.3676 10.47 15.1822 9.65813C15.9968 8.84628 16.5005 7.72457 16.5005 6.48628C16.5005 5.24799 15.9968 4.12567 15.1822 3.31442C14.3676 2.50317 13.2432 2 12.0001 2C10.757 2 9.63146 2.50198 8.81744 3.31383C8.00342 4.12567 7.49913 5.24739 7.49913 6.48568L7.49854 6.48628Z" fill="white"/>
<path fill-rule="evenodd" clip-rule="evenodd" d="M17.7293 15.8221C17.7293 16.0862 17.7967 16.4311 17.9322 16.857H19.0559V17.3827H18.0432C18.0885 17.4862 18.1106 17.5897 18.1106 17.6944C18.1106 17.899 18.0605 18.1167 17.9614 18.3445C17.8624 18.5734 17.7 18.8072 17.4727 19.0457C17.6618 18.9933 17.8331 18.9678 17.9883 18.9678C18.1864 18.9678 18.4096 18.9981 18.6579 19.0594C19.0685 19.1593 19.346 19.2092 19.491 19.2092C19.667 19.2092 19.8968 19.1408 20.1773 19.0046L20.3898 19.5964C20.1701 19.6904 19.9989 19.7511 19.8789 19.7802C19.7578 19.8082 19.6372 19.823 19.5184 19.823C19.417 19.823 19.3155 19.8135 19.2129 19.7951C19.1484 19.7832 18.9927 19.7392 18.7486 19.6636C18.5027 19.5893 18.344 19.5441 18.2735 19.5298C18.1614 19.5114 18.0486 19.5019 17.9364 19.5019C17.7639 19.5019 17.5807 19.5322 17.3855 19.5946C17.1898 19.6553 17.0131 19.7398 16.8526 19.8456L16.6067 19.2318C16.8377 19.1052 17.0334 18.9238 17.1946 18.6888C17.3545 18.4539 17.4351 18.1666 17.4351 17.8282C17.4351 17.6819 17.4142 17.535 17.3742 17.3839H16.6658V16.8582H17.2232C17.1438 16.5917 17.0937 16.3978 17.0728 16.2747C17.0507 16.1516 17.04 16.0326 17.04 15.9166C17.04 15.4212 17.2232 15.0352 17.5908 14.7563C17.8862 14.5362 18.2443 14.425 18.665 14.425C19.0858 14.425 19.4534 14.5433 19.7339 14.7795C20.0138 15.0168 20.1863 15.3492 20.2507 15.7769L19.6127 15.872C19.5775 15.5871 19.4701 15.3617 19.2929 15.1976C19.1144 15.0334 18.902 14.9513 18.6525 14.9513C18.3875 14.9513 18.1673 15.0364 17.9913 15.2071C17.8164 15.3766 17.7287 15.5824 17.7287 15.8233L17.7293 15.8221ZM15.3159 13.9623C14.5012 14.7741 13.9976 15.8958 13.9976 17.1341C13.9976 18.3724 14.5012 19.4947 15.3159 20.306C16.1305 21.1178 17.256 21.6198 18.4985 21.6198C19.741 21.6198 20.8672 21.1178 21.6812 20.306C22.4958 19.4941 22.9995 18.3724 22.9995 17.1341C22.9995 15.8958 22.4958 14.7741 21.6812 13.9623C20.8666 13.1504 19.741 12.6484 18.4985 12.6484C17.256 12.6484 16.1305 13.1504 15.3159 13.9623Z" fill="white"/>
</g>
<defs>
<clipPath id="clip0_527_35">
<rect width="22" height="20" fill="white" transform="translate(1 2)"/>
</clipPath>
</defs>
</svg>
