<svg width="40" height="40" viewBox="0 0 40 40" fill="none" xmlns="http://www.w3.org/2000/svg">
<circle cx="20" cy="20" r="20" fill="#FF5555"/>
<path d="M19.3042 8.03837C18.1093 8.27197 16.9054 8.91884 16.0609 9.79032C14.9558 10.9134 14.3628 12.3239 14.2909 14.004C14.1652 17.1036 15.9441 20.3739 18.4238 21.5868C19.6546 22.1888 20.8855 22.1977 22.1343 21.6048C25.162 20.1852 27.0937 15.5044 26.0066 12.252C25.3597 10.3384 23.9132 8.85595 22.0894 8.254C21.5144 8.06532 19.8523 7.93056 19.3042 8.03837Z" fill="white"/>
<path d="M14.7222 21.4789C12.6558 22.2156 10.7511 23.1679 9.61908 24.0304C8.92728 24.5515 8.67572 24.9738 8.29837 26.2676C7.95697 27.4086 7.91205 28.1543 8.14564 28.6125C8.35228 29.0258 8.94525 29.6187 9.52025 29.9961C10.8499 30.8855 13.5003 31.6582 16.4472 32.0355C17.9476 32.2242 22.2781 32.2511 23.7515 32.0804C27.6417 31.6312 30.5796 30.6429 31.8734 29.3492C32.655 28.5676 32.7538 28.0195 32.3855 26.6269C31.8913 24.8031 31.6667 24.4527 30.355 23.5902C29.2679 22.8715 26.6445 21.6855 25.2609 21.2722L24.8745 21.1644L24.4523 21.5597C22.8441 23.0601 20.8585 23.6441 19.0167 23.1769C17.9566 22.9074 16.7167 22.1976 16.0339 21.4699C15.8812 21.3172 15.7015 21.1914 15.6296 21.2004C15.5488 21.2004 15.1445 21.3261 14.7222 21.4789Z" fill="white"/>
</svg>
