<svg width="20" height="18" viewBox="0 0 20 18" fill="none" xmlns="http://www.w3.org/2000/svg">
<g filter="url(#filter0_i_380_20)">
<path d="M20 5.23392C20 2.34814 17.6522 0 14.767 0C12.6494 0 10.823 1.26419 9.9996 3.07661C9.17698 1.26419 7.35021 0 5.23362 0C2.34723 0 0 2.34814 0 5.23392C0 5.84266 0.104543 6.42646 0.296897 6.97062C0.515749 7.59001 0.847495 8.15576 1.26806 8.64369C1.44738 8.85244 1.6422 9.04635 1.85249 9.22442L9.83475 17.1534C9.88387 17.2026 9.94785 17.2271 10.0125 17.2271C10.0777 17.2271 10.1421 17.2026 10.1916 17.1534L18.4703 8.92823L18.4697 8.92712C19.0062 8.38935 19.427 7.73671 19.6905 7.00823C19.8906 6.45407 20 5.85643 20 5.23392Z" fill="#F77878"/>
</g>
<defs>
<filter id="filter0_i_380_20" x="0" y="0" width="20" height="19.2271" filterUnits="userSpaceOnUse" color-interpolation-filters="sRGB">
<feFlood flood-opacity="0" result="BackgroundImageFix"/>
<feBlend mode="normal" in="SourceGraphic" in2="BackgroundImageFix" result="shape"/>
<feColorMatrix in="SourceAlpha" type="matrix" values="0 0 0 0 0 0 0 0 0 0 0 0 0 0 0 0 0 0 127 0" result="hardAlpha"/>
<feOffset dy="2"/>
<feGaussianBlur stdDeviation="1.5"/>
<feComposite in2="hardAlpha" operator="arithmetic" k2="-1" k3="1"/>
<feColorMatrix type="matrix" values="0 0 0 0 0 0 0 0 0 0 0 0 0 0 0 0 0 0 0.2 0"/>
<feBlend mode="normal" in2="shape" result="effect1_innerShadow_380_20"/>
</filter>
</defs>
</svg>
