<svg width="29" height="22" viewBox="0 0 29 22" fill="none" xmlns="http://www.w3.org/2000/svg">
<path d="M3.47437 3V11.205C3.47437 12.0334 4.14594 12.705 4.97437 12.705H23.8971C24.7255 12.705 25.3971 12.0334 25.3971 11.205V3C25.3971 2.17157 24.7255 1.5 23.8971 1.5H4.97437C4.14594 1.5 3.47437 2.17157 3.47437 3Z" stroke="#505050"/>
<path d="M2.5 12.7052V20.0126C2.5 20.2817 2.7182 20.4999 2.98731 20.4998C3.25631 20.4997 3.46993 20.279 3.52907 20.0166C3.67045 19.3892 4.06271 18.8544 4.43238 18.4849C4.73627 18.1812 5.16126 18.0572 5.59076 18.0455C11.4755 17.8854 22.4343 17.6885 23.9356 18.0638C25.1379 18.3644 25.4516 19.2639 25.4577 19.9578C25.4601 20.2357 25.6663 20.4999 25.9442 20.4999C26.1802 20.4999 26.3714 20.3087 26.3714 20.0727V12.7052C26.3714 12.1233 25.9998 11.6038 25.442 11.4381C16.9859 8.92593 7.83911 10.2481 3.43171 11.4556C2.87187 11.609 2.5 12.1247 2.5 12.7052Z" fill="white" stroke="#505050"/>
<path d="M2.5 14.6536H26.1878" stroke="#505050"/>
<path d="M13.2179 10.025L13.2309 10.5248L13.7179 10.5121V10.025H13.2179ZM5.52802 10.8589L5.05436 11.019L5.19437 11.4331L5.62343 11.3497L5.52802 10.8589ZM4.9231 8.37183V10.2179H5.9231V8.37183H4.9231ZM7.4231 5.87183C6.04238 5.87183 4.9231 6.99111 4.9231 8.37183H5.9231C5.9231 7.5434 6.59467 6.87183 7.4231 6.87183V5.87183ZM11.2179 5.87183H7.4231V6.87183H11.2179V5.87183ZM13.7179 8.37183C13.7179 6.99111 12.5986 5.87183 11.2179 5.87183V6.87183C12.0463 6.87183 12.7179 7.5434 12.7179 8.37183H13.7179ZM13.7179 10.025V8.37183H12.7179V10.025H13.7179ZM13.2048 9.52518C10.2752 9.60155 7.59542 9.94761 5.4326 10.3681L5.62343 11.3497C7.73762 10.9387 10.3621 10.5996 13.2309 10.5248L13.2048 9.52518ZM4.9231 10.2179C4.9231 10.4972 4.96911 10.7669 5.05436 11.019L6.00168 10.6987C5.95086 10.5484 5.9231 10.3869 5.9231 10.2179H4.9231Z" fill="#505050"/>
<path d="M15.1665 10.0103H14.6665V10.5073L15.1634 10.5103L15.1665 10.0103ZM22.8773 10.7931L22.7752 11.2826L23.2245 11.3763L23.3563 10.9367L22.8773 10.7931ZM14.6665 8.37183V10.0103H15.6665V8.37183H14.6665ZM17.1665 5.87183C15.7858 5.87183 14.6665 6.99111 14.6665 8.37183H15.6665C15.6665 7.5434 16.3381 6.87183 17.1665 6.87183V5.87183ZM20.9613 5.87183H17.1665V6.87183H20.9613V5.87183ZM23.4613 8.37183C23.4613 6.99111 22.342 5.87183 20.9613 5.87183V6.87183C21.7897 6.87183 22.4613 7.5434 22.4613 8.37183H23.4613ZM23.4613 10.2179V8.37183H22.4613V10.2179H23.4613ZM23.3563 10.9367C23.4247 10.7084 23.4613 10.467 23.4613 10.2179H22.4613C22.4613 10.3687 22.4392 10.5134 22.3984 10.6495L23.3563 10.9367ZM22.9794 10.3036C20.333 9.7516 17.6773 9.52577 15.1696 9.51033L15.1634 10.5103C17.617 10.5254 20.205 10.7464 22.7752 11.2826L22.9794 10.3036Z" fill="#505050"/>
</svg>
