<svg width="80" height="56" viewBox="0 0 80 56" fill="none" xmlns="http://www.w3.org/2000/svg">
<rect x="2.41094" y="2.81304" width="75.1781" height="50.1781" rx="11.4118" stroke="#DFE6EE" stroke-width="4.82188"/>
<path d="M40.1826 0.56318H37.7717V5.38506H40.1826V0.56318ZM66.8637 5.38506C68.1952 5.38506 69.2746 4.30565 69.2746 2.97412C69.2746 1.64259 68.1952 0.56318 66.8637 0.56318V5.38506ZM40.1826 5.38506H66.8637V0.56318H40.1826V5.38506Z" fill="#6092A8"/>
<path d="M31.2997 35.9761H32.1547V38.7391H35.5387V35.9761H36.3937V42.4021H35.5387V39.4591H32.1547V42.4021H31.2997V35.9761ZM38.2268 40.0801C38.2268 40.3621 38.2628 40.6141 38.3348 40.8361C38.4128 41.0521 38.5178 41.2351 38.6498 41.3851C38.7818 41.5291 38.9348 41.6401 39.1088 41.7181C39.2888 41.7961 39.4778 41.8351 39.6758 41.8351C39.8738 41.8351 40.0598 41.7961 40.2338 41.7181C40.4138 41.6401 40.5698 41.5291 40.7018 41.3851C40.8338 41.2351 40.9358 41.0521 41.0078 40.8361C41.0858 40.6141 41.1248 40.3621 41.1248 40.0801C41.1248 39.7981 41.0858 39.5491 41.0078 39.3331C40.9358 39.1111 40.8338 38.9251 40.7018 38.7751C40.5698 38.6251 40.4138 38.5111 40.2338 38.4331C40.0598 38.3551 39.8738 38.3161 39.6758 38.3161C39.4778 38.3161 39.2888 38.3551 39.1088 38.4331C38.9348 38.5111 38.7818 38.6251 38.6498 38.7751C38.5178 38.9251 38.4128 39.1111 38.3348 39.3331C38.2628 39.5491 38.2268 39.7981 38.2268 40.0801ZM37.4168 40.0801C37.4168 39.7381 37.4648 39.4201 37.5608 39.1261C37.6568 38.8261 37.8008 38.5681 37.9928 38.3521C38.1848 38.1301 38.4218 37.9561 38.7038 37.8301C38.9858 37.7041 39.3098 37.6411 39.6758 37.6411C40.0478 37.6411 40.3718 37.7041 40.6478 37.8301C40.9298 37.9561 41.1668 38.1301 41.3588 38.3521C41.5508 38.5681 41.6948 38.8261 41.7908 39.1261C41.8868 39.4201 41.9348 39.7381 41.9348 40.0801C41.9348 40.4221 41.8868 40.7401 41.7908 41.0341C41.6948 41.3281 41.5508 41.5861 41.3588 41.8081C41.1668 42.0241 40.9298 42.1951 40.6478 42.3211C40.3718 42.4411 40.0478 42.5011 39.6758 42.5011C39.3098 42.5011 38.9858 42.4411 38.7038 42.3211C38.4218 42.1951 38.1848 42.0241 37.9928 41.8081C37.8008 41.5861 37.6568 41.3281 37.5608 41.0341C37.4648 40.7401 37.4168 40.4221 37.4168 40.0801ZM43.8987 37.7491H44.8257V38.4241H43.8987V41.3131C43.8987 41.4031 43.9047 41.4751 43.9167 41.5291C43.9347 41.5831 43.9647 41.6251 44.0067 41.6551C44.0487 41.6851 44.1057 41.7061 44.1777 41.7181C44.2557 41.7241 44.3547 41.7271 44.4747 41.7271H44.8257V42.4021H44.2407C44.0427 42.4021 43.8717 42.3901 43.7277 42.3661C43.5897 42.3361 43.4757 42.2851 43.3857 42.2131C43.3017 42.1411 43.2387 42.0391 43.1967 41.9071C43.1547 41.7751 43.1337 41.6011 43.1337 41.3851V38.4241H42.3417V37.7491H43.1337V36.3541H43.8987V37.7491ZM48.9066 39.6301C48.8946 39.4501 48.8526 39.2791 48.7806 39.1171C48.7146 38.9551 48.6216 38.8171 48.5016 38.7031C48.3876 38.5831 48.2496 38.4901 48.0876 38.4241C47.9316 38.3521 47.7576 38.3161 47.5656 38.3161C47.3676 38.3161 47.1876 38.3521 47.0256 38.4241C46.8696 38.4901 46.7346 38.5831 46.6206 38.7031C46.5066 38.8231 46.4166 38.9641 46.3506 39.1261C46.2846 39.2821 46.2456 39.4501 46.2336 39.6301H48.9066ZM49.6446 40.9261C49.5426 41.4481 49.3176 41.8411 48.9696 42.1051C48.6216 42.3691 48.1836 42.5011 47.6556 42.5011C47.2836 42.5011 46.9596 42.4411 46.6836 42.3211C46.4136 42.2011 46.1856 42.0331 45.9996 41.8171C45.8136 41.6011 45.6726 41.3431 45.5766 41.0431C45.4866 40.7431 45.4356 40.4161 45.4236 40.0621C45.4236 39.7081 45.4776 39.3841 45.5856 39.0901C45.6936 38.7961 45.8436 38.5411 46.0356 38.3251C46.2336 38.1091 46.4646 37.9411 46.7286 37.8211C46.9986 37.7011 47.2926 37.6411 47.6106 37.6411C48.0246 37.6411 48.3666 37.7281 48.6366 37.9021C48.9126 38.0701 49.1316 38.2861 49.2936 38.5501C49.4616 38.8141 49.5756 39.1021 49.6356 39.4141C49.7016 39.7261 49.7286 40.0231 49.7166 40.3051H46.2336C46.2276 40.5091 46.2516 40.7041 46.3056 40.8901C46.3596 41.0701 46.4466 41.2321 46.5666 41.3761C46.6866 41.5141 46.8396 41.6251 47.0256 41.7091C47.2116 41.7931 47.4306 41.8351 47.6826 41.8351C48.0066 41.8351 48.2706 41.7601 48.4746 41.6101C48.6846 41.4601 48.8226 41.2321 48.8886 40.9261H49.6446ZM50.5546 35.9761H51.3196V42.4021H50.5546V35.9761Z" fill="#505050"/>
<path d="M29.5977 14.9021V23.4021C29.5977 24.2305 30.2692 24.9021 31.0977 24.9021H50.5977C51.4261 24.9021 52.0977 24.2305 52.0977 23.4021V14.9021C52.0977 14.0737 51.4261 13.4021 50.5977 13.4021H31.0977C30.2692 13.4021 29.5977 14.0737 29.5977 14.9021Z" fill="#505050" stroke="#505050" stroke-width="0.75"/>
<path d="M28.5977 24.9024V32.4022C28.5977 32.6784 28.8216 32.9023 29.0978 32.9022C29.3739 32.9022 29.5931 32.6756 29.6538 32.4063C29.7989 31.7624 30.2015 31.2135 30.5809 30.8343C30.8928 30.5226 31.329 30.3954 31.7698 30.3834C37.8094 30.219 49.0568 30.0169 50.5977 30.4021C51.8316 30.7106 52.1536 31.6338 52.1598 32.346C52.1624 32.6312 52.374 32.9024 52.6592 32.9024C52.9014 32.9024 53.0977 32.7061 53.0977 32.4639V24.9024C53.0977 24.3052 52.7162 23.772 52.1438 23.6019C43.4649 21.0236 34.0774 22.3806 29.5539 23.6199C28.9793 23.7773 28.5977 24.3066 28.5977 24.9024Z" fill="#505050" stroke="#505050" stroke-width="0.75"/>
<path d="M27.5977 27.4021L53.5977 27.4021" stroke="white" stroke-width="0.75"/>
<path fill-rule="evenodd" clip-rule="evenodd" d="M31.5977 22.4021V20.4021C31.5977 19.2975 32.4931 18.4021 33.5977 18.4021H37.5977C38.7022 18.4021 39.5977 19.2975 39.5977 20.4021V22.1514C36.6159 22.2292 33.8889 22.582 31.6917 23.0099C31.6306 22.8182 31.5977 22.614 31.5977 22.4021Z" fill="white"/>
<path d="M39.5977 22.1514L39.6074 22.5263L39.9727 22.5168V22.1514H39.5977ZM31.6917 23.0099L31.3344 23.1238L31.4357 23.4418L31.7634 23.378L31.6917 23.0099ZM31.2227 20.4021V22.4021H31.9727V20.4021H31.2227ZM33.5977 18.0271C32.286 18.0271 31.2227 19.0904 31.2227 20.4021H31.9727C31.9727 19.5046 32.7002 18.7771 33.5977 18.7771V18.0271ZM37.5977 18.0271H33.5977V18.7771H37.5977V18.0271ZM39.9727 20.4021C39.9727 19.0904 38.9093 18.0271 37.5977 18.0271V18.7771C38.4951 18.7771 39.2227 19.5046 39.2227 20.4021H39.9727ZM39.9727 22.1514V20.4021H39.2227V22.1514H39.9727ZM39.5879 21.7766C36.5833 21.8549 33.8355 22.2104 31.62 22.6418L31.7634 23.378C33.9423 22.9537 36.6486 22.6034 39.6074 22.5263L39.5879 21.7766ZM31.2227 22.4021C31.2227 22.6531 31.2617 22.8957 31.3344 23.1238L32.049 22.8961C31.9995 22.7408 31.9727 22.5749 31.9727 22.4021H31.2227Z" fill="#505050"/>
<path fill-rule="evenodd" clip-rule="evenodd" d="M41.5977 22.1364V20.4021C41.5977 19.2975 42.4931 18.4021 43.5977 18.4021H47.5977C48.7022 18.4021 49.5977 19.2975 49.5977 20.4021V22.4021C49.5977 22.5893 49.5719 22.7705 49.5238 22.9423C46.8428 22.382 44.1475 22.1521 41.5977 22.1364Z" fill="white"/>
<path d="M41.5977 22.1364H41.2227V22.5091L41.5953 22.5114L41.5977 22.1364ZM49.5238 22.9423L49.4471 23.3094L49.7904 23.3811L49.885 23.0434L49.5238 22.9423ZM41.2227 20.4021V22.1364H41.9727V20.4021H41.2227ZM43.5977 18.0271C42.286 18.0271 41.2227 19.0904 41.2227 20.4021H41.9727C41.9727 19.5046 42.7002 18.7771 43.5977 18.7771V18.0271ZM47.5977 18.0271H43.5977V18.7771H47.5977V18.0271ZM49.9727 20.4021C49.9727 19.0904 48.9093 18.0271 47.5977 18.0271V18.7771C48.4951 18.7771 49.2227 19.5046 49.2227 20.4021H49.9727ZM49.9727 22.4021V20.4021H49.2227V22.4021H49.9727ZM49.885 23.0434C49.9422 22.839 49.9727 22.6238 49.9727 22.4021H49.2227C49.2227 22.5548 49.2017 22.702 49.1627 22.8412L49.885 23.0434ZM49.6006 22.5752C46.8908 22.009 44.1702 21.7772 41.6 21.7614L41.5953 22.5114C44.1249 22.5269 46.7947 22.7551 49.4471 23.3094L49.6006 22.5752Z" fill="#505050"/>
</svg>
