<svg width="29" height="22" viewBox="0 0 29 22" fill="none" xmlns="http://www.w3.org/2000/svg">
<g clip-path="url(#clip0_642_2405)">
<path d="M4.5 3V11.5C4.5 12.3284 5.17157 13 6 13H25.5C26.3284 13 27 12.3284 27 11.5V3C27 2.17157 26.3284 1.5 25.5 1.5H6C5.17157 1.5 4.5 2.17157 4.5 3Z" fill="#505050" stroke="#505050" stroke-width="0.75"/>
<path d="M3.5 13.0003V20.5001C3.5 20.7763 3.72394 21.0002 4.00014 21.0001C4.27623 21.0001 4.49547 20.7735 4.55616 20.5042C4.70126 19.8603 5.10386 19.3114 5.48326 18.9322C5.79516 18.6205 6.23134 18.4933 6.67214 18.4813C12.7118 18.3169 23.9592 18.1148 25.5 18.5C26.734 18.8085 27.0559 19.7317 27.0622 20.4439C27.0647 20.7291 27.2763 21.0003 27.5615 21.0003C27.8037 21.0003 28 20.804 28 20.5618V13.0003C28 12.4031 27.6186 11.8699 27.0461 11.6998C18.3673 9.12153 8.9797 10.4785 4.45624 11.7178C3.88167 11.8752 3.5 12.4045 3.5 13.0003Z" fill="#505050" stroke="#505050" stroke-width="0.75"/>
<path d="M2.5 15.5L28.5 15.5" stroke="white" stroke-width="0.75"/>
<path fill-rule="evenodd" clip-rule="evenodd" d="M6.5 10.5V8.5C6.5 7.39543 7.39543 6.5 8.5 6.5H12.5C13.6046 6.5 14.5 7.39543 14.5 8.5V10.2493C11.5183 10.3271 8.79121 10.6799 6.59403 11.1078C6.53296 10.9161 6.5 10.7119 6.5 10.5Z" fill="white"/>
<path d="M14.5 10.2493L14.5098 10.6242L14.875 10.6147V10.2493H14.5ZM6.59403 11.1078L6.23673 11.2217L6.33807 11.5397L6.66571 11.4759L6.59403 11.1078ZM6.125 8.5V10.5H6.875V8.5H6.125ZM8.5 6.125C7.18832 6.125 6.125 7.18832 6.125 8.5H6.875C6.875 7.60254 7.60254 6.875 8.5 6.875V6.125ZM12.5 6.125H8.5V6.875H12.5V6.125ZM14.875 8.5C14.875 7.18832 13.8117 6.125 12.5 6.125V6.875C13.3975 6.875 14.125 7.60254 14.125 8.5H14.875ZM14.875 10.2493V8.5H14.125V10.2493H14.875ZM14.4902 9.87447C11.4856 9.95279 8.7378 10.3083 6.52235 10.7397L6.66571 11.4759C8.84461 11.0516 11.5509 10.7013 14.5098 10.6242L14.4902 9.87447ZM6.125 10.5C6.125 10.751 6.16407 10.9936 6.23673 11.2217L6.95133 10.994C6.90185 10.8387 6.875 10.6728 6.875 10.5H6.125Z" fill="#505050"/>
<path fill-rule="evenodd" clip-rule="evenodd" d="M16.5 10.2343V8.5C16.5 7.39543 17.3954 6.5 18.5 6.5H22.5C23.6046 6.5 24.5 7.39543 24.5 8.5V10.5C24.5 10.6872 24.4743 10.8684 24.4262 11.0402C21.7451 10.4799 19.0499 10.25 16.5 10.2343Z" fill="white"/>
<path d="M16.5 10.2343H16.125V10.607L16.4977 10.6093L16.5 10.2343ZM24.4262 11.0402L24.3495 11.4073L24.6928 11.479L24.7873 11.1413L24.4262 11.0402ZM16.125 8.5V10.2343H16.875V8.5H16.125ZM18.5 6.125C17.1883 6.125 16.125 7.18832 16.125 8.5H16.875C16.875 7.60254 17.6025 6.875 18.5 6.875V6.125ZM22.5 6.125H18.5V6.875H22.5V6.125ZM24.875 8.5C24.875 7.18832 23.8117 6.125 22.5 6.125V6.875C23.3975 6.875 24.125 7.60254 24.125 8.5H24.875ZM24.875 10.5V8.5H24.125V10.5H24.875ZM24.7873 11.1413C24.8445 10.9369 24.875 10.7217 24.875 10.5H24.125C24.125 10.6527 24.104 10.7999 24.0651 10.9391L24.7873 11.1413ZM24.5029 10.6731C21.7932 10.1069 19.0726 9.8751 16.5023 9.85927L16.4977 10.6093C19.0272 10.6248 21.697 10.853 24.3495 11.4073L24.5029 10.6731Z" fill="#505050"/>
</g>
<defs>
<clipPath id="clip0_642_2405">
<rect width="28" height="22" fill="white" transform="translate(0.5)"/>
</clipPath>
</defs>
</svg>
