<svg width="25" height="25" viewBox="0 0 25 25" fill="none" xmlns="http://www.w3.org/2000/svg">
<path fill-rule="evenodd" clip-rule="evenodd" d="M6.832 5.64673C6.54089 5.35206 6.06603 5.34918 5.77136 5.64029C5.47669 5.9314 5.47381 6.40626 5.76492 6.70093L10.3389 11.3308L6.01256 15.6572C5.32914 16.3406 5.32915 17.4487 6.01256 18.1321L7.59835 19.7179C8.28177 20.4013 9.38981 20.4013 10.0732 19.7179L14.3749 15.4162L18.7667 19.8616C19.0578 20.1563 19.5327 20.1592 19.8273 19.8681C20.122 19.577 20.1249 19.1021 19.8338 18.8074L15.4356 14.3555L15.652 14.1391C15.6869 14.1042 15.7314 14.0804 15.7798 14.0707L17.686 13.6895C18.0248 13.6217 18.3359 13.4552 18.5802 13.2109L19.6245 12.1666C20.3311 11.46 20.3036 10.3064 19.5643 9.63423L15.5458 5.9811C14.8546 5.35273 13.7918 5.37802 13.1312 6.03856L12.0983 7.07143C11.7702 7.39962 11.5858 7.84474 11.5858 8.30887V9.98044C11.5858 10.0467 11.5594 10.1103 11.5126 10.1572L11.3996 10.2702L6.832 5.64673ZM11.3931 12.398L7.07322 16.7179C6.97559 16.8155 6.97559 16.9738 7.07322 17.0714L8.65901 18.6572C8.75664 18.7548 8.91493 18.7548 9.01256 18.6572L13.3207 14.3491L11.3931 12.398ZM14.3814 13.2884L12.4538 11.3373L12.5732 11.2179C12.9014 10.8897 13.0858 10.4446 13.0858 9.98044V8.30887C13.0858 8.24256 13.1121 8.17897 13.159 8.13209L14.1919 7.09922C14.2862 7.00486 14.4381 7.00124 14.5368 7.09101L18.5553 10.7441C18.6609 10.8402 18.6648 11.005 18.5639 11.1059L17.546 12.1238C17.5371 12.1122 17.5276 12.1008 17.5176 12.0898L15.2807 9.63988C15.0945 9.43595 14.7783 9.42157 14.5743 9.60776L14.2051 9.94489C14.0012 10.1311 13.9868 10.4473 14.173 10.6513L15.88 12.5209L15.4856 12.5998C15.1468 12.6676 14.8357 12.8341 14.5914 13.0784L14.3814 13.2884Z" fill="#0E1A50"/>
</svg>
