<svg width="24" height="24" viewBox="0 0 24 24" fill="none" xmlns="http://www.w3.org/2000/svg">
<path d="M13.0451 10.445C13.3225 10.1332 13.5516 9.815 13.8353 9.54741C14.7095 8.71935 15.7454 8.30216 16.9537 8.31269C17.6178 8.31902 18.2755 8.36537 18.9143 8.5529C20.379 8.97851 21.2301 9.98778 21.6357 11.4227C21.9404 12.4993 21.9971 13.6034 21.9992 14.7117C22.0034 17.0484 21.9929 19.3872 21.9992 21.7239C21.9992 21.943 21.9383 21.9999 21.7239 21.9978C20.524 21.9872 19.322 21.9872 18.12 21.9978C17.9078 21.9978 17.8636 21.9346 17.8636 21.7344C17.87 19.5094 17.8721 17.2865 17.8636 15.0615C17.8636 14.5031 17.8258 13.9469 17.6703 13.4054C17.3824 12.4066 16.6701 11.8988 15.6278 11.9536C14.203 12.0295 13.4633 12.7353 13.2805 14.1892C13.2364 14.5368 13.2175 14.8824 13.2175 15.2321C13.2175 17.3961 13.2154 19.5579 13.2238 21.7218C13.2238 21.9367 13.1712 22.002 12.9506 21.9999C11.7402 21.9894 10.5319 21.9915 9.32148 21.9999C9.12815 21.9999 9.07141 21.9493 9.07141 21.7513C9.07772 17.4677 9.07772 13.1862 9.07141 8.90266C9.07141 8.68985 9.14076 8.64139 9.34039 8.6435C10.4899 8.65193 11.6372 8.65403 12.7867 8.6435C12.9989 8.6435 13.0536 8.71092 13.0473 8.91109C13.0346 9.42309 13.043 9.9351 13.043 10.4471L13.0451 10.445Z" fill="black"/>
<path d="M6.46566 15.3395C6.46566 17.4591 6.46146 19.5767 6.46986 21.6963C6.46986 21.9323 6.41312 22.004 6.16936 21.9997C4.96947 21.9871 3.76747 21.9892 2.56757 21.9997C2.37424 21.9997 2.3175 21.9534 2.3175 21.7532C2.32381 17.4633 2.32381 13.1734 2.3175 8.88355C2.3175 8.70656 2.35953 8.64335 2.54866 8.64335C3.76747 8.65177 4.98418 8.65388 6.20298 8.64335C6.43624 8.64124 6.46776 8.73184 6.46776 8.93411C6.46146 11.0706 6.46356 13.2071 6.46356 15.3416L6.46566 15.3395Z" fill="black"/>
<path d="M6.7954 4.39147C6.7954 5.721 5.71948 6.80611 4.3956 6.80611C3.09064 6.80611 2.00421 5.7231 2.00001 4.41254C1.99581 3.08933 3.08013 2 4.40191 2C5.71318 2 6.7954 3.0809 6.7954 4.39147Z" fill="black"/>
</svg>
