<svg width="24" height="24" viewBox="0 0 24 24" fill="none" xmlns="http://www.w3.org/2000/svg">
<g clip-path="url(#clip0_527_34)">
<path fill-rule="evenodd" clip-rule="evenodd" d="M5.0185 7.26755L5.5547 8.66264C5.6063 8.79438 5.7281 8.87722 5.8593 8.87722C5.9015 8.87722 5.9389 8.86744 5.9813 8.85287C6.1501 8.7846 6.2297 8.58459 6.1641 8.40893L5.5745 6.87522C5.5669 6.82048 5.5469 6.77033 5.5177 6.72745L4.4765 4.01864C4.4617 3.97889 4.4403 3.94413 4.4143 3.91458C4.4133 3.91333 4.4121 3.91229 4.4111 3.91104C4.4089 3.90854 4.4067 3.90625 4.4045 3.90397C4.4013 3.90064 4.3979 3.89731 4.3945 3.89398C4.3945 3.89398 4.3945 3.89398 4.3943 3.89377C4.3657 3.8665 4.3321 3.84402 4.2937 3.82841C4.2817 3.82363 4.2695 3.81946 4.2573 3.81613C4.2573 3.81613 4.2571 3.81613 4.2569 3.81613C4.2519 3.81489 4.2471 3.81364 4.2421 3.81239C4.2415 3.81239 4.2411 3.81218 4.2405 3.81197C4.2359 3.81093 4.2313 3.8101 4.2267 3.80927C4.2257 3.80927 4.2247 3.80906 4.2239 3.80885C4.2197 3.80823 4.2155 3.8076 4.2111 3.80698C4.2097 3.80698 4.2083 3.80677 4.2069 3.80656C4.2031 3.80614 4.1993 3.80573 4.1953 3.80552C4.1933 3.80552 4.1913 3.80552 4.1895 3.8051C4.1863 3.8051 4.1829 3.80469 4.1797 3.80469C4.1771 3.80469 4.1745 3.80469 4.1719 3.80469C4.1693 3.80469 4.1667 3.80469 4.1641 3.80469C4.1609 3.80469 4.1575 3.8049 4.1543 3.8051C4.1523 3.8051 4.1503 3.8051 4.1483 3.80552C4.1445 3.80573 4.1407 3.80614 4.1369 3.80656C4.1355 3.80656 4.1341 3.80677 4.1327 3.80698C4.1285 3.80739 4.1243 3.80823 4.1201 3.80885C4.1191 3.80885 4.1181 3.80906 4.1171 3.80927C4.1127 3.8101 4.1081 3.81093 4.1037 3.81197C4.1031 3.81197 4.1025 3.81218 4.1017 3.81239C4.0969 3.81343 4.0921 3.81468 4.0873 3.81593C4.0871 3.81593 4.0867 3.81593 4.0865 3.81593C4.0743 3.81926 4.0621 3.82321 4.0501 3.82821C4.0119 3.84361 3.9785 3.86588 3.9501 3.89293C3.9489 3.89398 3.9479 3.89522 3.9467 3.89626C3.9445 3.89855 3.9421 3.90084 3.9399 3.90313C3.9367 3.90646 3.9335 3.91 3.9303 3.91354C3.9041 3.9433 3.8825 3.97827 3.8675 4.01823L2.8263 6.72683C2.7971 6.7697 2.7771 6.82007 2.7693 6.87501L2.1799 8.40851C2.1143 8.58417 2.1939 8.78419 2.3627 8.85245C2.4049 8.86702 2.4423 8.8768 2.4845 8.8768C2.6157 8.8768 2.7377 8.79397 2.7893 8.66222L3.3255 7.26713H5.0187L5.0185 7.26755ZM3.5879 6.58447L4.1719 5.06491L4.7559 6.58447H3.5877H3.5879Z" fill="white"/>
<path fill-rule="evenodd" clip-rule="evenodd" d="M23.0626 9.95117H19.737C18.514 6.32264 15.2472 3.90251 11.5314 3.90251C10.4282 3.90251 9.3566 4.12188 8.344 4.55063V2.9755C8.344 2.44873 7.9128 2 7.4066 2H0.9374C0.4312 2 0 2.44873 0 2.9755V9.70725C0 10.234 0.4312 10.6827 0.9374 10.6827H3.1334C2.9508 11.5138 2.8592 12.25 2.8592 12.9266C2.8592 17.9315 6.7498 21.9998 11.5312 21.9998C14.214 21.9998 16.6716 20.7722 18.2998 18.6339H18.703V19.6094C18.703 19.7412 18.778 19.8581 18.8906 19.9168C18.9328 19.9412 18.9844 19.951 19.0312 19.951C19.1062 19.951 19.1764 19.9266 19.2328 19.8777L20.7374 18.6337H23.0624C23.5686 18.6337 23.9998 18.185 23.9998 17.6582V10.9265C23.9998 10.3997 23.5686 9.95096 23.0624 9.95096L23.0626 9.95117ZM19.0364 9.95117H16.5936C16.518 9.95117 16.444 9.96137 16.373 9.9801C15.8508 9.83525 15.2998 9.71495 14.728 9.62025C14.5726 8.5309 14.3392 7.53021 14.0342 6.67292C13.741 5.84582 13.3936 5.19063 13.0072 4.72525C15.737 5.24932 18.0312 7.20678 19.0364 9.95096V9.95117ZM15.6562 10.9269V15.3954C15.3896 15.4604 15.109 15.5178 14.8144 15.5675C14.9058 14.7236 14.953 13.8357 14.953 12.927C14.953 12.0183 14.9064 11.1579 14.8164 10.326C15.1344 10.382 15.4448 10.4463 15.7464 10.5187C15.6888 10.6438 15.6562 10.7824 15.6562 10.9271V10.9269ZM11.5312 21.3169C10.5524 21.3169 9.4896 19.3878 9.0168 16.3437C9.8208 16.4386 10.666 16.4877 11.5312 16.4877C12.4394 16.4877 13.2816 16.4444 14.052 16.3582C13.587 19.4221 12.5328 21.3169 11.5312 21.3169ZM11.536 15.8098C10.6008 15.8098 9.7254 15.7532 8.9222 15.6518C8.822 14.8112 8.7658 13.8981 8.7658 12.927C8.7658 11.9559 8.8212 11.0676 8.92 10.2371C9.6702 10.1347 10.578 10.0488 11.5314 10.0488C12.4284 10.0488 13.3086 10.1077 14.1468 10.2215C14.2432 11.0534 14.297 11.9594 14.297 12.927C14.297 13.9067 14.2426 14.8235 14.145 15.6647C13.3582 15.7613 12.487 15.81 11.5362 15.81L11.536 15.8098ZM3.917 11.2256C3.8232 11.2953 3.7354 11.3665 3.6536 11.4391C3.6746 11.3169 3.6978 11.1925 3.7238 11.0653L3.917 11.2253V11.2256ZM4.4558 11.6724L4.7624 11.9267C4.8232 11.9754 4.8936 12 4.9686 12C5.0154 12 5.067 11.9902 5.1092 11.9659C5.2264 11.9074 5.2968 11.7904 5.2968 11.6587V10.6832H7.4062C7.6718 10.6832 7.9166 10.5595 8.0894 10.366C8.1412 10.357 8.1942 10.3479 8.2488 10.3389C8.157 11.1687 8.1092 12.0387 8.1092 12.927C8.1092 13.8153 8.1578 14.7123 8.2508 15.5542C5.3276 15.0699 3.52 13.9735 3.52 12.932C3.52 12.5289 3.8562 12.0764 4.4556 11.6728L4.4558 11.6724ZM11.5312 4.58539C12.5336 4.58539 13.5888 6.47208 14.0532 9.52222C13.2398 9.41899 12.3922 9.36591 11.5312 9.36591C10.6214 9.36591 9.7526 9.44105 9.016 9.53554C9.4884 6.506 10.5518 4.58559 11.5312 4.58559V4.58539ZM10.072 4.72712C9.6878 5.19229 9.3394 5.84707 9.0422 6.67334C8.7376 7.53021 8.502 8.52424 8.3438 9.60193V5.29074C8.9026 5.03203 9.48 4.84367 10.072 4.72712ZM0.6562 9.70725V2.9755C0.6562 2.82419 0.7922 2.68287 0.9374 2.68287H7.4062C7.5516 2.68287 7.6874 2.8244 7.6874 2.9755V5.06658C7.6874 5.0697 7.6874 5.07262 7.6874 5.07574V9.70725C7.6874 9.85856 7.5514 9.99988 7.4062 9.99988H4.9688C4.786 9.99988 4.6406 10.151 4.6406 10.3412V10.951L3.5812 10.0729C3.5204 10.0242 3.45 9.99967 3.375 9.99967H0.9374C0.792 9.99967 0.6562 9.85814 0.6562 9.70704V9.70725ZM3.6506 14.463C4.0976 14.8651 4.7272 15.2266 5.522 15.5315C6.342 15.8475 7.2986 16.0895 8.34 16.2513C8.4984 17.3479 8.7352 18.3577 9.0424 19.2242C9.338 20.0544 9.6872 20.7115 10.0728 21.1775C6.823 20.5493 4.2542 17.862 3.6506 14.4628V14.463ZM13.0046 21.181C13.3934 20.7142 13.7422 20.0544 14.0344 19.2196C14.3384 18.365 14.5714 17.3625 14.7268 16.2689C15.0516 16.2188 15.3616 16.1601 15.6564 16.0927V17.6584C15.6564 18.1852 16.0876 18.6339 16.5938 18.6339H17.4422C16.2744 19.9745 14.7238 20.8588 13.0046 21.1808V21.181ZM23.3438 17.6584C23.3438 17.8097 23.2078 17.951 23.0626 17.951H20.6252C20.5502 17.951 20.4752 17.9754 20.419 18.0243L19.3596 18.9024V18.2926C19.3596 18.1024 19.2142 17.951 19.0314 17.951H16.5938C16.4484 17.951 16.3126 17.8095 16.3126 17.6584V15.6949C16.3148 15.6731 16.3148 15.651 16.3126 15.6285V10.9267C16.3126 10.8276 16.3712 10.7329 16.4522 10.6792C16.496 10.673 16.5374 10.6578 16.5748 10.6351C16.5812 10.6345 16.5874 10.634 16.5938 10.634H23.0626C23.208 10.634 23.3438 10.7756 23.3438 10.9267V17.6584Z" fill="white"/>
<path fill-rule="evenodd" clip-rule="evenodd" d="M21.7499 12.7312H21.0749C21.0585 12.7299 21.0425 12.7299 21.0265 12.7312H20.1563V11.9507C20.1563 11.7605 20.0109 11.6094 19.8281 11.6094C19.6453 11.6094 19.4999 11.7607 19.4999 11.9507V12.7312H17.9061C17.7233 12.7312 17.5779 12.8825 17.5779 13.0727C17.5779 13.263 17.7233 13.4143 17.9061 13.4143H20.6141C20.4651 13.8568 20.1481 14.5885 19.5399 15.2593C19.0067 14.7496 18.8707 14.1467 18.8631 14.1379C18.7503 13.9904 18.5421 13.9679 18.4025 14.0894C18.2607 14.2068 18.2391 14.4235 18.3559 14.5688C18.3871 14.6075 18.5529 15.1784 19.0699 15.7102C18.8849 15.8642 18.6805 16.0097 18.4545 16.1412C18.2951 16.2338 18.2389 16.4388 18.3279 16.6045C18.3889 16.7167 18.4967 16.7801 18.6139 16.7801C18.6701 16.7801 18.7217 16.7656 18.7685 16.7314C19.0783 16.552 19.3523 16.3506 19.5951 16.137C20.0291 16.4122 20.6079 16.6172 21.3769 16.6326C21.4357 16.6332 21.4877 16.6207 21.5373 16.5932C21.6365 16.5381 21.7071 16.4272 21.7081 16.3048C21.7117 16.1148 21.5693 15.9616 21.3869 15.958C20.8475 15.9468 20.4203 15.8244 20.0825 15.6483C20.8331 14.7917 21.1703 13.8667 21.3003 13.4145H21.7495C21.9323 13.4145 22.0777 13.2634 22.0777 13.0731C22.0777 12.8829 21.9323 12.7316 21.7495 12.7316L21.7499 12.7312Z" fill="white"/>
</g>
<defs>
<clipPath id="clip0_527_34">
<rect width="24" height="20" fill="white" transform="translate(0 2)"/>
</clipPath>
</defs>
</svg>
