<svg width="30" height="30" viewBox="0 0 30 30" fill="none" xmlns="http://www.w3.org/2000/svg">
<circle cx="15" cy="15" r="15" fill="#31B847"/>
<path d="M19.5 14.5H14.5C12.9 14.5 12.5 15.5 12.5 16V19.5C12.5 21.1 13.8333 21.5 14.5 21.5H17.4333C17.4766 21.5 17.5187 21.514 17.5533 21.54L19.18 22.76C19.3118 22.8589 19.5 22.7648 19.5 22.6V21.7C19.5 21.5895 19.5904 21.5009 19.7006 21.4927C21.1338 21.3861 21.5 20.1379 21.5 19.5V16.5C21.5 14.9 20.1667 14.5 19.5 14.5Z" fill="white"/>
<path fill-rule="evenodd" clip-rule="evenodd" d="M17.3333 8H10.6667C9.77778 8 8 8.56471 8 10.8235V15.0588C8 15.9541 8.48261 17.7011 10.366 17.8693C10.531 17.884 10.6667 18.0167 10.6667 18.1824V19.3787C10.6667 19.4731 10.7076 19.5517 10.7692 19.6049V15C10.7692 13.8954 11.6647 13 12.7692 13H20V10.1176C20 9.41176 19.4667 8 17.3333 8Z" fill="white"/>
<path d="M10.366 17.8693L10.3393 18.1681H10.3393L10.366 17.8693ZM10.7692 19.6049L10.5732 19.832L11.0692 20.2601V19.6049H10.7692ZM20 13V13.3H20.3V13H20ZM10.6667 8.3H17.3333V7.7H10.6667V8.3ZM8.3 10.8235C8.3 9.78486 8.703 9.16836 9.18188 8.80328C9.67497 8.42738 10.2738 8.3 10.6667 8.3V7.7C10.1706 7.7 9.43614 7.85497 8.81812 8.32613C8.18589 8.80811 7.7 9.60337 7.7 10.8235H8.3ZM8.3 15.0588V10.8235H7.7V15.0588H8.3ZM10.3927 17.5705C9.55563 17.4957 9.04356 17.0776 8.73112 16.5777C8.41096 16.0655 8.3 15.463 8.3 15.0588H7.7C7.7 15.5499 7.83034 16.2686 8.22234 16.8957C8.62205 17.5352 9.29299 18.0746 10.3393 18.1681L10.3927 17.5705ZM10.9667 18.1824C10.9667 17.8433 10.6939 17.5973 10.3927 17.5705L10.3393 18.1681C10.35 18.169 10.3588 18.1739 10.3638 18.179C10.3661 18.1813 10.3668 18.1829 10.3668 18.183C10.3668 18.1831 10.3668 18.1829 10.3667 18.1826C10.3667 18.1823 10.3667 18.1822 10.3667 18.1824H10.9667ZM10.9667 19.3787V18.1824H10.3667V19.3787H10.9667ZM10.9652 19.3778C10.965 19.3775 10.9656 19.378 10.9663 19.3795C10.9671 19.3813 10.9667 19.3817 10.9667 19.3787H10.3667C10.3667 19.5649 10.4492 19.7249 10.5732 19.832L10.9652 19.3778ZM11.0692 19.6049V15H10.4692V19.6049H11.0692ZM11.0692 15C11.0692 14.0611 11.8303 13.3 12.7692 13.3V12.7C11.499 12.7 10.4692 13.7297 10.4692 15H11.0692ZM12.7692 13.3H20V12.7H12.7692V13.3ZM19.7 10.1176V13H20.3V10.1176H19.7ZM17.3333 8.3C18.3281 8.3 18.9093 8.62606 19.2444 8.99562C19.588 9.37456 19.7 9.8291 19.7 10.1176H20.3C20.3 9.70031 20.1453 9.09602 19.6889 8.59261C19.224 8.07982 18.4719 7.7 17.3333 7.7V8.3Z" fill="white"/>
</svg>
