<svg width="20" height="25" viewBox="0 0 20 25" fill="none" xmlns="http://www.w3.org/2000/svg">
<g id="Layer 4">
<path id="Vector" d="M9.24242 0.0196131C4.22565 0.335688 0.186499 4.49245 0.00640943 9.51657C-0.129576 13.3462 1.91021 16.7128 4.99011 18.4696C6.21398 19.1679 7.30187 20.1051 8.08103 21.2812C8.64703 22.1302 9.13216 23.1887 9.29755 24.4419C9.3343 24.7323 9.5879 24.9455 9.87825 24.9455C10.1686 24.9455 10.4222 24.7323 10.4589 24.4419C10.6243 23.1887 11.1095 22.1302 11.6718 21.2812C12.4583 20.0941 13.5609 19.1605 14.7958 18.4512C17.7581 16.7459 19.7574 13.5447 19.7574 9.88043C19.7574 4.21312 14.9832 -0.33689 9.24242 0.0196131ZM10.6942 17.8191C5.64799 18.3189 1.43977 14.1144 1.93961 9.06451C2.31082 5.33041 5.32823 2.313 9.06233 1.94179C14.1085 1.44195 18.3167 5.64649 17.8169 10.6963C17.4457 14.4304 14.4283 17.4515 10.6942 17.8191Z" fill="white"/>
<path id="Vector_2" d="M9.87799 17.8595C14.2847 17.8595 17.8571 14.2871 17.8571 9.88043C17.8571 5.47372 14.2847 1.90137 9.87799 1.90137C5.47127 1.90137 1.89893 5.47372 1.89893 9.88043C1.89893 14.2871 5.47127 17.8595 9.87799 17.8595Z" fill="white"/>
<path id="Vector_3" d="M9.87799 17.8595C14.2847 17.8595 17.8571 14.2871 17.8571 9.88043C17.8571 5.47372 14.2847 1.90137 9.87799 1.90137C5.47127 1.90137 1.89893 5.47372 1.89893 9.88043C1.89893 14.2871 5.47127 17.8595 9.87799 17.8595Z" fill="#CC0031"/>
<g id="Group">
<path id="Vector_4" d="M11.4222 9.66759L11.1907 15.4268C11.1833 15.5995 11.2973 15.7465 11.4406 15.7465H12.1977C12.3374 15.7465 12.4513 15.6032 12.4476 15.4305L12.1646 4.30901C12.1609 4.10687 11.9956 3.96354 11.8375 4.02602C11.481 4.16568 10.9444 4.52953 10.8672 5.44101C10.7974 6.26427 10.6798 7.69764 10.632 8.42167C10.5989 8.91416 11.0363 9.23391 11.2789 9.36989C11.3708 9.42135 11.4296 9.53896 11.4222 9.66392V9.66759Z" fill="#F1F2F2"/>
<path id="Vector_5" d="M9.48114 7.46599V4.22438C9.48114 4.10677 9.38558 4.01489 9.27165 4.01489H9.24592C9.12831 4.01489 9.03643 4.11045 9.03643 4.22438V6.68316C9.03643 6.80077 8.94087 6.89265 8.82694 6.89265C8.70933 6.89265 8.61745 6.79709 8.61745 6.68316V4.22438C8.61745 4.10677 8.52189 4.01489 8.40795 4.01489H8.39325C8.27564 4.01489 8.18376 4.11045 8.18376 4.22438V6.68316C8.18376 6.80077 8.0882 6.89265 7.97427 6.89265C7.85666 6.89265 7.76478 6.79709 7.76478 6.68316V4.22438C7.76478 4.10677 7.66922 4.01489 7.55529 4.01489H7.52956C7.41195 4.01489 7.32007 4.11045 7.32007 4.22438V7.46599C7.32007 7.46599 7.32007 7.4807 7.32007 7.48805C7.33109 7.57258 7.40828 8.06139 7.99265 8.43995C8.05513 8.48037 8.09556 8.55388 8.09188 8.63106L7.69127 15.3826C7.69127 15.3826 7.69127 15.4046 7.68392 15.4193C7.66922 15.4855 7.65085 15.7501 8.40428 15.7501C9.15772 15.7501 9.13934 15.4855 9.12464 15.4193C9.12464 15.4083 9.12096 15.3973 9.11729 15.3826L8.71668 8.63106C8.713 8.55388 8.74976 8.48405 8.81591 8.43995C9.40028 8.06139 9.47747 7.57258 9.48849 7.48805C9.48849 7.4807 9.48849 7.47334 9.48849 7.46599H9.48114Z" fill="#F1F2F2"/>
</g>
</g>
</svg>
