<svg width="26" height="26" viewBox="0 0 26 26" fill="none" xmlns="http://www.w3.org/2000/svg">
<path d="M10 11.5L13.5 15L22.5 6" stroke="#7D7D7D" stroke-width="1.7"/>
<path fill-rule="evenodd" clip-rule="evenodd" d="M17.9376 4.30205C16.481 3.47334 14.7958 3 13 3C7.47715 3 3 7.47715 3 13C3 18.5228 7.47715 23 13 23C18.2765 23 22.5986 18.9133 22.9736 13.7324L21.2584 13.836C20.8392 18.0274 17.3018 21.3 13 21.3C8.41604 21.3 4.7 17.584 4.7 13C4.7 8.41604 8.41604 4.7 13 4.7C14.3107 4.7 15.5504 5.00379 16.6525 5.5448L17.9376 4.30205Z" fill="#7D7D7D"/>
</svg>
