<svg width="29" height="22" viewBox="0 0 29 22" fill="none" xmlns="http://www.w3.org/2000/svg">
<g clip-path="url(#clip0_655_2569)">
<path fill-rule="evenodd" clip-rule="evenodd" d="M14.4995 0.5C14.7095 0.5 14.9152 0.538623 15.1114 0.613877C15.7008 0.840039 16.0684 1.3278 16.443 1.80879C16.5674 1.96846 16.8524 2.34632 17.0538 2.40605C17.2551 2.46578 17.6977 2.30332 17.888 2.23683C18.67 1.96328 19.4604 1.70049 20.2247 2.19582C20.4016 2.31049 20.554 2.45503 20.6787 2.62544C21.0534 3.13709 21.1011 3.74789 21.1584 4.3567C21.1773 4.55897 21.2148 5.03239 21.3522 5.19206C21.4896 5.35213 21.9488 5.45645 22.1446 5.50423C22.9503 5.70093 23.7537 5.90758 24.1323 6.74374C24.2196 6.93645 24.2705 7.14112 24.2839 7.35254C24.3242 7.97568 24.0336 8.53432 23.7593 9.07066C23.6669 9.25103 23.4446 9.66951 23.4742 9.87935C23.5042 10.0888 23.8343 10.4272 23.9732 10.5742C24.5453 11.179 25.1106 11.791 24.9807 12.7008C24.9507 12.9106 24.884 13.1105 24.7822 13.2957C24.4766 13.8519 23.9452 14.1493 23.4201 14.4547C23.2456 14.5563 22.8343 14.7872 22.747 14.9795C22.6598 15.1719 22.7561 15.6369 22.7944 15.8364C22.9515 16.657 23.0992 17.4801 22.5023 18.1749C22.3649 18.3349 22.201 18.4667 22.0163 18.5671C21.4612 18.8681 20.8544 18.8287 20.2488 18.7996C20.0475 18.7896 19.5777 18.7598 19.4012 18.8741C19.2247 18.9887 19.0565 19.4319 18.9819 19.6206C18.6744 20.3967 18.357 21.1695 17.4825 21.4287C17.2812 21.4885 17.0727 21.51 16.8635 21.4936C16.235 21.4443 15.7458 21.0803 15.252 20.7256C15.0877 20.6077 14.7087 20.3262 14.4991 20.3262C14.2895 20.3262 13.9101 20.6077 13.7462 20.7256C13.0755 21.2077 12.3811 21.6852 11.5157 21.4291C11.3143 21.3694 11.1276 21.2742 10.9602 21.146C10.458 20.7618 10.2413 20.1888 10.0163 19.621C9.94165 19.4323 9.77347 18.9887 9.597 18.8745C9.42053 18.7602 8.95073 18.79 8.74939 18.8C7.92152 18.8402 7.09286 18.8701 6.49594 18.1757C6.35855 18.0156 6.25235 17.8336 6.1805 17.6345C5.96534 17.0409 6.0893 16.4349 6.20379 15.8372C6.24209 15.6377 6.33841 15.173 6.25117 14.9803C6.16392 14.7876 5.75255 14.5571 5.57805 14.4555C4.85993 14.0379 4.14694 13.6114 4.01706 12.7016C3.98705 12.4918 3.99574 12.2811 4.04153 12.0745C4.17931 11.4541 4.60608 11.0177 5.02456 10.575C5.16352 10.428 5.49396 10.0896 5.52357 9.88014C5.55357 9.6707 5.33091 9.25222 5.23853 9.07145C4.86111 8.33324 4.4912 7.57194 4.86585 6.74453C4.9531 6.55182 5.07312 6.37901 5.22274 6.2301C5.67122 5.78335 6.26419 5.64877 6.85361 5.50502C7.04943 5.45724 7.50857 5.35253 7.64595 5.19286C7.78334 5.03279 7.82085 4.55937 7.8398 4.35749C7.91836 3.52531 8.00679 2.69393 8.77347 2.19661C8.95034 2.08194 9.14378 2.0023 9.34947 1.9585C9.96534 1.82751 10.5378 2.03774 11.1102 2.23762C11.3005 2.30412 11.7431 2.46657 11.9444 2.40685C12.1458 2.34712 12.4308 1.96926 12.5552 1.80959C13.068 1.15141 13.5879 0.5 14.4995 0.5Z" fill="#505050"/>
<path fill-rule="evenodd" clip-rule="evenodd" d="M14.4995 1.40063C14.398 1.40063 14.2997 1.41935 14.2046 1.45558C14.0147 1.52845 13.852 1.66701 13.7123 1.81274C13.5485 1.98436 13.4036 2.17787 13.2575 2.36501C12.9772 2.72456 12.6491 3.13587 12.1959 3.27005C11.7431 3.40424 11.2464 3.2374 10.8181 3.08769C10.595 3.00965 10.3696 2.92603 10.1395 2.87108C9.94364 2.8245 9.73282 2.79663 9.53384 2.83883C9.43436 2.85994 9.34198 2.89776 9.25631 2.95311C9.17064 3.00845 9.098 3.07774 9.03799 3.16016C8.91718 3.325 8.85481 3.53006 8.81572 3.72915C8.76993 3.96287 8.75137 4.20456 8.72927 4.44187C8.68623 4.89738 8.63057 5.42217 8.32145 5.78172C8.01233 6.14167 7.50503 6.27187 7.06444 6.37978C6.83507 6.43592 6.60017 6.48848 6.37751 6.56772C6.18801 6.63501 5.99575 6.72659 5.85086 6.87072C5.77861 6.94279 5.72097 7.02522 5.67873 7.11839C5.63649 7.21156 5.61241 7.30951 5.6057 7.41144C5.59267 7.6161 5.64991 7.82275 5.72334 8.01149C5.8098 8.23327 5.92429 8.44629 6.03246 8.65812C6.24052 9.06465 6.47463 9.53649 6.40751 10.0079C6.3404 10.479 5.98351 10.8656 5.67044 11.1965C5.50739 11.3689 5.33803 11.5409 5.19314 11.7292C5.06957 11.8893 4.95706 12.0713 4.91245 12.2715C4.89034 12.3715 4.886 12.4722 4.9006 12.5737C4.91521 12.6753 4.94719 12.7704 4.99654 12.86C5.09523 13.0396 5.25394 13.1818 5.41738 13.3004C5.60925 13.4398 5.81967 13.5568 6.02417 13.6759C6.41699 13.9044 6.86705 14.1736 7.06326 14.6068C7.25947 15.04 7.1663 15.5592 7.08023 16.0084C7.03562 16.2421 6.98548 16.4794 6.96416 16.7167C6.946 16.9186 6.94877 17.1332 7.01865 17.3259C7.05339 17.4223 7.10392 17.5091 7.17064 17.5867C7.23736 17.6644 7.31553 17.7269 7.40475 17.7755C7.58398 17.8726 7.79401 17.9057 7.99456 17.9164C8.23065 17.9292 8.47028 17.9128 8.70637 17.9013C9.15919 17.8794 9.68229 17.8603 10.0794 18.1179C10.4766 18.3751 10.6768 18.8629 10.8449 19.2877C10.9326 19.5087 11.0175 19.7357 11.1268 19.9467C11.22 20.1267 11.3372 20.3055 11.4991 20.4293C11.58 20.4914 11.6689 20.5368 11.7664 20.5659C11.8639 20.5949 11.9634 20.6049 12.0644 20.5969C12.2674 20.581 12.4616 20.4942 12.6365 20.3938C12.8418 20.276 13.0348 20.1315 13.2271 19.9933C13.5962 19.7277 14.0261 19.4267 14.4983 19.4267C14.9705 19.4267 15.4 19.7277 15.7695 19.9933C15.9618 20.1315 16.1548 20.276 16.3601 20.3938C16.5346 20.4942 16.7293 20.581 16.9322 20.5969C17.0336 20.6049 17.1327 20.5949 17.2303 20.5659C17.3278 20.5368 17.4166 20.4914 17.4975 20.4293C17.6594 20.3055 17.7766 20.1263 17.8698 19.9467C17.9792 19.7353 18.064 19.5087 18.1521 19.2877C18.3203 18.8629 18.5204 18.3755 18.9176 18.1179C19.3147 17.8607 19.8378 17.8794 20.2907 17.9013C20.5263 17.9128 20.7664 17.9288 21.0025 17.9164C21.2034 17.9057 21.4134 17.8726 21.5927 17.7755C21.6823 17.7269 21.7605 17.6644 21.8268 17.5867C21.8935 17.5091 21.9436 17.4223 21.9788 17.3259C22.0487 17.1332 22.0514 16.919 22.0333 16.7167C22.0119 16.4794 21.9622 16.2421 21.9172 16.0084C21.8311 15.5592 21.738 15.04 21.9342 14.6068C22.1304 14.1736 22.5804 13.9044 22.9732 13.6759C23.1777 13.5568 23.3882 13.4398 23.58 13.3004C23.7431 13.1818 23.9022 13.0392 24.0009 12.86C24.0502 12.7704 24.0822 12.6753 24.0968 12.5737C24.1114 12.4722 24.1071 12.3715 24.085 12.2715C24.0404 12.0713 23.9278 11.8897 23.8043 11.7292C23.6594 11.5413 23.49 11.3689 23.327 11.1965C23.0139 10.8656 22.657 10.4794 22.5899 10.0079C22.5228 9.53649 22.7573 9.06465 22.965 8.65812C23.0731 8.44629 23.1876 8.23327 23.2741 8.01149C23.3479 7.82275 23.4051 7.6161 23.3921 7.41144C23.3854 7.30911 23.3613 7.21156 23.3191 7.11839C23.2768 7.02522 23.2192 6.94279 23.147 6.87072C23.0021 6.72659 22.8098 6.63501 22.6203 6.56772C22.3972 6.48848 22.1627 6.43592 21.9334 6.37978C21.4928 6.27227 20.9855 6.14167 20.6764 5.78172C20.3672 5.42178 20.3116 4.89698 20.2685 4.44187C20.246 4.20496 20.2279 3.96327 20.1821 3.72915C20.143 3.53006 20.0802 3.3254 19.9594 3.16016C19.899 3.07774 19.8264 3.00845 19.7411 2.95311C19.6554 2.89776 19.5631 2.85994 19.4636 2.83883C19.2646 2.79663 19.0538 2.8245 18.858 2.87108C18.6282 2.92603 18.4024 3.00965 18.1793 3.08769C17.751 3.2374 17.2543 3.40424 16.8015 3.27005C16.3487 3.13587 16.0202 2.72496 15.7399 2.36501C15.5939 2.17787 15.449 1.98436 15.2851 1.81274C15.1454 1.66661 14.9831 1.52845 14.7932 1.45558C14.6981 1.41895 14.6002 1.40063 14.4983 1.40063" fill="#F9F9F9"/>
<path fill-rule="evenodd" clip-rule="evenodd" d="M16.818 14.0913C16.3269 14.0913 15.9779 13.596 15.9779 12.9688V12.9469C15.9779 12.3529 16.2834 11.8464 16.7963 11.8464C17.3091 11.8464 17.6364 12.3525 17.6364 12.9688V12.9907C17.6364 13.5848 17.3308 14.0913 16.818 14.0913ZM12.2029 10.1522C11.7118 10.1522 11.3628 9.65685 11.3628 9.02973V9.00783C11.3628 8.41375 11.6683 7.90728 12.1812 7.90728C12.694 7.90728 13.0213 8.41336 13.0213 9.02973V9.05163C13.0213 9.6457 12.7157 10.1522 12.2029 10.1522ZM16.7959 14.9386C17.876 14.9386 18.6072 14.0363 18.6072 12.9688V12.9469C18.6072 11.8906 17.8871 10.9991 16.818 10.9991C15.7489 10.9991 15.0067 11.8906 15.0067 12.9688V12.9907C15.0067 14.0471 15.7268 14.9386 16.7959 14.9386ZM11.5483 14.4763C11.5483 14.7184 11.7339 14.9056 11.9739 14.9056C12.1267 14.9056 12.2684 14.8395 12.3557 14.7077L17.3636 7.80813C17.4181 7.73129 17.4619 7.63214 17.4619 7.52185C17.4619 7.27976 17.2657 7.09262 17.0256 7.09262C16.8728 7.09262 16.7311 7.15871 16.6545 7.29051L11.6466 14.19C11.5922 14.2669 11.5483 14.366 11.5483 14.4763ZM12.1808 10.9991C13.272 10.9991 13.9921 10.0968 13.9921 9.02933V9.00743C13.9921 7.95108 13.283 7.05957 12.2029 7.05957C11.1228 7.05957 10.3916 7.95108 10.3916 9.02933V9.05123C10.3916 10.1076 11.1117 10.9991 12.1808 10.9991Z" fill="#505050"/>
</g>
<defs>
<clipPath id="clip0_655_2569">
<rect width="21" height="21" fill="white" transform="translate(4 0.5)"/>
</clipPath>
</defs>
</svg>
