<svg width="24" height="24" viewBox="0 0 24 24" fill="none" xmlns="http://www.w3.org/2000/svg">
<path d="M23.9982 11.7505C24.0244 13.1818 23.7659 14.6042 23.2374 15.9365C22.7089 17.2688 21.9208 18.4849 20.918 19.5154C18.8927 21.5965 16.1161 22.7953 13.1989 22.8478C11.7545 22.8738 10.319 22.6177 8.97448 22.094C7.62994 21.5703 6.40267 20.7893 5.36272 19.7956C3.26246 17.7888 2.05275 15.0374 1.99971 12.1468L1.69973 12.4441C1.60943 12.5379 1.50083 12.6127 1.38051 12.6638C1.2602 12.7148 1.13067 12.7412 0.999781 12.7412C0.868891 12.7412 0.739364 12.7148 0.619048 12.6638C0.498732 12.6127 0.390132 12.5379 0.299829 12.4441C0.20508 12.3546 0.129651 12.247 0.0781124 12.1277C0.0265742 12.0085 0 11.8802 0 11.7505C0 11.6208 0.0265742 11.4924 0.0781124 11.3732C0.129651 11.254 0.20508 11.1464 0.299829 11.0569L2.29969 9.07522C2.38999 8.98133 2.49859 8.90659 2.61891 8.85552C2.73922 8.80445 2.86875 8.77811 2.99964 8.77811C3.13053 8.77811 3.26006 8.80445 3.38037 8.85552C3.50069 8.90659 3.60929 8.98133 3.69959 9.07522L5.69945 11.0569C5.7942 11.1464 5.86963 11.254 5.92117 11.3732C5.97271 11.4924 5.99928 11.6208 5.99928 11.7505C5.99928 11.8802 5.97271 12.0085 5.92117 12.1277C5.86963 12.247 5.7942 12.3546 5.69945 12.4441C5.61146 12.5409 5.5033 12.6176 5.38245 12.6689C5.2616 12.7202 5.13094 12.7449 4.9995 12.7413C4.86807 12.7449 4.73741 12.7202 4.61656 12.6689C4.4957 12.6176 4.38754 12.5409 4.29955 12.4441L3.99957 12.1468C4.07791 13.8915 4.67154 15.5751 5.70681 16.9885C6.74208 18.4019 8.1734 19.483 9.82316 20.0976C11.4729 20.7122 13.2685 20.8332 14.987 20.4456C16.7056 20.0581 18.2715 19.179 19.4904 17.9176C20.7093 16.6561 21.5275 15.0677 21.8436 13.3495C22.1596 11.6314 21.9595 9.8591 21.2682 8.2526C20.5769 6.6461 19.4247 5.27612 17.9547 4.31266C16.4846 3.34921 14.7614 2.83469 12.9989 2.83296C12.8655 2.84091 12.732 2.82073 12.607 2.77374C12.4821 2.72676 12.3686 2.65405 12.2741 2.5604C12.1796 2.46676 12.1062 2.35432 12.0588 2.23051C12.0114 2.10669 11.991 1.97432 11.999 1.84213C11.991 1.70994 12.0114 1.57757 12.0588 1.45375C12.1062 1.32994 12.1796 1.2175 12.2741 1.12386C12.3686 1.03021 12.4821 0.957502 12.607 0.910519C12.732 0.863535 12.8655 0.84335 12.9989 0.851297C14.4446 0.847111 15.8768 1.12617 17.2132 1.67242C18.5496 2.21867 19.7638 3.02134 20.786 4.03426C21.8082 5.04717 22.6182 6.25035 23.1695 7.57459C23.7208 8.89883 24.0024 10.318 23.9982 11.7505ZM7.99929 16.7046V11.7505C7.99127 11.6183 8.01164 11.4859 8.05906 11.3621C8.10647 11.2383 8.17986 11.1258 8.27436 11.0322C8.36886 10.9386 8.48233 10.8658 8.60728 10.8189C8.73223 10.7719 8.86582 10.7517 8.99922 10.7596V9.7688C8.99922 8.71766 9.42062 7.70957 10.1707 6.9663C10.9208 6.22303 11.9382 5.80547 12.9989 5.80547C14.0597 5.80547 15.0771 6.22303 15.8272 6.9663C16.5773 7.70957 16.9987 8.71766 16.9987 9.7688V10.7596C17.1321 10.7517 17.2657 10.7719 17.3906 10.8189C17.5156 10.8658 17.629 10.9386 17.7235 11.0322C17.818 11.1258 17.8914 11.2383 17.9388 11.3621C17.9862 11.4859 18.0066 11.6183 17.9986 11.7505V16.7046C18.0066 16.8368 17.9862 16.9692 17.9388 17.093C17.8914 17.2168 17.818 17.3293 17.7235 17.4229C17.629 17.5166 17.5156 17.5893 17.3906 17.6362C17.2657 17.6832 17.1321 17.7034 16.9987 17.6955H8.99922C8.86582 17.7034 8.73223 17.6832 8.60728 17.6362C8.48233 17.5893 8.36886 17.5166 8.27436 17.4229C8.17986 17.3293 8.10647 17.2168 8.05906 17.093C8.01164 16.9692 7.99127 16.8368 7.99929 16.7046ZM15.9987 12.7413H9.99915V15.7138H15.9987V12.7413ZM10.9991 10.7596H14.9988V9.7688C14.9988 9.24323 14.7881 8.73918 14.4131 8.36755C14.038 7.99592 13.5293 7.78713 12.9989 7.78713C12.4685 7.78713 11.9599 7.99592 11.5848 8.36755C11.2098 8.73918 10.9991 9.24323 10.9991 9.7688V10.7596Z" fill="white"/>
</svg>
