<svg width="24" height="24" viewBox="0 0 24 24" fill="none" xmlns="http://www.w3.org/2000/svg">
<path d="M8.40033 11.9998C11.0517 11.9998 13.2005 9.76153 13.2005 6.99988C13.2005 4.23823 11.0517 2 8.40033 2C5.74897 2 3.60014 4.23823 3.60014 6.99988C3.60014 9.76153 5.74897 11.9998 8.40033 11.9998ZM11.7605 13.2497H11.1342C10.3017 13.6482 9.37537 13.8747 8.40033 13.8747C7.42529 13.8747 6.50275 13.6482 5.66647 13.2497H5.0402C2.25759 13.2497 0 15.6012 0 18.4996V20.1246C0 21.1597 0.806282 21.9995 1.80007 21.9995H12.1092C12.0192 21.7339 11.9817 21.4527 12.0117 21.1675L12.2667 18.7887L12.3117 18.3551L12.608 18.0465L15.5069 15.027C14.5881 13.945 13.2568 13.2497 11.7605 13.2497ZM13.4593 18.9254L13.2043 21.3081C13.163 21.7066 13.4855 22.0425 13.8643 21.9956L16.1481 21.73L21.3196 16.3434L18.6307 13.5427L13.4593 18.9254ZM23.7384 12.5037L22.3171 11.0232C21.9684 10.66 21.3983 10.66 21.0496 11.0232L19.632 12.4998L19.4783 12.6599L22.1709 15.4606L23.7384 13.8278C24.0872 13.4607 24.0872 12.8708 23.7384 12.5037Z" fill="white"/>
</svg>
