<svg width="41" height="41" viewBox="0 0 41 41" fill="none" xmlns="http://www.w3.org/2000/svg">
<circle cx="20.7854" cy="20.2029" r="20" fill="#2AA1A0"/>
<path d="M34.8876 9.46178C34.3918 9.60664 33.999 9.91865 33.6396 10.4563C33.5978 10.5176 33.5644 10.5817 33.5644 10.5984C33.5644 10.6151 33.556 10.6346 33.5449 10.6402C33.4725 10.6708 33.1855 11.4062 33.0602 11.8882C32.9376 12.3506 32.8067 13.2003 32.7537 13.88C32.7064 14.5207 32.6897 16.0223 32.7259 16.5822C32.7426 16.8413 32.7705 17.287 32.7872 17.5711C32.8039 17.8525 32.8206 18.1227 32.8262 18.1701C32.8345 18.2147 32.8512 18.4347 32.868 18.6576C32.8819 18.8804 32.907 19.1423 32.9237 19.2426C32.9376 19.3429 32.9571 19.5072 32.9682 19.6103L32.985 19.7998H33.556H34.1271L34.1104 20.0978C34.0993 20.265 34.0798 20.5185 34.0631 20.6633C34.0491 20.8082 34.0185 21.1035 33.9962 21.318C33.9544 21.6996 33.8792 22.3543 33.8012 22.9616C33.5644 24.8253 33.4725 25.6415 33.414 26.4159C33.3889 26.7224 33.3583 27.1124 33.3415 27.2823C33.3053 27.6751 33.3053 29.0206 33.3415 29.2658C33.3555 29.3689 33.3805 29.5583 33.3945 29.6892C33.4112 29.8201 33.4307 29.9566 33.439 29.9956C33.4474 30.0346 33.4669 30.1322 33.4836 30.2129C33.5198 30.4079 33.6842 30.8063 33.7873 30.9595C33.8987 31.1211 34.1522 31.3245 34.2971 31.3662C34.4642 31.4164 34.8069 31.408 34.9406 31.3495C35.1551 31.2548 35.3417 31.0152 35.5451 30.5667C35.637 30.3717 35.7735 29.6892 35.8264 29.1738C35.9072 28.3883 35.8515 25.7529 35.7373 24.8838C35.7234 24.7751 35.7067 24.5829 35.6955 24.452C35.6872 24.321 35.6677 24.126 35.6537 24.0202C35.637 23.9115 35.6064 23.6302 35.5841 23.3934C35.5451 22.995 35.4949 22.5521 35.3919 21.708C35.3696 21.5241 35.3334 21.1982 35.3083 20.9837C35.2832 20.7692 35.2498 20.5129 35.2359 20.4126C35.1105 19.6326 35.1133 19.6883 35.1049 14.4149C35.0994 11.6625 35.0854 9.40885 35.0743 9.41164C35.0631 9.41164 34.9796 9.43392 34.8876 9.46178Z" fill="#505050"/>
<path d="M9.31406 9.81581C9.30571 9.8771 9.28621 9.98018 9.27228 10.0498C9.23606 10.2198 9.19149 11.7575 9.16642 13.5125L9.14692 14.9583L9.06892 15.0252C8.9547 15.1227 8.76527 15.1199 8.6622 15.0141L8.58419 14.9388L8.56748 13.9917C8.55634 13.4707 8.54798 12.8439 8.54798 12.5988C8.54798 12.3536 8.53684 11.9219 8.52012 11.6377C8.50341 11.3536 8.47834 10.8828 8.46441 10.593C8.43376 10.0637 8.38362 9.7016 8.34462 9.76289C8.2694 9.88267 8.22204 11.0081 8.19976 13.1866L8.17747 14.9472L8.11061 15.0196C8.02147 15.1171 7.8599 15.1199 7.74846 15.0252L7.67046 14.9583L7.65375 12.8857C7.63982 11.2672 7.62589 10.7073 7.58689 10.3145C7.53953 9.78517 7.50889 9.65703 7.47546 9.83532C7.46432 9.89103 7.46153 9.98018 7.4671 10.0331C7.47267 10.086 7.46989 10.125 7.45875 10.1167C7.41974 10.0944 7.40582 10.2058 7.37517 10.802C7.33339 11.6461 7.32224 12.1085 7.29996 13.624L7.28046 14.9583L7.20245 15.0252C7.08545 15.1255 6.89881 15.1199 6.79016 15.0113L6.70937 14.9305V14.3343C6.70937 13.4847 6.65645 11.1251 6.6258 10.5652C6.59794 10.0749 6.55337 9.74339 6.51437 9.74339C6.44751 9.74339 6.29987 10.7184 6.19401 11.8466C6.17172 12.0918 6.14108 12.3926 6.12436 12.5152C6.05472 13.0473 6.01015 13.376 5.95722 13.741C5.92936 13.9555 5.89036 14.2563 5.87365 14.4095C5.85693 14.5628 5.83186 14.78 5.81793 14.8915C5.75386 15.3595 5.78729 16.0114 5.89315 16.4989C5.98786 16.9307 6.22187 17.3931 6.50044 17.6884C6.62302 17.8221 6.96566 18.0895 7.13838 18.1926C7.30553 18.2901 7.36682 18.421 7.40582 18.772C7.44203 19.0841 7.41974 19.9449 7.36124 20.4268C7.33896 20.6107 7.30274 20.931 7.28046 21.1372C7.1941 21.9311 7.1551 22.271 7.12724 22.4325C7.11052 22.5245 7.08545 22.7055 7.07152 22.8365C7.0576 22.9674 7.01859 23.2738 6.98795 23.519C6.95731 23.7641 6.91552 24.1402 6.89324 24.3547C6.86816 24.5692 6.84309 24.7809 6.83473 24.8283C6.81245 24.9342 6.75116 25.561 6.67873 26.4162C6.6063 27.2714 6.57566 28.7618 6.6258 29.2159C6.70937 29.9959 6.77345 30.2884 6.95174 30.6895C7.18853 31.2244 7.59246 31.4779 8.08276 31.3971C8.42541 31.3386 8.6427 31.1771 8.82656 30.8455C9.04106 30.4555 9.13578 30.0906 9.21935 29.3357C9.26949 28.8677 9.27506 28.6782 9.26392 28.0459C9.24999 27.3188 9.1887 26.2797 9.13299 25.8172C9.11628 25.6863 9.08563 25.391 9.06056 25.1626C9.00763 24.6695 8.96027 24.2405 8.88506 23.6304C8.85441 23.3853 8.80984 23.0343 8.78755 22.8504C8.70398 22.1651 8.65941 21.8141 8.63155 21.6247C8.48391 20.6329 8.40033 19.1314 8.46441 18.6773C8.50898 18.3793 8.55634 18.3068 8.84048 18.1174C9.17199 17.8973 9.50071 17.5602 9.67064 17.2705C9.74307 17.1452 9.80157 17.0337 9.80157 17.0226C9.80157 17.0087 9.82107 16.9669 9.84057 16.9251C10.0161 16.5908 10.1192 15.6687 10.0551 15.0363C10.0105 14.6101 9.94086 14.0251 9.89629 13.6992C9.78764 12.947 9.74307 12.5849 9.70407 12.1809C9.68179 11.9358 9.65671 11.6962 9.64836 11.6516C9.64 11.6043 9.61493 11.387 9.59264 11.1641C9.51464 10.4426 9.40321 9.7796 9.34749 9.72667C9.33914 9.71553 9.32242 9.75731 9.31406 9.81581Z" fill="#505050"/>
<path d="M20.2787 9.77149C20.0558 9.78263 19.7856 9.80771 19.6797 9.82442C19.5711 9.84114 19.3621 9.87457 19.2173 9.89685C18.8496 9.95257 18.376 10.0584 17.9776 10.1754C17.6656 10.2646 17.2338 10.4122 17.1976 10.4401C17.1837 10.4512 17.1224 10.4763 17.0639 10.4958C17.0026 10.5153 16.9218 10.5459 16.8828 10.5682C16.841 10.5905 16.7965 10.6072 16.7853 10.6072C16.7658 10.6072 16.2114 10.8774 16.0554 10.9638C15.5178 11.2591 14.8966 11.6742 14.4676 12.028C14.4035 12.0809 14.3199 12.1505 14.2837 12.1784C13.6792 12.677 12.8713 13.5239 12.4618 14.0894C12.4005 14.173 12.3448 14.2482 12.3364 14.2566C12.303 14.2872 12.0272 14.7051 11.8573 14.9809C11.6929 15.2483 11.3837 15.85 11.2305 16.1927C11.0271 16.6495 10.8015 17.3293 10.6928 17.8224C10.6594 17.9672 10.6232 18.1232 10.6093 18.1706C10.5953 18.2151 10.5703 18.3544 10.5536 18.477C10.5368 18.5996 10.5118 18.7556 10.4978 18.8252C10.4672 18.9757 10.4226 19.5245 10.3976 20.0649C10.3808 20.4354 10.4226 21.3881 10.47 21.7781C10.5118 22.1069 10.5786 22.5414 10.6065 22.6557C10.6232 22.7169 10.6678 22.9036 10.7096 23.0735C10.8015 23.4635 10.9268 23.873 11.016 24.082C11.0383 24.1293 11.055 24.1767 11.055 24.185C11.055 24.2742 11.4561 25.1489 11.6957 25.5807C11.8016 25.7729 12.0049 26.1044 12.03 26.1239C12.0384 26.1323 12.0774 26.188 12.1136 26.2493C12.1888 26.3774 12.1944 26.3858 12.5426 26.8399C13.239 27.7564 14.2781 28.7342 15.2197 29.3554C15.3423 29.4362 15.476 29.5253 15.5178 29.5532C15.5596 29.5838 15.6014 29.6061 15.6125 29.6061C15.6209 29.6061 15.6626 29.6284 15.7016 29.6591C15.8911 29.79 16.6488 30.1689 16.9942 30.3026C17.075 30.336 17.1809 30.3778 17.2255 30.4001C17.2728 30.4196 17.348 30.4474 17.3926 30.4586C17.44 30.4697 17.4901 30.4864 17.504 30.4976C17.5709 30.5477 18.4066 30.7762 18.8328 30.8625C19.5906 31.0157 20.1004 31.0603 21.0559 31.0603C22.1897 31.0603 22.7803 30.9934 23.772 30.7539C24.1007 30.6731 24.7805 30.4614 24.942 30.3861C24.9727 30.3722 25.0785 30.3276 25.1788 30.2886C25.2791 30.2469 25.463 30.1661 25.5911 30.1048C25.7193 30.0463 25.8279 29.9961 25.8335 29.9961C25.839 29.9961 25.9505 29.9321 26.0842 29.8569C26.2179 29.7789 26.3321 29.7176 26.3377 29.7176C26.3878 29.7176 27.5411 28.932 27.6024 28.854C27.6108 28.8456 27.7111 28.7593 27.8281 28.6645C28.2961 28.2857 29.0092 27.5697 29.3853 27.1017C29.4383 27.0349 29.5135 26.9402 29.5525 26.8928C29.753 26.6504 30.1514 26.0599 30.3715 25.6838C30.4718 25.5083 30.8729 24.706 30.937 24.55C31.0039 24.3856 31.1738 23.9037 31.2379 23.7003C31.444 23.0289 31.522 22.6835 31.6 22.0567C31.6251 21.8812 31.6585 21.6472 31.678 21.5413C31.7254 21.2656 31.7226 19.5969 31.6752 19.2431C31.5499 18.3405 31.5276 18.2235 31.4329 17.8502C31.3911 17.6886 31.3465 17.5076 31.3326 17.4463C31.2964 17.2958 31.1989 16.9922 31.1515 16.8835C31.1292 16.8362 31.1125 16.7805 31.1125 16.7638C31.1125 16.7443 31.0373 16.5493 30.9454 16.3292C30.8005 15.981 30.6974 15.7692 30.3966 15.2037C30.3603 15.1341 30.2684 14.9837 30.1932 14.8694C30.118 14.7552 30.0372 14.6243 30.0093 14.5797C29.909 14.4042 29.3881 13.7217 29.1346 13.4348C28.5524 12.7801 28.0509 12.3177 27.2821 11.7327C27.1846 11.6575 26.594 11.2619 26.4463 11.1727C26.1455 10.9917 25.1482 10.4958 25.0813 10.4958C25.0702 10.4958 25.0228 10.4763 24.9755 10.454C24.7888 10.3704 24.3097 10.2116 23.8417 10.0863C23.4321 9.97485 22.7608 9.85785 22.198 9.79935C21.8415 9.76035 20.7327 9.74642 20.2787 9.77149ZM22.1702 12.677C22.3763 12.7049 22.5908 12.7355 22.6438 12.7495C22.6967 12.7634 22.8555 12.8024 22.9976 12.8358C23.5491 12.9612 24.1676 13.1952 24.7275 13.4933C26.2096 14.2761 27.6219 15.786 28.2348 17.2513C28.2738 17.3432 28.3267 17.4686 28.3518 17.5298C28.4772 17.8168 28.6053 18.2541 28.7028 18.7138C28.7223 18.8141 28.7474 18.9144 28.7557 18.9367C28.7641 18.9589 28.7975 19.2152 28.8282 19.505C28.8895 20.0816 28.9006 20.6332 28.856 21.0483C28.7725 21.8366 28.7725 21.8422 28.6276 22.4467C28.597 22.5777 28.5607 22.7086 28.5496 22.7392C28.5385 22.7699 28.4939 22.8952 28.4521 23.0178C28.4131 23.1404 28.3602 23.2797 28.3379 23.3298C28.3156 23.3772 28.2989 23.4217 28.2989 23.4301C28.2989 23.4385 28.2376 23.575 28.1624 23.7365C27.2069 25.7646 25.2011 27.4555 23.1313 27.9709C23.0394 27.996 22.8833 28.035 22.7831 28.06C22.3039 28.177 21.3985 28.2523 20.7495 28.2272C20.4959 28.2188 20.2703 28.2049 20.248 28.1993C20.2257 28.1938 20.053 28.1687 19.8636 28.1436C19.5154 28.099 19.4596 28.0879 18.9944 27.9709C18.3648 27.8121 17.6879 27.5196 17.0305 27.1268C16.1585 26.6059 15.1194 25.603 14.54 24.7255C14.2252 24.2463 13.9327 23.692 13.799 23.3242C13.7711 23.2462 13.7377 23.171 13.7293 23.1571C13.7182 23.1404 13.6736 23.015 13.6318 22.8785C13.59 22.7392 13.551 22.6083 13.5427 22.586C13.5343 22.5637 13.5232 22.5247 13.5204 22.5024C13.5176 22.4801 13.487 22.352 13.4535 22.2211C13.2307 21.3436 13.1972 20.0844 13.37 19.0481C13.4006 18.8559 13.4312 18.6748 13.434 18.6442C13.4396 18.6135 13.4507 18.5689 13.4591 18.5466C13.4675 18.5244 13.5037 18.4046 13.5343 18.282C13.629 17.9366 13.7154 17.6858 13.838 17.3906C14.0608 16.8613 14.5846 15.9782 14.8492 15.6801C14.8687 15.6578 14.9356 15.5742 14.9968 15.4962C15.1306 15.3263 15.2894 15.1536 15.5568 14.8862C16.4315 14.0114 17.3926 13.3986 18.4512 13.0364C19.0696 12.8275 19.2563 12.7829 19.9694 12.6826C20.3678 12.6269 20.521 12.6185 21.1116 12.6241C21.535 12.6297 21.9362 12.6492 22.1702 12.677Z" fill="#505050"/>
<path d="M20.2616 13.4761C19.7741 13.5374 19.3033 13.6432 18.813 13.8048C18.0357 14.0611 17.2139 14.518 16.5955 15.0361C16.3086 15.2757 15.796 15.805 15.5648 16.1003C15.1553 16.6212 14.7485 17.3371 14.5396 17.9054C14.5201 17.9584 14.4922 18.028 14.4811 18.0587C14.339 18.4013 14.1747 19.159 14.1747 19.4738C14.1747 19.563 14.1635 19.6298 14.1496 19.6215C14.08 19.5769 14.0772 20.9865 14.1468 21.4016C14.2582 22.0924 14.4254 22.6802 14.6566 23.2123C14.963 23.9116 15.4143 24.608 15.913 25.1456C16.3253 25.5914 16.8824 26.065 17.2446 26.2767C17.2696 26.2906 17.3811 26.3575 17.4869 26.4243C17.8073 26.6193 18.1806 26.8032 18.4926 26.9202C18.5929 26.9592 18.6987 27.001 18.7294 27.0149C18.8742 27.079 19.3618 27.2015 19.9356 27.3185C20.2671 27.3854 21.0054 27.416 21.5347 27.3826C22.128 27.3436 22.4818 27.2795 23.1755 27.0873C23.3565 27.0372 23.7493 26.884 24.0028 26.7642C24.1003 26.7168 24.1839 26.6806 24.1923 26.6806C24.209 26.6806 24.8441 26.3157 24.8859 26.285C24.9026 26.2711 25.0531 26.1625 25.2202 26.0399C25.5489 25.8031 25.6269 25.7362 25.9724 25.3992C26.407 24.9729 26.5741 24.7696 26.9418 24.2152C27.0895 23.9951 27.1563 23.8726 27.3402 23.5048C27.5714 23.0368 27.6828 22.7276 27.8639 22.0562C27.9141 21.8696 27.9865 21.4127 28.0255 21.0394C28.0589 20.7107 28.0394 19.7413 27.9921 19.4237C27.9336 19.0253 27.7608 18.2871 27.6884 18.1144C27.6745 18.0837 27.6243 17.9528 27.5742 17.8219C27.3736 17.2898 27.0226 16.6881 26.602 16.1504C26.1841 15.6211 25.4041 14.8968 24.8999 14.5681C24.7996 14.504 24.6937 14.4316 24.6631 14.4093C24.5461 14.3202 23.7354 13.9302 23.5348 13.8633C23.4819 13.8466 23.4123 13.8243 23.3816 13.8104C23.078 13.6822 22.4735 13.5485 21.8494 13.4761C21.6154 13.4482 20.4984 13.4482 20.2616 13.4761Z" fill="#505050"/>
</svg>
