<svg width="29" height="22" viewBox="0 0 29 22" fill="none" xmlns="http://www.w3.org/2000/svg">
<path fill-rule="evenodd" clip-rule="evenodd" d="M3.02125 17.0632L9.19806 10.6882L2.89094 4.17871C2.65637 4.68979 2.5 5.28156 2.5 5.90023V15.1534C2.5 15.8528 2.68244 16.5253 2.99519 17.0901L3.02125 17.0632Z" fill="#505050"/>
<path fill-rule="evenodd" clip-rule="evenodd" d="M3.51611 3.23734L12.7162 12.7326C13.1853 13.2168 13.8369 13.4858 14.4624 13.4858C15.0879 13.4858 15.7134 13.2437 16.1825 12.7595L25.4868 3.15665L25.5128 3.10285C24.8352 2.40348 23.897 2 22.8805 2H6.3048C5.21017 2 4.2198 2.48418 3.51611 3.26424V3.23734Z" fill="#505050"/>
<path fill-rule="evenodd" clip-rule="evenodd" d="M26.1647 3.99023L19.7012 10.6611L26.0604 17.2244C26.4253 16.6327 26.6599 15.9064 26.6599 15.1263V5.87315C26.6599 5.20068 26.4774 4.55511 26.1907 3.99023H26.1647Z" fill="#505050"/>
<path fill-rule="evenodd" clip-rule="evenodd" d="M25.3568 18.0583L18.9454 11.4412L16.9125 13.5393C16.2349 14.2387 15.3488 14.5615 14.4366 14.5615C13.5244 14.5615 12.6383 14.2118 11.9346 13.4855L9.92779 11.4143L3.64673 17.8969C4.32435 18.5694 5.2626 18.9998 6.25298 18.9998H22.8287C23.767 18.9998 24.6531 18.6232 25.3047 18.0314L25.3568 18.0583Z" fill="#505050"/>
</svg>
