<svg width="29" height="22" viewBox="0 0 29 22" fill="none" xmlns="http://www.w3.org/2000/svg">
<g clip-path="url(#clip0_642_2024)">
<path d="M26.9567 1.04544C26.5059 1.17714 26.1488 1.46078 25.8221 1.94955C25.7841 2.00527 25.7537 2.06351 25.7537 2.07871C25.7537 2.0939 25.7461 2.11163 25.736 2.1167C25.6702 2.14455 25.4093 2.81314 25.2953 3.25126C25.1839 3.67166 25.0649 4.44408 25.0168 5.06201C24.9737 5.64449 24.9585 7.00951 24.9914 7.51855C25.0066 7.75407 25.032 8.15927 25.0472 8.41759C25.0624 8.67337 25.0775 8.91903 25.0826 8.96208C25.0902 9.0026 25.1054 9.20267 25.1206 9.40527C25.1333 9.60787 25.1561 9.84593 25.1712 9.9371C25.1839 10.0283 25.2016 10.1777 25.2118 10.2714L25.227 10.4436H25.7461H26.2653L26.2501 10.7146C26.24 10.8665 26.2222 11.097 26.207 11.2287C26.1944 11.3604 26.1665 11.6288 26.1463 11.8238C26.1083 12.1708 26.0399 12.7659 25.969 13.318C25.7537 15.0123 25.6702 15.7543 25.617 16.4583C25.5942 16.7369 25.5663 17.0914 25.5511 17.2459C25.5182 17.603 25.5182 18.8262 25.5511 19.0491C25.5638 19.1428 25.5866 19.315 25.5992 19.434C25.6144 19.553 25.6322 19.6771 25.6398 19.7126C25.6474 19.7481 25.6651 19.8367 25.6803 19.9101C25.7132 20.0874 25.8626 20.4496 25.9563 20.5888C26.0576 20.7357 26.2881 20.9206 26.4198 20.9586C26.5717 21.0042 26.8832 20.9966 27.0048 20.9434C27.1998 20.8573 27.3695 20.6395 27.5543 20.2318C27.6379 20.0545 27.762 19.434 27.8101 18.9655C27.8836 18.2513 27.8329 15.8556 27.7291 15.0654C27.7164 14.9667 27.7012 14.7919 27.6911 14.6729C27.6835 14.5539 27.6658 14.3766 27.6531 14.2804C27.6379 14.1816 27.6101 13.9258 27.5898 13.7105C27.5543 13.3484 27.5088 12.9457 27.4151 12.1784C27.3948 12.0112 27.3619 11.7149 27.3391 11.5199C27.3163 11.3249 27.2859 11.0919 27.2732 11.0008C27.1593 10.2916 27.1618 10.3423 27.1542 5.54825C27.1491 3.04613 27.1365 0.997326 27.1264 0.999859C27.1162 0.999859 27.0402 1.02012 26.9567 1.04544Z" fill="#505050"/>
<path d="M3.70788 1.36723C3.70028 1.42294 3.68255 1.51665 3.66989 1.57996C3.63697 1.73444 3.59645 3.13239 3.57365 4.72787L3.55593 6.04225L3.48502 6.10303C3.38118 6.19166 3.20897 6.18913 3.11527 6.0929L3.04436 6.02452L3.02916 5.16346C3.01903 4.68988 3.01144 4.12007 3.01144 3.89721C3.01144 3.67435 3.00131 3.28181 2.98611 3.02349C2.97092 2.76517 2.94812 2.33718 2.93546 2.0738C2.9076 1.59262 2.86202 1.2634 2.82656 1.31911C2.75818 1.42801 2.71513 2.45114 2.69487 4.43157L2.67461 6.03212L2.61383 6.09796C2.53279 6.1866 2.3859 6.18913 2.2846 6.10303L2.21369 6.04225L2.1985 4.15806C2.18584 2.68667 2.17317 2.17763 2.13772 1.82055C2.09467 1.33937 2.06681 1.22287 2.03642 1.38495C2.02629 1.43561 2.02376 1.51665 2.02882 1.56476C2.03389 1.61288 2.03135 1.64834 2.02122 1.64074C1.98577 1.62048 1.9731 1.72178 1.94525 2.26374C1.90726 3.03109 1.89713 3.45148 1.87687 4.82917L1.85914 6.04225L1.78823 6.10303C1.68187 6.1942 1.51219 6.18913 1.41342 6.09036L1.33998 6.01692V5.47496C1.33998 4.70255 1.29186 2.55751 1.264 2.04847C1.23868 1.60275 1.19816 1.30138 1.1627 1.30138C1.10192 1.30138 0.967697 2.18776 0.871462 3.21343C0.851202 3.43629 0.823344 3.7098 0.808149 3.82123C0.744836 4.30494 0.704316 4.60378 0.656198 4.93554C0.630873 5.13054 0.595418 5.40405 0.580223 5.54334C0.565028 5.68263 0.542235 5.88017 0.529572 5.98147C0.471325 6.40693 0.501715 6.99954 0.59795 7.44273C0.684056 7.83527 0.896787 8.25566 1.15004 8.52411C1.26147 8.64567 1.57297 8.88879 1.72998 8.98249C1.88193 9.07113 1.93765 9.19016 1.9731 9.50926C2.00603 9.7929 1.98577 10.5754 1.93258 11.0136C1.91232 11.1807 1.8794 11.472 1.85914 11.6594C1.78063 12.3811 1.74518 12.6901 1.71985 12.837C1.70466 12.9205 1.68187 13.0852 1.6692 13.2042C1.65654 13.3232 1.62109 13.6018 1.59323 13.8247C1.56537 14.0475 1.52738 14.3894 1.50712 14.5844C1.48433 14.7794 1.46154 14.9719 1.45394 15.0149C1.43368 15.1112 1.37796 15.681 1.31212 16.4585C1.24627 17.236 1.21842 18.5908 1.264 19.0036C1.33998 19.7127 1.39822 19.9787 1.56031 20.3433C1.77557 20.8296 2.14278 21.06 2.58851 20.9866C2.9 20.9334 3.09754 20.7865 3.26469 20.4852C3.45969 20.1306 3.5458 19.7989 3.62177 19.1125C3.66736 18.6871 3.67242 18.5149 3.66229 17.94C3.64963 17.279 3.59391 16.3344 3.54326 15.914C3.52807 15.795 3.50021 15.5265 3.47742 15.3188C3.4293 14.8706 3.38625 14.4806 3.31787 13.926C3.29001 13.7031 3.24949 13.384 3.22923 13.2169C3.15326 12.5939 3.11274 12.2748 3.08741 12.1025C2.95319 11.201 2.87721 9.83595 2.93546 9.42315C2.97598 9.15217 3.01903 9.08633 3.27735 8.91411C3.57872 8.71405 3.87755 8.40761 4.03204 8.14423C4.09788 8.03027 4.15107 7.92897 4.15107 7.91884C4.15107 7.90617 4.16879 7.86819 4.18652 7.8302C4.34607 7.5263 4.43977 6.68804 4.38152 6.11316C4.341 5.72568 4.27769 5.19385 4.23717 4.89755C4.1384 4.21377 4.09788 3.88454 4.06243 3.51733C4.04217 3.29447 4.01938 3.07667 4.01178 3.03615C4.00418 2.9931 3.98139 2.79556 3.96113 2.59296C3.89022 1.93704 3.78892 1.3343 3.73827 1.28619C3.73067 1.27606 3.71547 1.31404 3.70788 1.36723Z" fill="#505050"/>
<path d="M13.6757 1.32695C13.4731 1.33708 13.2274 1.35988 13.1312 1.37507C13.0324 1.39027 12.8425 1.42066 12.7108 1.44092C12.3765 1.49157 11.946 1.5878 11.5838 1.69417C11.3002 1.77521 10.9077 1.90943 10.8747 1.93476C10.8621 1.94489 10.8064 1.96768 10.7532 1.98541C10.6975 2.00314 10.624 2.03099 10.5886 2.05125C10.5506 2.07151 10.51 2.08671 10.4999 2.08671C10.4822 2.08671 9.97822 2.33236 9.8364 2.41087C9.34762 2.67932 8.78287 3.05666 8.39287 3.37829C8.33462 3.42641 8.25864 3.48972 8.22572 3.51505C7.67617 3.96837 6.94174 4.73825 6.56946 5.25235C6.51374 5.32833 6.46309 5.3967 6.45549 5.4043C6.4251 5.43216 6.17439 5.81204 6.0199 6.06275C5.87048 6.30588 5.58937 6.8529 5.45009 7.1644C5.26521 7.57973 5.06008 8.19766 4.96131 8.64592C4.93092 8.77761 4.898 8.91943 4.88534 8.96248C4.87267 9.003 4.84988 9.12963 4.83469 9.24106C4.81949 9.35249 4.7967 9.49431 4.78404 9.55762C4.75618 9.69438 4.71566 10.1933 4.69287 10.6846C4.67767 11.0214 4.71566 11.8875 4.75871 12.2421C4.7967 12.5409 4.85748 12.936 4.8828 13.0398C4.898 13.0955 4.93852 13.2652 4.97651 13.4197C5.06008 13.7743 5.17404 14.1465 5.25508 14.3365C5.27534 14.3795 5.29054 14.4226 5.29054 14.4302C5.29054 14.5112 5.65522 15.3064 5.87302 15.699C5.96925 15.8737 6.15413 16.1751 6.17692 16.1928C6.18452 16.2004 6.21997 16.2511 6.25289 16.3068C6.32127 16.4233 6.32634 16.4309 6.6429 16.8437C7.27603 17.6769 8.22066 18.5658 9.07664 19.1305C9.18808 19.204 9.30964 19.285 9.34762 19.3103C9.38561 19.3382 9.4236 19.3584 9.43373 19.3584C9.44133 19.3584 9.47931 19.3787 9.51477 19.4066C9.68698 19.5256 10.3758 19.87 10.6899 19.9916C10.7633 20.022 10.8595 20.06 10.9001 20.0802C10.9431 20.0979 11.0115 20.1233 11.052 20.1334C11.0951 20.1435 11.1406 20.1587 11.1533 20.1689C11.2141 20.2144 11.9738 20.4221 12.3613 20.5006C13.0502 20.6399 13.5136 20.6804 14.3823 20.6804C15.413 20.6804 15.9499 20.6196 16.8515 20.4018C17.1503 20.3284 17.7682 20.1359 17.9151 20.0676C17.943 20.0549 18.0392 20.0144 18.1304 19.9789C18.2215 19.9409 18.3887 19.8675 18.5052 19.8118C18.6217 19.7586 18.7205 19.713 18.7255 19.713C18.7306 19.713 18.8319 19.6548 18.9534 19.5864C19.075 19.5155 19.1788 19.4597 19.1839 19.4597C19.2295 19.4597 20.2779 18.7456 20.3337 18.6747C20.3413 18.6671 20.4324 18.5886 20.5388 18.5025C20.9643 18.158 21.6126 17.5072 21.9545 17.0817C22.0026 17.0209 22.071 16.9348 22.1064 16.8918C22.2888 16.6715 22.6509 16.1346 22.851 15.7927C22.9422 15.6331 23.3068 14.9038 23.3651 14.7619C23.4259 14.6125 23.5803 14.1744 23.6386 13.9895C23.826 13.3792 23.8969 13.0652 23.9678 12.4953C23.9906 12.3358 24.021 12.1231 24.0387 12.0268C24.0818 11.7761 24.0793 10.2591 24.0362 9.9375C23.9222 9.11697 23.902 9.0106 23.8159 8.67124C23.7779 8.52436 23.7374 8.35974 23.7247 8.30403C23.6918 8.16727 23.6031 7.89123 23.5601 7.79246C23.5398 7.74941 23.5246 7.69876 23.5246 7.68356C23.5246 7.66584 23.4563 7.48856 23.3727 7.28849C23.241 6.97193 23.1473 6.77946 22.8738 6.26536C22.8409 6.20204 22.7573 6.06529 22.6889 5.96145C22.6205 5.85762 22.5471 5.73859 22.5218 5.69807C22.4306 5.53852 21.957 4.91806 21.7265 4.65721C21.1973 4.06207 20.7414 3.64167 20.0424 3.10984C19.9538 3.04147 19.4169 2.68185 19.2827 2.60081C19.0092 2.4362 18.1025 1.98541 18.0417 1.98541C18.0316 1.98541 17.9886 1.96768 17.9455 1.94742C17.7758 1.87144 17.3402 1.72709 16.9148 1.61313C16.5425 1.51183 15.9322 1.40546 15.4206 1.35228C15.0964 1.31682 14.0885 1.30416 13.6757 1.32695ZM15.3953 3.96837C15.5827 3.99369 15.7777 4.02155 15.8258 4.03421C15.8739 4.04687 16.0183 4.08233 16.1474 4.11272C16.6489 4.22668 17.2111 4.43941 17.7201 4.71039C19.0674 5.42203 20.3514 6.79465 20.9085 8.12675C20.944 8.21033 20.9921 8.32429 21.0149 8.38C21.1289 8.64085 21.2454 9.03846 21.334 9.45632C21.3517 9.54749 21.3745 9.63866 21.3821 9.65892C21.3897 9.67918 21.4201 9.91217 21.448 10.1756C21.5037 10.6998 21.5138 11.2012 21.4733 11.5786C21.3973 12.2953 21.3973 12.3003 21.2656 12.8499C21.2378 12.9689 21.2048 13.0879 21.1947 13.1158C21.1846 13.1437 21.1441 13.2576 21.1061 13.3691C21.0706 13.4805 21.0225 13.6071 21.0022 13.6527C20.982 13.6957 20.9668 13.7363 20.9668 13.7439C20.9668 13.7515 20.9111 13.8756 20.8427 14.0224C19.974 15.8661 18.1506 17.4033 16.269 17.8719C16.1854 17.8947 16.0436 17.9301 15.9524 17.9529C15.5168 18.0593 14.6938 18.1276 14.1037 18.1049C13.8732 18.0973 13.6681 18.0846 13.6478 18.0795C13.6276 18.0745 13.4706 18.0517 13.2983 18.0289C12.9818 17.9884 12.9311 17.9782 12.5082 17.8719C11.9359 17.7275 11.3205 17.4616 10.7228 17.1045C9.9301 16.6309 8.98547 15.7192 8.45871 14.9215C8.17254 14.4859 7.90662 13.9819 7.78506 13.6476C7.75974 13.5767 7.72935 13.5083 7.72175 13.4957C7.71162 13.4805 7.6711 13.3665 7.63311 13.2424C7.59512 13.1158 7.55967 12.9968 7.55207 12.9765C7.54447 12.9563 7.53434 12.9208 7.53181 12.9005C7.52928 12.8803 7.50142 12.7638 7.47103 12.6448C7.26843 11.847 7.23804 10.7023 7.39506 9.76022C7.42291 9.58548 7.45077 9.42087 7.4533 9.39301C7.45837 9.36515 7.4685 9.32463 7.4761 9.30437C7.48369 9.28411 7.51662 9.17521 7.54447 9.06378C7.63058 8.74975 7.70909 8.52182 7.82052 8.25338C8.02312 7.7722 8.49923 6.96939 8.73982 6.69841C8.75755 6.67815 8.81833 6.60218 8.87404 6.53127C8.9956 6.37679 9.13996 6.21977 9.38308 5.97665C10.1783 5.18144 11.052 4.62429 12.0144 4.29506C12.5766 4.10512 12.7463 4.0646 13.3946 3.97343C13.7567 3.92278 13.896 3.91518 14.4329 3.92025C14.8179 3.92531 15.1825 3.94304 15.3953 3.96837Z" fill="#505050"/>
<path d="M13.66 4.69467C13.2168 4.75039 12.7889 4.84663 12.3431 4.99351C11.6366 5.2265 10.8895 5.64183 10.3272 6.11288C10.0664 6.33068 9.60042 6.81185 9.39022 7.0803C9.01794 7.55388 8.64819 8.20474 8.45825 8.72137C8.44053 8.76949 8.4152 8.8328 8.40507 8.86066C8.27591 9.17216 8.12649 9.861 8.12649 10.1472C8.12649 10.2282 8.11636 10.289 8.1037 10.2814C8.04039 10.2409 8.03786 11.5223 8.10117 11.8997C8.20247 12.5277 8.35442 13.0621 8.56462 13.5458C8.8432 14.1815 9.25346 14.8146 9.70678 15.3034C10.0816 15.7086 10.5881 16.1391 10.9173 16.3316C10.9401 16.3442 11.0414 16.405 11.1377 16.4658C11.4289 16.6431 11.7682 16.8102 12.0519 16.9166C12.1431 16.952 12.2393 16.99 12.2672 17.0027C12.3988 17.0609 12.842 17.1724 13.3637 17.2787C13.6651 17.3395 14.3362 17.3674 14.8174 17.337C15.3568 17.3015 15.6784 17.2433 16.309 17.0685C16.4737 17.0229 16.8307 16.8837 17.0612 16.7748C17.1498 16.7317 17.2258 16.6988 17.2334 16.6988C17.2486 16.6988 17.826 16.367 17.864 16.3392C17.8792 16.3265 18.016 16.2277 18.1679 16.1163C18.4667 15.901 18.5377 15.8403 18.8517 15.5338C19.2468 15.1464 19.3987 14.9615 19.733 14.4575C19.8672 14.2574 19.928 14.146 20.0951 13.8117C20.3053 13.3863 20.4066 13.1052 20.5713 12.4948C20.6168 12.3251 20.6827 11.9098 20.7181 11.5704C20.7485 11.2716 20.7308 10.3903 20.6878 10.1016C20.6346 9.73944 20.4776 9.06832 20.4117 8.91131C20.3991 8.88345 20.3535 8.76442 20.3079 8.64539C20.1255 8.16168 19.8064 7.61466 19.424 7.12589C19.0442 6.64471 18.3351 5.98626 17.8767 5.68742C17.7855 5.62917 17.6893 5.56333 17.6614 5.54307C17.555 5.46203 16.8181 5.10747 16.6357 5.04669C16.5876 5.0315 16.5243 5.01124 16.4964 4.99858C16.2204 4.88208 15.6709 4.76052 15.1036 4.69467C14.8908 4.66935 13.8753 4.66935 13.66 4.69467Z" fill="#505050"/>
</g>
<defs>
<clipPath id="clip0_642_2024">
<rect width="28" height="22" fill="white" transform="translate(0.5)"/>
</clipPath>
</defs>
</svg>
