<svg width="9" height="11" viewBox="0 0 9 11" fill="none" xmlns="http://www.w3.org/2000/svg">
<path d="M5.17947 6.2507H0.378815V5.42605H5.17947C5.66378 5.42605 6.07284 5.33442 6.40663 5.15116C6.74041 4.96791 6.99403 4.71593 7.16746 4.39523C7.3409 4.07126 7.42762 3.70148 7.42762 3.28588C7.42762 2.87028 7.3409 2.50214 7.16746 2.18144C6.99403 1.85747 6.74041 1.60385 6.40663 1.4206C6.07284 1.23407 5.66378 1.14081 5.17947 1.14081H2.77423V10.369H1.85632V0.316154H5.17947C5.86667 0.316154 6.44262 0.448687 6.90731 0.713754C7.37526 0.978821 7.72869 1.33552 7.96757 1.78384C8.20973 2.23216 8.33081 2.73284 8.33081 3.28588C8.33081 3.83892 8.20973 4.3396 7.96757 4.78793C7.72869 5.23625 7.37526 5.59294 6.90731 5.85801C6.44262 6.1198 5.86667 6.2507 5.17947 6.2507ZM5.1402 7.17352V7.99818H0.378815V7.17352H5.1402Z" fill="black"/>
</svg>
