<svg width="29" height="22" viewBox="0 0 29 22" fill="none" xmlns="http://www.w3.org/2000/svg">
<path d="M20.1666 21.11H8.04545C7.76836 21.1103 7.49409 21.056 7.23933 20.9503C6.98458 20.8446 6.75466 20.6898 6.56356 20.4952C6.37246 20.3006 6.22418 20.0704 6.12773 19.8185C6.03129 19.5666 5.9887 19.2983 6.00256 19.0299L6.55414 7.64588C6.57697 7.13551 6.80224 6.65342 7.18291 6.30028C7.56358 5.94714 8.07022 5.75025 8.59703 5.75073H19.6151C20.1419 5.75025 20.6485 5.94714 21.0292 6.30028C21.4098 6.65342 21.6351 7.13551 21.6579 7.64588L22.2095 19.0299C22.2234 19.2983 22.1808 19.5666 22.0843 19.8185C21.9879 20.0704 21.8396 20.3006 21.6485 20.4952C21.4574 20.6898 21.2275 20.8446 20.9727 20.9503C20.718 21.056 20.4437 21.1103 20.1666 21.11ZM8.59703 7.07799C8.41643 7.07799 8.24322 7.14756 8.11552 7.2714C7.98781 7.39524 7.91607 7.56319 7.91607 7.73832L7.36449 19.096C7.35987 19.1854 7.37406 19.2749 7.40621 19.3588C7.43836 19.4428 7.48779 19.5195 7.55149 19.5844C7.61519 19.6492 7.69183 19.7009 7.77675 19.7361C7.86166 19.7713 7.95309 19.7894 8.04545 19.7893H20.1666C20.259 19.7894 20.3504 19.7713 20.4353 19.7361C20.5203 19.7009 20.5969 19.6492 20.6606 19.5844C20.7243 19.5195 20.7737 19.4428 20.8059 19.3588C20.838 19.2749 20.8522 19.1854 20.8476 19.096L20.296 7.71191C20.296 7.53678 20.2243 7.36882 20.0966 7.24499C19.9689 7.12115 19.7957 7.05158 19.6151 7.05158L8.59703 7.07799Z" fill="#505050"/>
<path d="M18.1918 6.4176H16.8299V5.26202C16.8299 4.5615 16.5429 3.88967 16.0321 3.39433C15.5213 2.89899 14.8285 2.62071 14.1061 2.62071C13.3836 2.62071 12.6908 2.89899 12.18 3.39433C11.6692 3.88967 11.3822 4.5615 11.3822 5.26202V6.4176H10.0203V5.26202C10.0203 4.21124 10.4507 3.2035 11.217 2.46048C11.9832 1.71747 13.0224 1.30005 14.1061 1.30005C15.1897 1.30005 16.2289 1.71747 16.9951 2.46048C17.7614 3.2035 18.1918 4.21124 18.1918 5.26202V6.4176Z" fill="#505050"/>
<path d="M20.977 7.67895C20.9613 7.33909 20.8108 7.01825 20.5571 6.78329C20.3034 6.54833 19.966 6.41738 19.6151 6.41773H8.5971C8.24627 6.41738 7.90883 6.54833 7.65511 6.78329C7.40139 7.01825 7.25096 7.33909 7.23517 7.67895L6.68359 19.063C6.67435 19.2419 6.70274 19.4208 6.76704 19.5887C6.83134 19.7566 6.93019 19.9101 7.05759 20.0399C7.18499 20.1696 7.33827 20.2728 7.50811 20.3433C7.67795 20.4137 7.86079 20.4499 8.04552 20.4497H20.1667C20.3514 20.4499 20.5343 20.4137 20.7041 20.3433C20.8739 20.2728 21.0272 20.1696 21.1546 20.0399C21.282 19.9101 21.3809 19.7566 21.4452 19.5887C21.5095 19.4208 21.5379 19.2419 21.5286 19.063L20.977 7.67895ZM10.7013 10.1024C10.5666 10.1024 10.4349 10.0636 10.323 9.99107C10.211 9.91852 10.1237 9.81539 10.0722 9.69473C10.0206 9.57407 10.0071 9.4413 10.0334 9.31321C10.0597 9.18512 10.1245 9.06746 10.2198 8.97511C10.315 8.88276 10.4363 8.81987 10.5684 8.79439C10.7005 8.76891 10.8374 8.78199 10.9619 8.83197C11.0863 8.88194 11.1927 8.96658 11.2675 9.07517C11.3423 9.18376 11.3822 9.31143 11.3822 9.44203C11.3822 9.61716 11.3105 9.78512 11.1828 9.90895C11.0551 10.0328 10.8819 10.1024 10.7013 10.1024ZM17.5109 10.1024C17.3763 10.1024 17.2446 10.0636 17.1326 9.99107C17.0206 9.91852 16.9333 9.81539 16.8818 9.69473C16.8303 9.57407 16.8168 9.4413 16.8431 9.31321C16.8693 9.18512 16.9342 9.06746 17.0294 8.97511C17.1247 8.88276 17.246 8.81987 17.3781 8.79439C17.5102 8.76891 17.6471 8.78199 17.7715 8.83197C17.896 8.88194 18.0023 8.96658 18.0771 9.07517C18.152 9.18376 18.1919 9.31143 18.1919 9.44203C18.1919 9.61716 18.1202 9.78512 17.9925 9.90895C17.8647 10.0328 17.6915 10.1024 17.5109 10.1024Z" fill="#505050"/>
</svg>
