<svg width="354" height="185" viewBox="0 0 354 185" fill="none" xmlns="http://www.w3.org/2000/svg">
<path d="M354 24.13V58.91C353.525 60.71 352.372 63.9 349.217 66.76C346.092 70.16 343.614 74.21 341.915 78.66C340.226 83.1 339.357 87.87 339.357 92.69C339.357 97.51 340.226 102.28 341.915 106.73C343.614 111.18 346.152 115.02 349.277 118.43C350.875 120.13 354 124.22 354 126.15V160.87C354 174.19 343.068 184.99 329.598 184.99H24.4023C10.9219 184.99 0 174.19 0 160.87V124.38C0.475304 122.58 1.62817 119.39 4.78337 116.53C7.90824 113.13 10.3859 109.09 12.0747 104.64C13.7737 100.19 14.6434 95.42 14.6434 90.6C14.6434 85.78 13.7737 81.01 12.0747 76.56C10.3859 72.11 7.84756 68.27 4.7227 64.86C3.12487 63.16 0 59.07 0 57.14V24.13C0 10.8 10.9219 0 24.4023 0H145.109C146.929 0.47 150.155 1.61 153.048 4.72C156.486 7.82 160.572 10.27 165.072 11.94C169.572 13.62 174.396 14.48 179.27 14.48C184.145 14.48 188.969 13.62 193.469 11.94C197.969 10.27 201.852 7.76 205.301 4.66C207.02 3.09 211.156 0 213.108 0H329.598C343.068 0 354 10.8 354 24.13Z" fill="white"/>
</svg>
