<svg width="41" height="41" viewBox="0 0 41 41" fill="none" xmlns="http://www.w3.org/2000/svg">
<circle cx="20.2854" cy="20.2029" r="20" fill="#DF2A5A"/>
<path d="M25.0063 28.4375H14.9938C14.7649 28.4378 14.5384 28.3915 14.3279 28.3015C14.1175 28.2115 13.9276 28.0796 13.7697 27.9138C13.6119 27.7481 13.4894 27.5519 13.4097 27.3374C13.33 27.1228 13.2949 26.8942 13.3063 26.6656L13.7619 16.9681C13.7808 16.5334 13.9669 16.1227 14.2813 15.8219C14.5958 15.5211 15.0143 15.3534 15.4494 15.3538H24.5507C24.9859 15.3534 25.4044 15.5211 25.7188 15.8219C26.0332 16.1227 26.2193 16.5334 26.2382 16.9681L26.6938 26.6656C26.7053 26.8942 26.6701 27.1228 26.5904 27.3374C26.5107 27.5519 26.3883 27.7481 26.2304 27.9138C26.0725 28.0796 25.8826 28.2115 25.6722 28.3015C25.4618 28.3915 25.2352 28.4378 25.0063 28.4375ZM15.4494 16.4844C15.3003 16.4844 15.1572 16.5436 15.0517 16.6491C14.9462 16.7546 14.8869 16.8977 14.8869 17.0469L14.4313 26.7219C14.4275 26.7981 14.4392 26.8743 14.4658 26.9458C14.4923 27.0173 14.5332 27.0827 14.5858 27.1379C14.6384 27.1932 14.7017 27.2372 14.7719 27.2672C14.842 27.2972 14.9175 27.3126 14.9938 27.3125H25.0063C25.0826 27.3126 25.1581 27.2972 25.2283 27.2672C25.2984 27.2372 25.3617 27.1932 25.4143 27.1379C25.467 27.0827 25.5078 27.0173 25.5343 26.9458C25.5609 26.8743 25.5726 26.7981 25.5688 26.7219L25.1132 17.0244C25.1132 16.8752 25.0539 16.7321 24.9484 16.6266C24.8429 16.5211 24.6999 16.4619 24.5507 16.4619L15.4494 16.4844Z" fill="white"/>
<path d="M23.375 15.9219H22.25V14.9375C22.25 14.3408 22.0129 13.7685 21.591 13.3465C21.169 12.9246 20.5967 12.6875 20 12.6875C19.4033 12.6875 18.831 12.9246 18.409 13.3465C17.9871 13.7685 17.75 14.3408 17.75 14.9375V15.9219H16.625V14.9375C16.625 14.0424 16.9806 13.1839 17.6135 12.551C18.2465 11.9181 19.1049 11.5625 20 11.5625C20.8951 11.5625 21.7536 11.9181 22.3865 12.551C23.0194 13.1839 23.375 14.0424 23.375 14.9375V15.9219Z" fill="white"/>
<path d="M25.6757 16.9963C25.6627 16.7067 25.5384 16.4334 25.3288 16.2333C25.1193 16.0331 24.8405 15.9216 24.5507 15.9219H15.4495C15.1597 15.9216 14.8809 16.0331 14.6713 16.2333C14.4618 16.4334 14.3375 16.7067 14.3245 16.9963L13.8688 26.6938C13.8612 26.8462 13.8847 26.9985 13.9378 27.1416C13.9909 27.2846 14.0725 27.4154 14.1778 27.5259C14.283 27.6364 14.4096 27.7243 14.5499 27.7843C14.6902 27.8443 14.8412 27.8752 14.9938 27.875H25.0063C25.1589 27.8752 25.31 27.8443 25.4503 27.7843C25.5906 27.7243 25.7172 27.6364 25.8224 27.5259C25.9276 27.4154 26.0093 27.2846 26.0624 27.1416C26.1155 26.9985 26.139 26.8462 26.1313 26.6938L25.6757 16.9963ZM17.1876 19.0606C17.0763 19.0606 16.9676 19.0276 16.8751 18.9658C16.7826 18.904 16.7105 18.8162 16.6679 18.7134C16.6253 18.6106 16.6142 18.4975 16.6359 18.3884C16.6576 18.2793 16.7112 18.179 16.7898 18.1004C16.8685 18.0217 16.9687 17.9681 17.0779 17.9464C17.187 17.9247 17.3001 17.9359 17.4028 17.9784C17.5056 18.021 17.5935 18.0931 17.6553 18.1856C17.7171 18.2781 17.7501 18.3869 17.7501 18.4981C17.7501 18.6473 17.6908 18.7904 17.5853 18.8959C17.4798 19.0014 17.3368 19.0606 17.1876 19.0606ZM22.8126 19.0606C22.7013 19.0606 22.5926 19.0276 22.5001 18.9658C22.4076 18.904 22.3355 18.8162 22.2929 18.7134C22.2503 18.6106 22.2392 18.4975 22.2609 18.3884C22.2826 18.2793 22.3362 18.179 22.4148 18.1004C22.4935 18.0217 22.5937 17.9681 22.7029 17.9464C22.812 17.9247 22.9251 17.9359 23.0278 17.9784C23.1306 18.021 23.2185 18.0931 23.2803 18.1856C23.3421 18.2781 23.3751 18.3869 23.3751 18.4981C23.3751 18.6473 23.3158 18.7904 23.2103 18.8959C23.1048 19.0014 22.9618 19.0606 22.8126 19.0606Z" fill="white"/>
</svg>
