<svg width="24" height="24" viewBox="0 0 24 24" fill="none" xmlns="http://www.w3.org/2000/svg">
<path d="M22.5398 6.49733C22.2871 5.51334 21.5413 4.73853 20.5941 4.47599C18.8786 4 12 4 12 4C12 4 5.1214 4 3.40586 4.47812C2.45872 4.74066 1.71292 5.51547 1.46022 6.49733C1 8.27962 1 12 1 12C1 12 1 15.7182 1.46022 17.5005C1.71292 18.4845 2.45872 19.2593 3.40586 19.5219C5.1214 20 12 20 12 20C12 20 18.8786 20 20.5941 19.5219C21.5413 19.2593 22.2871 18.4845 22.5398 17.5005C23 15.7182 23 12 23 12C23 12 23 8.28175 22.5398 6.49947V6.49733ZM9.79959 15.428V8.57204L15.5153 12L9.79959 15.428Z" fill="black"/>
</svg>
