<svg width="181" height="54" viewBox="0 0 181 54" fill="none" xmlns="http://www.w3.org/2000/svg">
<path fill-rule="evenodd" clip-rule="evenodd" d="M41.1688 7.5H157.25C170.091 7.5 180.5 17.9094 180.5 30.75C180.5 43.5906 170.091 54 157.25 54H23C10.2975 54 0 43.7025 0 31V15.5C0 11.0817 3.58172 7.5 8 7.5H14.7209C15.7352 7.44422 16.7987 7.35407 17.3051 7.24593C18.7804 6.93089 20.7413 4.90761 21.731 3.78049C22.8345 2.52378 25.4051 0.0138185 27.9798 5.68234e-05V0L27.9903 1.45496e-05L28.0011 0V5.95914e-05C30.5151 0.0141515 33.0252 2.52401 34.1026 3.7807C35.0691 4.90788 36.984 6.93128 38.4246 7.24634C38.9187 7.35438 40.0783 7.44433 41.1688 7.5Z" fill="url(#paint0_linear_793_191)"/>
<defs>
<linearGradient id="paint0_linear_793_191" x1="1.88748e-07" y1="39" x2="136" y2="28.5" gradientUnits="userSpaceOnUse">
<stop stop-color="#FE21AC"/>
<stop offset="1" stop-color="#FA1D33"/>
</linearGradient>
</defs>
</svg>
