<svg width="80" height="72" viewBox="0 0 80 72" fill="none" xmlns="http://www.w3.org/2000/svg">
<path d="M3.66797 38.209H65.3695" stroke="black" stroke-width="5.67667" stroke-miterlimit="10" stroke-linecap="round" stroke-linejoin="round"/>
<path d="M65.3695 29.7566V55.7075C65.2606 66.0516 62.4296 68.6649 51.65 68.6649H17.3876C6.4265 68.6649 3.66797 65.9431 3.66797 55.1272V29.7566C3.66797 19.9571 5.95456 16.7995 14.5565 16.2913C15.4276 16.255 16.3713 16.2188 17.3876 16.2188H51.65C62.6111 16.2188 65.3695 18.9409 65.3695 29.7566Z" stroke="black" stroke-width="5.67667" stroke-linecap="round" stroke-linejoin="round"/>
<path d="M76.2567 16.8701V42.2403C76.2567 52.0399 73.9701 55.1976 65.3682 55.7057V29.7548C65.3682 18.9389 62.6098 16.2168 51.6487 16.2168H17.3863C16.37 16.2168 15.4263 16.2531 14.5552 16.2894C14.6641 5.94527 17.4952 3.33203 28.2748 3.33203H62.5372C73.4983 3.33203 76.2567 6.05416 76.2567 16.8701Z" stroke="black" stroke-width="5.67667" stroke-linecap="round" stroke-linejoin="round"/>
<path d="M15.4653 57.0898H21.708" stroke="black" stroke-width="5.67667" stroke-miterlimit="10" stroke-linecap="round" stroke-linejoin="round"/>
<path d="M29.4771 57.0898H41.9627" stroke="black" stroke-width="5.67667" stroke-miterlimit="10" stroke-linecap="round" stroke-linejoin="round"/>
</svg>
