<svg width="25" height="24" viewBox="0 0 25 24" fill="none" xmlns="http://www.w3.org/2000/svg">
<g clip-path="url(#clip0_47_245)">
<path d="M14.8126 8.29998C14.6005 7.96043 14.1534 7.85709 13.8138 8.06916C13.4743 8.28124 13.3709 8.72843 13.583 9.06799L13.9565 9.66603C14.1686 10.0056 14.6158 10.1089 14.9553 9.89685C15.2949 9.68477 15.3982 9.23758 15.1861 8.89803L14.8126 8.29998Z" fill="black"/>
<path d="M16.3064 10.6935C16.0947 10.3537 15.6476 10.25 15.3078 10.4618C14.9681 10.6735 14.8643 11.1206 15.0761 11.4604L15.4491 12.0588C15.6608 12.3985 16.1079 12.5023 16.4477 12.2905C16.7874 12.0787 16.8912 11.6316 16.6794 11.2919L16.3064 10.6935Z" fill="black"/>
<path fill-rule="evenodd" clip-rule="evenodd" d="M17.2646 2.07165C17.0318 2.01775 16.7872 2.0585 16.5845 2.18492L12.7608 4.57071C12.5307 4.71423 12.3362 4.90796 12.1918 5.13727C12.1918 5.13729 12.1918 5.13726 12.1918 5.13727C12.1877 5.14376 12.1837 5.15031 12.1797 5.15685L12.179 5.15797C12.1509 5.20402 12.1125 5.24289 12.0668 5.27151C12.0212 5.30012 11.9694 5.31769 11.9158 5.32284C11.6387 5.34915 11.3714 5.43942 11.1351 5.58655L1.32906 11.7035C1.1264 11.83 0.982266 12.0318 0.928366 12.2646C0.874465 12.4973 0.915208 12.742 1.04163 12.9447L2.53678 15.341L2.53822 15.3433C2.65767 15.5353 2.84502 15.6754 3.06306 15.7355C3.28198 15.796 3.51565 15.7714 3.71724 15.6668L3.71833 15.6663L3.71942 15.6657C4.03001 15.5032 4.39052 15.464 4.72877 15.556C5.06703 15.6479 5.35807 15.8643 5.54363 16.1617C5.72918 16.4591 5.79557 16.8156 5.72948 17.1598C5.6634 17.5041 5.46973 17.8107 5.18724 18.0182L5.18626 18.0189L5.18527 18.0197C5.0027 18.1547 4.87794 18.3538 4.836 18.577C4.79418 18.7996 4.83775 19.0296 4.95797 19.2214L4.95909 19.2232L6.45422 21.6195C6.58074 21.8221 6.78256 21.9663 7.01533 22.0202C7.24811 22.0741 7.49274 22.0333 7.69546 21.9069L17.5023 15.7883C17.7386 15.6406 17.9374 15.4399 18.0829 15.2022L18.0836 15.201C18.1117 15.155 18.1501 15.1161 18.1958 15.0875C18.2414 15.0589 18.293 15.0413 18.3466 15.0361C18.6239 15.0099 18.8913 14.9194 19.1277 14.7719L22.9514 12.3862C23.154 12.2596 23.2982 12.0578 23.3521 11.8251C23.406 11.5923 23.3652 11.3476 23.2388 11.1449L21.7437 8.74867L21.7425 8.74687C21.6231 8.55458 21.4356 8.41432 21.2174 8.35407C20.9984 8.29363 20.7648 8.31818 20.5632 8.42278L20.5618 8.42349L20.5604 8.42421C20.2501 8.58694 19.8897 8.62652 19.5515 8.53503C19.2135 8.44362 18.9224 8.22808 18.7363 7.93146C18.5511 7.63421 18.4848 7.27801 18.5508 6.93402C18.6168 6.58983 18.8102 6.28324 19.0925 6.07556L19.0933 6.07497L19.0941 6.07438C19.2767 5.93929 19.4015 5.74019 19.4434 5.51699C19.4852 5.29461 19.4417 5.06468 19.3216 4.87295L19.3203 4.87082L17.8257 2.47235C17.6992 2.26968 17.4973 2.12555 17.2646 2.07165ZM18.2086 13.593C18.1796 13.5957 18.1508 13.5992 18.122 13.6034L17.7993 13.0861C17.5873 12.7464 17.1402 12.6429 16.8005 12.8548C16.4609 13.0667 16.3573 13.5139 16.5693 13.8535L16.8932 14.3726C16.8768 14.3967 16.8611 14.4212 16.8459 14.4461C16.8177 14.4919 16.7793 14.5306 16.7337 14.5591L7.39368 20.3864L6.43178 18.8447C6.79898 18.4548 7.05096 17.966 7.15326 17.4331C7.28825 16.7299 7.15265 16.0017 6.77361 15.3942C6.39458 14.7867 5.80008 14.3448 5.10913 14.157C4.58549 14.0146 4.03574 14.0261 3.52405 14.1845L2.56219 12.643L11.9013 6.81727C11.9472 6.78875 11.9992 6.77118 12.0529 6.76611L12.054 6.76601C12.0829 6.76324 12.1118 6.75976 12.1406 6.75559L12.4633 7.2729C12.6753 7.61255 13.1224 7.71609 13.462 7.50417C13.8017 7.29225 13.9052 6.84511 13.6933 6.50545L13.3694 5.98635C13.3857 5.96242 13.4013 5.93808 13.4164 5.91334C13.4444 5.86765 13.4827 5.8291 13.5281 5.80074L16.886 3.70561L17.8479 5.2493C17.4809 5.63938 17.2291 6.12815 17.1269 6.66105C16.9922 7.364 17.1277 8.09191 17.5065 8.69922L17.5073 8.70042C17.8872 9.30694 18.4821 9.74769 19.173 9.93453C19.6963 10.0761 20.2455 10.064 20.7566 9.90539L21.7183 11.4467L18.3602 13.542C18.3147 13.5704 18.2631 13.5878 18.2097 13.5928L18.2086 13.593Z" fill="black"/>
</g>
<defs>
<clipPath id="clip0_47_245">
<rect width="24" height="24" fill="white" transform="translate(0.5)"/>
</clipPath>
</defs>
</svg>
