<svg width="80" height="66" viewBox="0 0 80 66" fill="none" xmlns="http://www.w3.org/2000/svg">
<path d="M74.5994 15.1999L74.5127 14.9382C73.1201 10.7372 70.2772 7.48288 66.5449 5.67464C63.0028 3.96033 58.2095 3.60115 52.4726 5.14276L52.4726 5.14277C47.6721 6.43269 44.2164 8.99247 41.9379 11.2692L39.3485 13.8565L36.6446 11.3891C29.1117 4.51539 19.4791 2.93506 12.5728 6.6711L12.56 6.67805L12.5471 6.6849C8.88475 8.63017 6.16555 11.9885 4.93037 16.2386L74.5994 15.1999ZM74.5994 15.1999C76.3786 20.8511 75.5355 27.7007 71.9017 34.0317C68.2719 40.3539 63.8945 44.3523 54.2857 52.0333C52.0763 53.7988 49.7088 55.5201 47.8785 56.8092C46.967 57.4513 46.1964 57.9808 45.6555 58.3485C45.3852 58.5323 45.1727 58.6754 45.0291 58.7717C44.9573 58.8199 44.9027 58.8563 44.8668 58.8802L44.8271 58.9066L44.8181 58.9126L44.8165 58.9137L44.8164 58.9138L44.8163 58.9138C44.8163 58.9138 44.8163 58.9138 44.8163 58.9138L44.8162 58.9138C43.0573 60.0789 41.4461 61.0861 40.0477 61.9296C38.2489 60.7882 32.1549 56.8525 25.6012 51.8781C18.4557 46.4546 11.3478 40.2237 8.25568 35.2216L8.25071 35.2136L8.24569 35.2056C4.32723 28.9363 3.25483 22.0085 4.93021 16.2392L74.5994 15.1999Z" stroke="black" stroke-width="7.66667"/>
</svg>
