<svg width="25" height="24" viewBox="0 0 25 24" fill="none" xmlns="http://www.w3.org/2000/svg">
<path d="M16.1745 12.2656C16.1745 10.4295 14.7505 8.93579 13.0001 8.93579C11.2497 8.93579 9.82564 10.4295 9.82564 12.2656C9.82564 14.1016 11.2497 15.5954 13.0001 15.5954C14.7505 15.5954 16.1745 14.1016 16.1745 12.2656Z" fill="black"/>
<path d="M9.82564 12.2656C9.82564 10.4295 11.2497 8.93579 13.0001 8.93579C14.7505 8.93579 16.1745 10.4295 16.1745 12.2656C16.1745 14.1016 14.7505 15.5954 13.0001 15.5954C11.2497 15.5954 9.82564 14.1016 9.82564 12.2656Z" fill="black"/>
<path d="M13.002 12.3569L12.9991 12.354L13.002 12.3511" fill="black"/>
<path d="M13.002 12.3569L12.9991 12.354L13.002 12.3511" stroke="#F70000" stroke-width="0.0333825" stroke-linecap="round" stroke-linejoin="round"/>
<path d="M20.7198 20.9996C20.5504 20.9996 20.381 20.9321 20.2517 20.797C19.9915 20.5257 19.9907 20.0848 20.2492 19.8122C22.1344 17.825 23.1724 15.1914 23.1724 12.3969C23.1724 9.60234 22.12 6.93208 20.2094 4.94035C19.9496 4.66922 19.9484 4.22842 20.2068 3.95576C20.4653 3.68262 20.8854 3.68127 21.1455 3.95259C23.3085 6.20767 24.5 9.20665 24.5 12.3969C24.5 15.5871 23.3244 18.5445 21.1904 20.7945C21.0608 20.9311 20.89 20.9995 20.7197 20.9995L20.7198 20.9996Z" fill="black"/>
<path d="M18.8637 19.2269C18.6947 19.2269 18.5253 19.1596 18.3957 19.0245C18.1359 18.7534 18.1342 18.3125 18.3927 18.0399C19.8262 16.5265 20.6157 14.5226 20.6157 12.3971C20.6157 10.2717 19.8123 8.23219 18.3537 6.71409C18.0935 6.44325 18.0918 6.00216 18.3502 5.72921C18.6082 5.45626 19.0283 5.45473 19.2889 5.72537C21.0007 7.50711 21.9432 9.8765 21.9432 12.3971C21.9432 14.9178 21.0166 17.2452 19.3346 19.0213C19.2045 19.1582 19.0342 19.2269 18.8635 19.2269H18.8637Z" fill="black"/>
<path d="M17.0503 17.2378C16.8813 17.2378 16.7127 17.1707 16.5831 17.0363C16.3225 16.7656 16.3208 16.3248 16.5788 16.0514C17.5054 15.07 18.0157 13.7721 18.0157 12.3969C18.0157 11.0217 17.4919 9.6899 16.5412 8.70349C16.2806 8.43303 16.278 7.99223 16.536 7.7189C16.7935 7.44556 17.2145 7.44259 17.4746 7.71343C18.6795 8.96328 19.3433 10.6267 19.3433 12.3969C19.3433 14.1671 18.6964 15.7874 17.5217 17.0315C17.3921 17.1688 17.2209 17.2377 17.0503 17.2377V17.2378Z" fill="black"/>
<path d="M5.2804 20.9999C5.11013 20.9999 4.9394 20.9314 4.80975 20.7948C2.67553 18.5444 1.5 15.5622 1.5 12.3971C1.5 9.23201 2.69154 6.20828 4.85477 3.95281C5.11498 3.68198 5.53503 3.68313 5.79342 3.95579C6.05189 4.22874 6.05052 4.66954 5.79085 4.94067C3.87998 6.93278 2.82769 9.58088 2.82769 12.3972C2.82769 15.2135 3.86598 17.8251 5.75114 19.8125C6.00962 20.0851 6.0087 20.526 5.74858 20.7974C5.61939 20.9325 5.44994 21 5.28058 21L5.2804 20.9999Z" fill="black"/>
<path d="M7.13677 19.227C6.96604 19.227 6.79577 19.1583 6.66566 19.0214C4.98361 17.2451 4.05704 14.8926 4.05704 12.397C4.05704 9.90139 4.99962 7.50696 6.71141 5.72521C6.97199 5.45457 7.39204 5.4562 7.65006 5.72905C7.90853 6.002 7.90679 6.443 7.64658 6.71393C6.18796 8.23213 5.38454 10.2505 5.38454 12.397C5.38454 14.5434 6.17415 16.5263 7.6076 18.0399C7.86608 18.3129 7.86434 18.7537 7.60458 19.0245C7.47494 19.1596 7.30549 19.2269 7.13659 19.2269L7.13677 19.227Z" fill="black"/>
<path d="M8.95006 17.2378C8.77896 17.2378 8.60823 17.1689 8.47858 17.0316C7.30397 15.7874 6.65701 14.1417 6.65701 12.3971C6.65701 10.6525 7.3208 8.96332 8.5257 7.71356C8.78628 7.44311 9.20725 7.4456 9.46436 7.71903C9.72237 7.99236 9.71981 8.43326 9.45914 8.70362C8.50832 9.69003 7.9846 11.0018 7.9846 12.3971C7.9846 13.7923 8.49496 15.0701 9.42154 16.0515C9.67955 16.3249 9.67781 16.7658 9.41724 17.0364C9.28759 17.1709 9.11905 17.2379 8.95006 17.2379V17.2378Z" fill="black"/>
</svg>
