<svg width="24" height="24" viewBox="0 0 24 24" fill="none" xmlns="http://www.w3.org/2000/svg">
<g clip-path="url(#clip0_47_219)">
<path d="M19.2424 22H4.75759C3.23701 22 2 20.8113 2 19.3502V9.39356C2 8.71932 2.3418 8.08526 2.91415 7.69734L10.7599 2.3773C11.5017 1.87439 12.4983 1.87439 13.2396 2.3773L21.0859 7.69734C21.6582 8.08526 22 8.71932 22 9.39356V19.3502C22 20.8113 20.763 22 19.2424 22ZM11.9998 3.84632C11.9434 3.84632 11.8876 3.86202 11.8407 3.89388L3.99493 9.21392C3.9315 9.25686 3.89363 9.32383 3.89363 9.39356V19.3502C3.89363 19.793 4.28135 20.1528 4.75759 20.1528H19.2424C19.7187 20.1528 20.1064 19.7926 20.1064 19.3502V9.39356C20.1064 9.32429 20.0685 9.25686 20.0051 9.21392L12.1588 3.89388C12.112 3.86202 12.0556 3.84632 11.9998 3.84632ZM16.5265 18.0289H7.47352C6.95041 18.0289 6.52671 17.6156 6.52671 17.1053C6.52671 16.595 6.95041 16.1817 7.47352 16.1817H16.5265C17.0496 16.1817 17.4733 16.595 17.4733 17.1053C17.4733 17.6156 17.0496 18.0289 16.5265 18.0289Z" fill="black"/>
</g>
<defs>
<clipPath id="clip0_47_219">
<rect width="20" height="20" fill="white" transform="translate(2 2)"/>
</clipPath>
</defs>
</svg>
