<svg width="21" height="21" viewBox="0 0 21 21" fill="none" xmlns="http://www.w3.org/2000/svg">
<path d="M7.01318 9L10.5132 12.5L19.5132 3.5" stroke="#7D7D7D" stroke-width="1.5"/>
<path fill-rule="evenodd" clip-rule="evenodd" d="M14.9508 1.80205C13.4941 0.973338 11.8089 0.5 10.0132 0.5C4.49034 0.5 0.0131836 4.97715 0.0131836 10.5C0.0131836 16.0228 4.49034 20.5 10.0132 20.5C15.2897 20.5 19.6118 16.4133 19.9868 11.2324L18.4738 11.3238C18.0595 15.6317 14.4297 19 10.0132 19C5.31876 19 1.51318 15.1944 1.51318 10.5C1.51318 5.80558 5.31876 2 10.0132 2C11.3811 2 12.6735 2.32313 13.8183 2.89721L14.9508 1.80205Z" fill="#7D7D7D"/>
</svg>
