<svg width="21" height="20" viewBox="0 0 21 20" fill="none" xmlns="http://www.w3.org/2000/svg">
<path d="M7.01321 8.5L10.5132 12L19.5132 3" stroke="#505050" stroke-width="2"/>
<path fill-rule="evenodd" clip-rule="evenodd" d="M14.9509 1.30205C13.4942 0.473338 11.809 0 10.0132 0C4.49037 0 0.0132141 4.47715 0.0132141 10C0.0132141 15.5228 4.49037 20 10.0132 20C15.2898 20 19.6118 15.9133 19.9868 10.7324L17.9681 10.8544C17.5417 14.8709 14.1429 18 10.0132 18C5.59494 18 2.01321 14.4183 2.01321 10C2.01321 5.58172 5.59494 2 10.0132 2C11.2379 2 12.3982 2.27518 13.4359 2.76707L14.9509 1.30205Z" fill="#505050"/>
</svg>
