<svg width="24" height="24" viewBox="0 0 24 24" fill="none" xmlns="http://www.w3.org/2000/svg">
<path d="M22.2181 6.32316L22.1924 6.23812C21.7516 4.77941 20.8483 3.64604 19.6695 3.01964L22.2181 6.32316ZM22.2181 6.32316C22.7783 8.26886 22.4999 10.5694 21.4135 12.6459C20.3389 14.6989 19.0365 15.9872 16.3617 18.3327C15.7338 18.8831 15.0642 19.4169 14.5497 19.8145C14.2929 20.0129 14.0757 20.1767 13.9229 20.2906C13.8465 20.3476 13.7863 20.392 13.7454 20.4222L13.6988 20.4563L13.6871 20.4648L13.6843 20.4669L13.6836 20.4674L13.6835 20.4675L13.6835 20.4675C13.1726 20.8387 12.7058 21.1582 12.3031 21.4241C12.1589 21.519 11.9881 21.5247 11.8413 21.4424C11.4375 21.163 9.64663 19.9063 7.71136 18.2949C5.72787 16.6434 3.66207 14.6753 2.73403 13.0284L2.73286 13.0264C1.56246 10.9723 1.21241 8.6481 1.73859 6.66062L22.2181 6.32316ZM15.2431 2.3391L15.3844 2.8183C13.9359 3.24524 12.8906 4.09404 12.2011 4.84973L11.8482 5.2366L11.478 4.86612C9.24403 2.62993 6.32244 2.05086 4.15593 3.3365L4.15249 3.33854L4.15248 3.33852C2.9944 4.01329 2.12971 5.18423 1.73861 6.66055L15.2431 2.3391ZM15.2431 2.3391L15.3844 2.81829M15.2431 2.3391L15.3844 2.81829M15.3844 2.81829C17.0666 2.32241 18.5365 2.41817 19.6693 3.01956L15.3844 2.81829Z" stroke="white"/>
</svg>
