<svg width="80" height="56" viewBox="0 0 80 56" fill="none" xmlns="http://www.w3.org/2000/svg">
<rect x="2.41094" y="2.81304" width="75.1781" height="50.1781" rx="11.4118" stroke="#F2D6E2" stroke-width="4.82188"/>
<path d="M40.3091 0.562936H37.8981V5.38482H40.3091V0.562936ZM66.9902 5.38482C68.3217 5.38482 69.4011 4.3054 69.4011 2.97388C69.4011 1.64235 68.3217 0.562936 66.9902 0.562936V5.38482ZM40.3091 5.38482H66.9902V0.562936H40.3091V5.38482Z" fill="#DF2A5A"/>
<path d="M34.419 36.8569C34.371 36.3949 34.203 36.0619 33.915 35.8579C33.633 35.6479 33.27 35.5429 32.826 35.5429C32.646 35.5429 32.469 35.5609 32.295 35.5969C32.121 35.6329 31.965 35.6929 31.827 35.7769C31.695 35.8609 31.587 35.9749 31.503 36.1189C31.425 36.2569 31.386 36.4309 31.386 36.6409C31.386 36.8389 31.443 37.0009 31.557 37.1269C31.677 37.2469 31.833 37.3459 32.025 37.4239C32.223 37.5019 32.445 37.5679 32.691 37.6219C32.937 37.6699 33.186 37.7239 33.438 37.7839C33.696 37.8439 33.948 37.9159 34.194 37.9999C34.44 38.0779 34.659 38.1859 34.851 38.3239C35.049 38.4619 35.205 38.6359 35.319 38.8459C35.439 39.0559 35.499 39.3199 35.499 39.6379C35.499 39.9799 35.421 40.2739 35.265 40.5199C35.115 40.7599 34.92 40.9579 34.68 41.1139C34.44 41.2639 34.17 41.3719 33.87 41.4379C33.576 41.5099 33.282 41.5459 32.988 41.5459C32.628 41.5459 32.286 41.5009 31.962 41.4109C31.644 41.3209 31.362 41.1859 31.116 41.0059C30.876 40.8199 30.684 40.5859 30.54 40.3039C30.402 40.0159 30.333 39.6769 30.333 39.2869H31.143C31.143 39.5569 31.194 39.7909 31.296 39.9889C31.404 40.1809 31.542 40.3399 31.71 40.4659C31.884 40.5919 32.085 40.6849 32.313 40.7449C32.541 40.8049 32.775 40.8349 33.015 40.8349C33.207 40.8349 33.399 40.8169 33.591 40.7809C33.789 40.7449 33.966 40.6849 34.122 40.6009C34.278 40.5109 34.404 40.3909 34.5 40.2409C34.596 40.0909 34.644 39.8989 34.644 39.6649C34.644 39.4429 34.584 39.2629 34.464 39.1249C34.35 38.9869 34.194 38.8759 33.996 38.7919C33.804 38.7019 33.585 38.6299 33.339 38.5759C33.093 38.5219 32.841 38.4679 32.583 38.4139C32.331 38.3539 32.082 38.2879 31.836 38.2159C31.59 38.1379 31.368 38.0389 31.17 37.9189C30.978 37.7929 30.822 37.6339 30.702 37.4419C30.588 37.2439 30.531 36.9979 30.531 36.7039C30.531 36.3799 30.597 36.1009 30.729 35.8669C30.861 35.6269 31.035 35.4319 31.251 35.2819C31.473 35.1259 31.722 35.0119 31.998 34.9399C32.28 34.8619 32.568 34.8229 32.862 34.8229C33.192 34.8229 33.498 34.8619 33.78 34.9399C34.062 35.0179 34.308 35.1409 34.518 35.3089C34.734 35.4769 34.902 35.6899 35.022 35.9479C35.148 36.1999 35.217 36.5029 35.229 36.8569H34.419ZM36.4119 34.9759H37.1769V37.4329H37.1949C37.2549 37.2889 37.3389 37.1689 37.4469 37.0729C37.5549 36.9709 37.6749 36.8899 37.8069 36.8299C37.9449 36.7639 38.0859 36.7159 38.2299 36.6859C38.3799 36.6559 38.5239 36.6409 38.6619 36.6409C38.9679 36.6409 39.2229 36.6829 39.4269 36.7669C39.6309 36.8509 39.7959 36.9679 39.9219 37.1179C40.0479 37.2679 40.1349 37.4479 40.1829 37.6579C40.2369 37.8619 40.2639 38.0899 40.2639 38.3419V41.4019H39.4989V38.2519C39.4989 37.9639 39.4149 37.7359 39.2469 37.5679C39.0789 37.3999 38.8479 37.3159 38.5539 37.3159C38.3199 37.3159 38.1159 37.3519 37.9419 37.4239C37.7739 37.4959 37.6329 37.5979 37.5189 37.7299C37.4049 37.8619 37.3179 38.0179 37.2579 38.1979C37.2039 38.3719 37.1769 38.5639 37.1769 38.7739V41.4019H36.4119V34.9759ZM41.9709 39.0799C41.9709 39.3619 42.0069 39.6139 42.0789 39.8359C42.1569 40.0519 42.2619 40.2349 42.3939 40.3849C42.5259 40.5289 42.6789 40.6399 42.8529 40.7179C43.0329 40.7959 43.2219 40.8349 43.4199 40.8349C43.6179 40.8349 43.8039 40.7959 43.9779 40.7179C44.1579 40.6399 44.3139 40.5289 44.4459 40.3849C44.5779 40.2349 44.6799 40.0519 44.7519 39.8359C44.8299 39.6139 44.8689 39.3619 44.8689 39.0799C44.8689 38.7979 44.8299 38.5489 44.7519 38.3329C44.6799 38.1109 44.5779 37.9249 44.4459 37.7749C44.3139 37.6249 44.1579 37.5109 43.9779 37.4329C43.8039 37.3549 43.6179 37.3159 43.4199 37.3159C43.2219 37.3159 43.0329 37.3549 42.8529 37.4329C42.6789 37.5109 42.5259 37.6249 42.3939 37.7749C42.2619 37.9249 42.1569 38.1109 42.0789 38.3329C42.0069 38.5489 41.9709 38.7979 41.9709 39.0799ZM41.1609 39.0799C41.1609 38.7379 41.2089 38.4199 41.3049 38.1259C41.4009 37.8259 41.5449 37.5679 41.7369 37.3519C41.9289 37.1299 42.1659 36.9559 42.4479 36.8299C42.7299 36.7039 43.0539 36.6409 43.4199 36.6409C43.7919 36.6409 44.1159 36.7039 44.3919 36.8299C44.6739 36.9559 44.9109 37.1299 45.1029 37.3519C45.2949 37.5679 45.4389 37.8259 45.5349 38.1259C45.6309 38.4199 45.6789 38.7379 45.6789 39.0799C45.6789 39.4219 45.6309 39.7399 45.5349 40.0339C45.4389 40.3279 45.2949 40.5859 45.1029 40.8079C44.9109 41.0239 44.6739 41.1949 44.3919 41.3209C44.1159 41.4409 43.7919 41.5009 43.4199 41.5009C43.0539 41.5009 42.7299 41.4409 42.4479 41.3209C42.1659 41.1949 41.9289 41.0239 41.7369 40.8079C41.5449 40.5859 41.4009 40.3279 41.3049 40.0339C41.2089 39.7399 41.1609 39.4219 41.1609 39.0799ZM46.6079 36.7489H47.3729V37.3789H47.3909C47.5169 37.1209 47.7149 36.9349 47.9849 36.8209C48.2549 36.7009 48.5519 36.6409 48.8759 36.6409C49.2359 36.6409 49.5479 36.7069 49.8119 36.8389C50.0819 36.9709 50.3039 37.1509 50.4779 37.3789C50.6579 37.6009 50.7929 37.8589 50.8829 38.1529C50.9729 38.4469 51.0179 38.7589 51.0179 39.0889C51.0179 39.4189 50.9729 39.7309 50.8829 40.0249C50.7989 40.3189 50.6669 40.5769 50.4869 40.7989C50.3129 41.0149 50.0909 41.1859 49.8209 41.3119C49.5569 41.4379 49.2479 41.5009 48.8939 41.5009C48.7799 41.5009 48.6509 41.4889 48.5069 41.4649C48.3689 41.4409 48.2309 41.4019 48.0929 41.3479C47.9549 41.2939 47.8229 41.2219 47.6969 41.1319C47.5769 41.0359 47.4749 40.9189 47.3909 40.7809H47.3729V43.1749H46.6079V36.7489ZM50.2079 39.0349C50.2079 38.8189 50.1779 38.6089 50.1179 38.4049C50.0639 38.1949 49.9769 38.0089 49.8569 37.8469C49.7429 37.6849 49.5929 37.5559 49.4069 37.4599C49.2269 37.3639 49.0139 37.3159 48.7679 37.3159C48.5099 37.3159 48.2909 37.3669 48.1109 37.4689C47.9309 37.5709 47.7839 37.7059 47.6699 37.8739C47.5559 38.0359 47.4719 38.2219 47.4179 38.4319C47.3699 38.6419 47.3459 38.8549 47.3459 39.0709C47.3459 39.2989 47.3729 39.5209 47.4269 39.7369C47.4809 39.9469 47.5649 40.1329 47.6789 40.2949C47.7989 40.4569 47.9519 40.5889 48.1379 40.6909C48.3239 40.7869 48.5489 40.8349 48.8129 40.8349C49.0769 40.8349 49.2959 40.7839 49.4699 40.6819C49.6499 40.5799 49.7939 40.4449 49.9019 40.2769C50.0099 40.1089 50.0879 39.9169 50.1359 39.7009C50.1839 39.4849 50.2079 39.2629 50.2079 39.0349Z" fill="#505050"/>
<g clip-path="url(#clip0_194_2771)">
<path d="M47.119 32.7144H34.8815C34.6017 32.7147 34.3248 32.6582 34.0676 32.5481C33.8104 32.4381 33.5783 32.2769 33.3854 32.0743C33.1924 31.8717 33.0427 31.632 32.9454 31.3698C32.848 31.1075 32.805 30.8282 32.819 30.5488L33.3759 18.6963C33.3989 18.1649 33.6263 17.663 34.0107 17.2953C34.395 16.9276 34.9065 16.7226 35.4384 16.7231H46.5621C47.094 16.7226 47.6055 16.9276 47.9898 17.2953C48.3741 17.663 48.6016 18.1649 48.6246 18.6963L49.1815 30.5488C49.1955 30.8282 49.1525 31.1075 49.0551 31.3698C48.9577 31.632 48.808 31.8717 48.6151 32.0743C48.4222 32.2769 48.19 32.4381 47.9328 32.5481C47.6756 32.6582 47.3987 32.7147 47.119 32.7144ZM35.4384 18.105C35.256 18.105 35.0812 18.1775 34.9522 18.3064C34.8233 18.4353 34.7509 18.6102 34.7509 18.7925L34.194 30.6175C34.1893 30.7107 34.2037 30.8038 34.2361 30.8912C34.2686 30.9786 34.3185 31.0585 34.3828 31.126C34.4471 31.1936 34.5245 31.2473 34.6102 31.284C34.6959 31.3207 34.7882 31.3395 34.8815 31.3394H47.119C47.2122 31.3395 47.3045 31.3207 47.3903 31.284C47.476 31.2473 47.5534 31.1936 47.6177 31.126C47.682 31.0585 47.7319 30.9786 47.7644 30.8912C47.7968 30.8038 47.8111 30.7107 47.8065 30.6175L47.2496 18.765C47.2496 18.5827 47.1772 18.4078 47.0482 18.2789C46.9193 18.15 46.7444 18.0775 46.5621 18.0775L35.4384 18.105Z" fill="#505050"/>
<path d="M45.125 17.4175H43.75V16.2144C43.75 15.485 43.4603 14.7855 42.9445 14.2698C42.4288 13.7541 41.7293 13.4644 41 13.4644C40.2707 13.4644 39.5712 13.7541 39.0555 14.2698C38.5397 14.7855 38.25 15.485 38.25 16.2144V17.4175H36.875V16.2144C36.875 15.1203 37.3096 14.0711 38.0832 13.2975C38.8568 12.524 39.906 12.0894 41 12.0894C42.094 12.0894 43.1432 12.524 43.9168 13.2975C44.6904 14.0711 45.125 15.1203 45.125 16.2144V17.4175Z" fill="#505050"/>
<path d="M47.9372 18.7306C47.9213 18.3768 47.7694 18.0427 47.5133 17.7981C47.2571 17.5535 46.9164 17.4171 46.5622 17.4175H35.4385C35.0843 17.4171 34.7436 17.5535 34.4874 17.7981C34.2313 18.0427 34.0794 18.3768 34.0635 18.7306L33.5066 30.5831C33.4973 30.7694 33.5259 30.9556 33.5909 31.1304C33.6558 31.3053 33.7556 31.4651 33.8842 31.6001C34.0128 31.7352 34.1676 31.8427 34.339 31.916C34.5105 31.9894 34.6951 32.0271 34.8816 32.0269H47.1191C47.3056 32.0271 47.4902 31.9894 47.6617 31.916C47.8331 31.8427 47.9879 31.7352 48.1165 31.6001C48.2451 31.4651 48.3449 31.3053 48.4099 31.1304C48.4748 30.9556 48.5034 30.7694 48.4941 30.5831L47.9372 18.7306ZM37.5629 21.2537C37.4269 21.2537 37.294 21.2134 37.1809 21.1379C37.0678 21.0623 36.9797 20.955 36.9277 20.8293C36.8757 20.7037 36.862 20.5655 36.8886 20.4321C36.9151 20.2987 36.9806 20.1762 37.0767 20.0801C37.1729 19.9839 37.2954 19.9185 37.4287 19.8919C37.5621 19.8654 37.7003 19.879 37.8259 19.9311C37.9516 19.9831 38.0589 20.0712 38.1345 20.1843C38.21 20.2973 38.2504 20.4303 38.2504 20.5662C38.2504 20.7486 38.1779 20.9234 38.049 21.0524C37.9201 21.1813 37.7452 21.2537 37.5629 21.2537ZM44.4379 21.2537C44.3019 21.2537 44.169 21.2134 44.0559 21.1379C43.9428 21.0623 43.8547 20.955 43.8027 20.8293C43.7507 20.7037 43.737 20.5655 43.7636 20.4321C43.7901 20.2987 43.8556 20.1762 43.9517 20.0801C44.0479 19.9839 44.1704 19.9185 44.3037 19.8919C44.4371 19.8654 44.5753 19.879 44.7009 19.9311C44.8266 19.9831 44.9339 20.0712 45.0095 20.1843C45.085 20.2973 45.1254 20.4303 45.1254 20.5662C45.1254 20.7486 45.0529 20.9234 44.924 21.0524C44.7951 21.1813 44.6202 21.2537 44.4379 21.2537Z" fill="#505050"/>
</g>
<defs>
<clipPath id="clip0_194_2771">
<rect width="20" height="20" fill="white" transform="translate(30 11.4019)"/>
</clipPath>
</defs>
</svg>
