<svg width="80" height="56" viewBox="0 0 80 56" fill="none" xmlns="http://www.w3.org/2000/svg">
<rect x="2.41094" y="2.81304" width="75.1781" height="50.1781" rx="11.4118" stroke="#2AA1A0" stroke-width="4.82188"/>
<line x1="15.9119" y1="2.81342" x2="37.7711" y2="2.81342" stroke="#D6E8EC" stroke-width="4.82188" stroke-linecap="square"/>
<path d="M51.0785 12.4453C50.6512 12.5701 50.3127 12.839 50.003 13.3023C49.967 13.3551 49.9382 13.4103 49.9382 13.4247C49.9382 13.4392 49.931 13.456 49.9214 13.4608C49.859 13.4872 49.6117 14.1209 49.5037 14.5362C49.3981 14.9347 49.2852 15.6669 49.2396 16.2527C49.1988 16.8048 49.1844 18.0987 49.2156 18.5812C49.23 18.8045 49.254 19.1886 49.2684 19.4335C49.2828 19.6759 49.2972 19.9088 49.302 19.9496C49.3092 19.988 49.3236 20.1776 49.338 20.3697C49.35 20.5617 49.3717 20.7874 49.3861 20.8738C49.3981 20.9602 49.4149 21.1019 49.4245 21.1907L49.4389 21.3539H49.931H50.4231L50.4087 21.6108C50.3991 21.7548 50.3823 21.9733 50.3679 22.0981C50.3559 22.223 50.3295 22.4774 50.3103 22.6623C50.2743 22.9911 50.2095 23.5553 50.1422 24.0786C49.9382 25.6846 49.859 26.388 49.8086 27.0554C49.787 27.3194 49.7605 27.6555 49.7461 27.802C49.7149 28.1404 49.7149 29.2999 49.7461 29.5112C49.7581 29.6 49.7798 29.7632 49.7918 29.8761C49.8062 29.9889 49.823 30.1065 49.8302 30.1401C49.8374 30.1737 49.8542 30.2578 49.8686 30.3274C49.8998 30.4954 50.0414 30.8387 50.1302 30.9707C50.2263 31.11 50.4447 31.2852 50.5696 31.3212C50.7136 31.3644 51.0089 31.3572 51.1241 31.3068C51.3089 31.2252 51.4698 31.0188 51.645 30.6323C51.7242 30.4642 51.8419 29.8761 51.8875 29.432C51.9571 28.755 51.9091 26.484 51.8107 25.735C51.7987 25.6414 51.7843 25.4758 51.7747 25.3629C51.7675 25.2501 51.7506 25.0821 51.7386 24.9908C51.7242 24.8972 51.6978 24.6548 51.6786 24.4507C51.645 24.1074 51.6018 23.7257 51.513 22.9983C51.4938 22.8399 51.4626 22.559 51.441 22.3742C51.4194 22.1893 51.3906 21.9685 51.3786 21.8821C51.2705 21.2099 51.2729 21.2579 51.2657 16.7136C51.2609 14.3418 51.2489 12.3997 51.2393 12.4021C51.2297 12.4021 51.1577 12.4213 51.0785 12.4453Z" fill="#505050"/>
<path d="M29.0408 12.7504C29.0336 12.8032 29.0168 12.8921 29.0048 12.9521C28.9736 13.0985 28.9352 14.4237 28.9136 15.936L28.8968 17.1819L28.8295 17.2396C28.7311 17.3236 28.5679 17.3212 28.479 17.23L28.4118 17.1651L28.3974 16.3489C28.3878 15.9 28.3806 15.3599 28.3806 15.1486C28.3806 14.9374 28.371 14.5653 28.3566 14.3204C28.3422 14.0756 28.3206 13.6699 28.3086 13.4202C28.2822 12.9641 28.239 12.652 28.2054 12.7048C28.1406 12.808 28.0998 13.7779 28.0805 15.6552L28.0613 17.1723L28.0037 17.2348C27.9269 17.3188 27.7877 17.3212 27.6916 17.2396L27.6244 17.1819L27.61 15.3959C27.598 14.0011 27.586 13.5186 27.5524 13.1801C27.5116 12.724 27.4852 12.6136 27.4564 12.7672C27.4468 12.8153 27.4444 12.8921 27.4492 12.9377C27.454 12.9833 27.4516 13.0169 27.442 13.0097C27.4084 12.9905 27.3964 13.0865 27.37 13.6002C27.334 14.3276 27.3244 14.7261 27.3052 16.0321L27.2883 17.1819L27.2211 17.2396C27.1203 17.326 26.9595 17.3212 26.8658 17.2276L26.7962 17.1579V16.6442C26.7962 15.912 26.7506 13.8787 26.7242 13.3962C26.7002 12.9737 26.6618 12.688 26.6282 12.688C26.5706 12.688 26.4433 13.5282 26.3521 14.5005C26.3329 14.7117 26.3065 14.971 26.2921 15.0766C26.2321 15.5351 26.1937 15.8184 26.1481 16.1329C26.1241 16.3177 26.0904 16.577 26.076 16.709C26.0616 16.8411 26.04 17.0283 26.028 17.1243C25.9728 17.5276 26.0016 18.0894 26.0928 18.5095C26.1745 18.8816 26.3761 19.2801 26.6162 19.5345C26.7218 19.6498 27.0171 19.8802 27.1659 19.969C27.31 20.0531 27.3628 20.1659 27.3964 20.4684C27.4276 20.7372 27.4084 21.479 27.358 21.8943C27.3388 22.0528 27.3076 22.3288 27.2883 22.5065C27.2139 23.1907 27.1803 23.4835 27.1563 23.6228C27.1419 23.702 27.1203 23.858 27.1083 23.9708C27.0963 24.0837 27.0627 24.3477 27.0363 24.559C27.0099 24.7702 26.9739 25.0943 26.9547 25.2792C26.9331 25.464 26.9115 25.6465 26.9043 25.6873C26.885 25.7785 26.8322 26.3186 26.7698 27.0556C26.7074 27.7926 26.681 29.0769 26.7242 29.4682C26.7962 30.1404 26.8514 30.3925 27.0051 30.7381C27.2091 31.1991 27.5572 31.4175 27.9797 31.3479C28.275 31.2975 28.4622 31.1582 28.6207 30.8726C28.8055 30.5365 28.8871 30.222 28.9592 29.5715C29.0024 29.1681 29.0072 29.0049 28.9976 28.46C28.9856 27.8334 28.9328 26.938 28.8847 26.5395C28.8703 26.4267 28.8439 26.1722 28.8223 25.9753C28.7767 25.5504 28.7359 25.1807 28.6711 24.655C28.6447 24.4438 28.6063 24.1413 28.5871 23.9828C28.5151 23.3923 28.4766 23.0898 28.4526 22.9266C28.3254 22.072 28.2534 20.778 28.3086 20.3867C28.347 20.1299 28.3878 20.0675 28.6327 19.9042C28.9184 19.7146 29.2016 19.4241 29.3481 19.1744C29.4105 19.0664 29.4609 18.9704 29.4609 18.9608C29.4609 18.9488 29.4777 18.9128 29.4945 18.8768C29.6457 18.5887 29.7346 17.7941 29.6793 17.2492C29.6409 16.8819 29.5809 16.3777 29.5425 16.0969C29.4489 15.4487 29.4105 15.1366 29.3769 14.7885C29.3577 14.5773 29.3361 14.3708 29.3289 14.3324C29.3217 14.2916 29.3001 14.1044 29.2808 13.9123C29.2136 13.2906 29.1176 12.7192 29.0696 12.6736C29.0624 12.664 29.048 12.7 29.0408 12.7504Z" fill="#505050"/>
<path d="M38.4894 12.7122C38.2973 12.7218 38.0645 12.7434 37.9732 12.7578C37.8796 12.7722 37.6996 12.801 37.5747 12.8202C37.2579 12.8683 36.8498 12.9595 36.5065 13.0603C36.2376 13.1371 35.8655 13.2644 35.8343 13.2884C35.8223 13.298 35.7695 13.3196 35.7191 13.3364C35.6663 13.3532 35.5966 13.3796 35.563 13.3988C35.527 13.418 35.4886 13.4324 35.479 13.4324C35.4622 13.4324 34.9845 13.6653 34.85 13.7397C34.3867 13.9941 33.8514 14.3518 33.4817 14.6567C33.4265 14.7023 33.3545 14.7623 33.3233 14.7863C32.8023 15.216 32.1062 15.9458 31.7533 16.4332C31.7005 16.5052 31.6524 16.57 31.6452 16.5772C31.6164 16.6036 31.3788 16.9637 31.2323 17.2013C31.0907 17.4318 30.8242 17.9503 30.6922 18.2456C30.517 18.6393 30.3225 19.225 30.2289 19.65C30.2001 19.7748 30.1689 19.9092 30.1569 19.95C30.1449 19.9884 30.1233 20.1085 30.1089 20.2141C30.0945 20.3197 30.0729 20.4542 30.0608 20.5142C30.0344 20.6438 29.996 21.1167 29.9744 21.5824C29.96 21.9017 29.996 22.7227 30.0368 23.0588C30.0729 23.3421 30.1305 23.7166 30.1545 23.815C30.1689 23.8678 30.2073 24.0287 30.2433 24.1751C30.3225 24.5112 30.4305 24.8641 30.5074 25.0441C30.5266 25.0849 30.541 25.1257 30.541 25.1329C30.541 25.2098 30.8867 25.9635 31.0931 26.3356C31.1843 26.5013 31.3596 26.7869 31.3812 26.8038C31.3884 26.811 31.422 26.859 31.4532 26.9118C31.518 27.0222 31.5228 27.0294 31.8229 27.4207C32.423 28.2105 33.3185 29.0531 34.1299 29.5884C34.2355 29.6581 34.3507 29.7349 34.3867 29.7589C34.4227 29.7853 34.4588 29.8045 34.4684 29.8045C34.4756 29.8045 34.5116 29.8237 34.5452 29.8501C34.7084 29.9629 35.3614 30.2894 35.6591 30.4047C35.7287 30.4335 35.8199 30.4695 35.8583 30.4887C35.8991 30.5055 35.9639 30.5295 36.0023 30.5391C36.0431 30.5487 36.0864 30.5631 36.0984 30.5727C36.156 30.6159 36.8762 30.8128 37.2434 30.8872C37.8964 31.0192 38.3357 31.0576 39.1591 31.0576C40.1362 31.0576 40.6451 31 41.4997 30.7936C41.783 30.7239 42.3687 30.5415 42.508 30.4767C42.5344 30.4647 42.6256 30.4263 42.712 30.3927C42.7984 30.3566 42.9569 30.287 43.0673 30.2342C43.1777 30.1838 43.2714 30.1406 43.2762 30.1406C43.281 30.1406 43.377 30.0854 43.4922 30.0206C43.6074 29.9533 43.7059 29.9005 43.7107 29.9005C43.7539 29.9005 44.7477 29.2236 44.8005 29.1563C44.8077 29.1491 44.8942 29.0747 44.995 28.9931C45.3983 28.6666 46.0128 28.0497 46.3369 27.6464C46.3825 27.5887 46.4474 27.5071 46.481 27.4663C46.6538 27.2575 46.9971 26.7485 47.1867 26.4245C47.2732 26.2732 47.6189 25.5818 47.6741 25.4474C47.7317 25.3058 47.8781 24.8905 47.9333 24.7152C48.111 24.1367 48.1782 23.839 48.2454 23.2989C48.267 23.1476 48.2958 22.946 48.3126 22.8548C48.3534 22.6171 48.351 21.1791 48.3102 20.8743C48.2022 20.0965 48.183 19.9956 48.1014 19.674C48.0654 19.5347 48.027 19.3787 48.0149 19.3259C47.9837 19.1962 47.8997 18.9346 47.8589 18.841C47.8397 18.8001 47.8253 18.7521 47.8253 18.7377C47.8253 18.7209 47.7605 18.5529 47.6813 18.3632C47.5564 18.0632 47.4676 17.8807 47.2083 17.3934C47.1771 17.3334 47.0979 17.2037 47.0331 17.1053C46.9683 17.0069 46.8987 16.8941 46.8747 16.8557C46.7882 16.7044 46.3393 16.1163 46.1209 15.869C45.6191 15.3049 45.187 14.9064 44.5245 14.4022C44.4405 14.3374 43.9315 13.9965 43.8043 13.9197C43.545 13.7637 42.6856 13.3364 42.628 13.3364C42.6184 13.3364 42.5776 13.3196 42.5368 13.3004C42.3759 13.2283 41.963 13.0915 41.5597 12.9835C41.2068 12.8875 40.6283 12.7866 40.1434 12.7362C39.8361 12.7026 38.8807 12.6906 38.4894 12.7122ZM40.1194 15.216C40.297 15.2401 40.4819 15.2665 40.5275 15.2785C40.5731 15.2905 40.7099 15.3241 40.8323 15.3529C41.3077 15.4609 41.8406 15.6626 42.3231 15.9194C43.6002 16.594 44.8173 17.8951 45.3455 19.1578C45.3791 19.2371 45.4247 19.3451 45.4463 19.3979C45.5543 19.6452 45.6648 20.022 45.7488 20.4181C45.7656 20.5046 45.7872 20.591 45.7944 20.6102C45.8016 20.6294 45.8304 20.8503 45.8568 21.0999C45.9096 21.5968 45.9192 22.0722 45.8808 22.4299C45.8088 23.1092 45.8088 23.114 45.684 23.635C45.6576 23.7478 45.6264 23.8606 45.6167 23.887C45.6071 23.9134 45.5687 24.0215 45.5327 24.1271C45.4991 24.2327 45.4535 24.3527 45.4343 24.3959C45.4151 24.4368 45.4007 24.4752 45.4007 24.4824C45.4007 24.4896 45.3479 24.6072 45.2831 24.7464C44.4597 26.4941 42.7312 27.9512 40.9476 28.3953C40.8684 28.417 40.7339 28.4506 40.6475 28.4722C40.2346 28.573 39.4544 28.6378 38.8951 28.6162C38.6766 28.609 38.4822 28.597 38.463 28.5922C38.4437 28.5874 38.2949 28.5658 38.1317 28.5442C37.8316 28.5058 37.7836 28.4962 37.3827 28.3953C36.8401 28.2585 36.2568 28.0065 35.6903 27.668C34.9389 27.2191 34.0434 26.3548 33.5441 25.5986C33.2729 25.1857 33.0208 24.708 32.9056 24.3911C32.8816 24.3239 32.8527 24.2591 32.8455 24.2471C32.8359 24.2327 32.7975 24.1247 32.7615 24.007C32.7255 23.887 32.6919 23.7742 32.6847 23.755C32.6775 23.7358 32.6679 23.7022 32.6655 23.683C32.6631 23.6638 32.6367 23.5533 32.6079 23.4405C32.4158 22.6843 32.387 21.5992 32.5359 20.7062C32.5623 20.5406 32.5887 20.3845 32.5911 20.3581C32.5959 20.3317 32.6055 20.2933 32.6127 20.2741C32.6199 20.2549 32.6511 20.1517 32.6775 20.0461C32.7591 19.7484 32.8335 19.5323 32.9392 19.2779C33.1312 18.8217 33.5825 18.0608 33.8106 17.8039C33.8274 17.7847 33.885 17.7127 33.9378 17.6455C34.053 17.499 34.1899 17.3502 34.4203 17.1197C35.1741 16.3659 36.0023 15.8378 36.9146 15.5257C37.4475 15.3457 37.6083 15.3073 38.2229 15.2208C38.5662 15.1728 38.6982 15.1656 39.2071 15.1704C39.572 15.1752 39.9177 15.192 40.1194 15.216Z" fill="#505050"/>
<path d="M38.4748 15.9046C38.0547 15.9574 37.649 16.0486 37.2265 16.1879C36.5567 16.4087 35.8485 16.8024 35.3156 17.2489C35.0683 17.4554 34.6266 17.9115 34.4274 18.166C34.0745 18.6149 33.724 19.2318 33.5439 19.7216C33.5271 19.7672 33.5031 19.8272 33.4935 19.8536C33.3711 20.1489 33.2295 20.8018 33.2295 21.0731C33.2295 21.1499 33.2199 21.2075 33.2079 21.2003C33.1478 21.1619 33.1454 22.3766 33.2055 22.7343C33.3015 23.3297 33.4455 23.8362 33.6448 24.2947C33.9088 24.8973 34.2977 25.4974 34.7274 25.9607C35.0827 26.3448 35.5628 26.7529 35.8749 26.9354C35.8965 26.9474 35.9925 27.005 36.0838 27.0626C36.3598 27.2306 36.6815 27.3891 36.9504 27.4899C37.0368 27.5235 37.128 27.5595 37.1544 27.5715C37.2793 27.6267 37.6994 27.7324 38.1939 27.8332C38.4796 27.8908 39.1157 27.9172 39.5718 27.8884C40.0832 27.8548 40.3881 27.7996 40.9858 27.6339C41.1418 27.5907 41.4803 27.4587 41.6988 27.3555C41.7828 27.3147 41.8548 27.2835 41.862 27.2835C41.8764 27.2835 42.4238 26.969 42.4598 26.9426C42.4742 26.9306 42.6038 26.8369 42.7478 26.7313C43.0311 26.5273 43.0983 26.4697 43.396 26.1792C43.7705 25.8119 43.9145 25.6366 44.2314 25.1589C44.3586 24.9693 44.4163 24.8636 44.5747 24.5468C44.7739 24.1435 44.87 23.877 45.026 23.2985C45.0692 23.1376 45.1316 22.7439 45.1652 22.4222C45.1941 22.139 45.1773 21.3036 45.1364 21.0299C45.086 20.6866 44.9372 20.0504 44.8748 19.9016C44.8628 19.8752 44.8196 19.7624 44.7764 19.6495C44.6035 19.191 44.301 18.6725 43.9385 18.2092C43.5785 17.7531 42.9063 17.1289 42.4718 16.8456C42.3854 16.7904 42.2941 16.728 42.2677 16.7088C42.1669 16.632 41.4683 16.2959 41.2955 16.2383C41.2499 16.2239 41.1899 16.2047 41.1634 16.1927C40.9018 16.0822 40.3808 15.967 39.8431 15.9046C39.6415 15.8806 38.6788 15.8806 38.4748 15.9046Z" fill="#505050"/>
<path d="M18.702 34.9761H21.726C22.338 34.9761 22.815 35.1261 23.157 35.4261C23.505 35.7261 23.679 36.1371 23.679 36.6591C23.679 37.0491 23.589 37.3911 23.409 37.6851C23.235 37.9791 22.953 38.1801 22.563 38.2881V38.3061C22.749 38.3421 22.899 38.4021 23.013 38.4861C23.133 38.5701 23.226 38.6721 23.292 38.7921C23.364 38.9061 23.415 39.0351 23.445 39.1791C23.481 39.3231 23.508 39.4731 23.526 39.6291C23.538 39.7851 23.547 39.9441 23.553 40.1061C23.559 40.2681 23.574 40.4271 23.598 40.5831C23.622 40.7391 23.655 40.8891 23.697 41.0331C23.745 41.1711 23.814 41.2941 23.904 41.4021H22.95C22.89 41.3361 22.848 41.2461 22.824 41.1321C22.806 41.0181 22.794 40.8921 22.788 40.7541C22.782 40.6101 22.776 40.4571 22.77 40.2951C22.764 40.1331 22.746 39.9741 22.716 39.8181C22.692 39.6621 22.662 39.5151 22.626 39.3771C22.59 39.2331 22.533 39.1101 22.455 39.0081C22.377 38.9001 22.275 38.8161 22.149 38.7561C22.023 38.6901 21.855 38.6571 21.645 38.6571H19.557V41.4021H18.702V34.9761ZM21.339 37.9371C21.537 37.9371 21.726 37.9221 21.906 37.8921C22.086 37.8621 22.242 37.8051 22.374 37.7211C22.512 37.6311 22.62 37.5141 22.698 37.3701C22.782 37.2201 22.824 37.0281 22.824 36.7941C22.824 36.4701 22.734 36.2061 22.554 36.0021C22.374 35.7981 22.083 35.6961 21.681 35.6961H19.557V37.9371H21.339ZM27.9681 38.6301C27.9561 38.4501 27.9141 38.2791 27.8421 38.1171C27.7761 37.9551 27.6831 37.8171 27.5631 37.7031C27.4491 37.5831 27.3111 37.4901 27.1491 37.4241C26.9931 37.3521 26.8191 37.3161 26.6271 37.3161C26.4291 37.3161 26.2491 37.3521 26.0871 37.4241C25.9311 37.4901 25.7961 37.5831 25.6821 37.7031C25.5681 37.8231 25.4781 37.9641 25.4121 38.1261C25.3461 38.2821 25.3071 38.4501 25.2951 38.6301H27.9681ZM28.7061 39.9261C28.6041 40.4481 28.3791 40.8411 28.0311 41.1051C27.6831 41.3691 27.2451 41.5011 26.7171 41.5011C26.3451 41.5011 26.0211 41.4411 25.7451 41.3211C25.4751 41.2011 25.2471 41.0331 25.0611 40.8171C24.8751 40.6011 24.7341 40.3431 24.6381 40.0431C24.5481 39.7431 24.4971 39.4161 24.4851 39.0621C24.4851 38.7081 24.5391 38.3841 24.6471 38.0901C24.7551 37.7961 24.9051 37.5411 25.0971 37.3251C25.2951 37.1091 25.5261 36.9411 25.7901 36.8211C26.0601 36.7011 26.3541 36.6411 26.6721 36.6411C27.0861 36.6411 27.4281 36.7281 27.6981 36.9021C27.9741 37.0701 28.1931 37.2861 28.3551 37.5501C28.5231 37.8141 28.6371 38.1021 28.6971 38.4141C28.7631 38.7261 28.7901 39.0231 28.7781 39.3051H25.2951C25.2891 39.5091 25.3131 39.7041 25.3671 39.8901C25.4211 40.0701 25.5081 40.2321 25.6281 40.3761C25.7481 40.5141 25.9011 40.6251 26.0871 40.7091C26.2731 40.7931 26.4921 40.8351 26.7441 40.8351C27.0681 40.8351 27.3321 40.7601 27.5361 40.6101C27.7461 40.4601 27.8841 40.2321 27.9501 39.9261H28.7061ZM30.0391 39.9351C30.0451 40.1031 30.0841 40.2471 30.1561 40.3671C30.2281 40.4811 30.3211 40.5741 30.4351 40.6461C30.5551 40.7121 30.6871 40.7601 30.8311 40.7901C30.9811 40.8201 31.1341 40.8351 31.2901 40.8351C31.4101 40.8351 31.5361 40.8261 31.6681 40.8081C31.8001 40.7901 31.9201 40.7571 32.0281 40.7091C32.1421 40.6611 32.2351 40.5921 32.3071 40.5021C32.3791 40.4061 32.4151 40.2861 32.4151 40.1421C32.4151 39.9441 32.3401 39.7941 32.1901 39.6921C32.0401 39.5901 31.8511 39.5091 31.6231 39.4491C31.4011 39.3831 31.1581 39.3261 30.8941 39.2781C30.6301 39.2241 30.3841 39.1521 30.1561 39.0621C29.9341 38.9661 29.7481 38.8341 29.5981 38.6661C29.4481 38.4981 29.3731 38.2641 29.3731 37.9641C29.3731 37.7301 29.4241 37.5291 29.5261 37.3611C29.6341 37.1931 29.7691 37.0581 29.9311 36.9561C30.0991 36.8481 30.2851 36.7701 30.4891 36.7221C30.6991 36.6681 30.9061 36.6411 31.1101 36.6411C31.3741 36.6411 31.6171 36.6651 31.8391 36.7131C32.0611 36.7551 32.2561 36.8331 32.4241 36.9471C32.5981 37.0551 32.7361 37.2051 32.8381 37.3971C32.9401 37.5831 33.0001 37.8171 33.0181 38.0991H32.2531C32.2411 37.9491 32.2021 37.8261 32.1361 37.7301C32.0701 37.6281 31.9861 37.5471 31.8841 37.4871C31.7821 37.4271 31.6681 37.3851 31.5421 37.3611C31.4221 37.3311 31.2991 37.3161 31.1731 37.3161C31.0591 37.3161 30.9421 37.3251 30.8221 37.3431C30.7081 37.3611 30.6031 37.3941 30.5071 37.4421C30.4111 37.4841 30.3331 37.5441 30.2731 37.6221C30.2131 37.6941 30.1831 37.7901 30.1831 37.9101C30.1831 38.0421 30.2281 38.1531 30.3181 38.2431C30.4141 38.3271 30.5341 38.3991 30.6781 38.4591C30.8221 38.5131 30.9841 38.5611 31.1641 38.6031C31.3441 38.6391 31.5241 38.6781 31.7041 38.7201C31.8961 38.7621 32.0821 38.8131 32.2621 38.8731C32.4481 38.9331 32.6101 39.0141 32.7481 39.1161C32.8921 39.2121 33.0061 39.3351 33.0901 39.4851C33.1801 39.6351 33.2251 39.8211 33.2251 40.0431C33.2251 40.3251 33.1651 40.5591 33.0451 40.7451C32.9311 40.9311 32.7781 41.0811 32.5861 41.1951C32.4001 41.3091 32.1871 41.3871 31.9471 41.4291C31.7131 41.4771 31.4791 41.5011 31.2451 41.5011C30.9871 41.5011 30.7411 41.4741 30.5071 41.4201C30.2731 41.3661 30.0661 41.2791 29.8861 41.1591C29.7061 41.0331 29.5621 40.8711 29.4541 40.6731C29.3461 40.4691 29.2861 40.2231 29.2741 39.9351H30.0391ZM35.1331 36.7491H36.0601V37.4241H35.1331V40.3131C35.1331 40.4031 35.1391 40.4751 35.1511 40.5291C35.1691 40.5831 35.1991 40.6251 35.2411 40.6551C35.2831 40.6851 35.3401 40.7061 35.4121 40.7181C35.4901 40.7241 35.5891 40.7271 35.7091 40.7271H36.0601V41.4021H35.4751C35.2771 41.4021 35.1061 41.3901 34.9621 41.3661C34.8241 41.3361 34.7101 41.2851 34.6201 41.2131C34.5361 41.1411 34.4731 41.0391 34.4311 40.9071C34.3891 40.7751 34.3681 40.6011 34.3681 40.3851V37.4241H33.5761V36.7491H34.3681V35.3541H35.1331V36.7491ZM41.032 41.3841C40.9 41.4621 40.717 41.5011 40.483 41.5011C40.285 41.5011 40.126 41.4471 40.006 41.3391C39.892 41.2251 39.835 41.0421 39.835 40.7901C39.625 41.0421 39.379 41.2251 39.097 41.3391C38.821 41.4471 38.521 41.5011 38.197 41.5011C37.987 41.5011 37.786 41.4771 37.594 41.4291C37.408 41.3811 37.246 41.3061 37.108 41.2041C36.97 41.1021 36.859 40.9701 36.775 40.8081C36.697 40.6401 36.658 40.4391 36.658 40.2051C36.658 39.9411 36.703 39.7251 36.793 39.5571C36.883 39.3891 37 39.2541 37.144 39.1521C37.294 39.0441 37.462 38.9631 37.648 38.9091C37.84 38.8551 38.035 38.8101 38.233 38.7741C38.443 38.7321 38.641 38.7021 38.827 38.6841C39.019 38.6601 39.187 38.6301 39.331 38.5941C39.475 38.5521 39.589 38.4951 39.673 38.4231C39.757 38.3451 39.799 38.2341 39.799 38.0901C39.799 37.9221 39.766 37.7871 39.7 37.6851C39.64 37.5831 39.559 37.5051 39.457 37.4511C39.361 37.3971 39.25 37.3611 39.124 37.3431C39.004 37.3251 38.884 37.3161 38.764 37.3161C38.44 37.3161 38.17 37.3791 37.954 37.5051C37.738 37.6251 37.621 37.8561 37.603 38.1981H36.838C36.85 37.9101 36.91 37.6671 37.018 37.4691C37.126 37.2711 37.27 37.1121 37.45 36.9921C37.63 36.8661 37.834 36.7761 38.062 36.7221C38.296 36.6681 38.545 36.6411 38.809 36.6411C39.019 36.6411 39.226 36.6561 39.43 36.6861C39.64 36.7161 39.829 36.7791 39.997 36.8751C40.165 36.9651 40.3 37.0941 40.402 37.2621C40.504 37.4301 40.555 37.6491 40.555 37.9191V40.3131C40.555 40.4931 40.564 40.6251 40.582 40.7091C40.606 40.7931 40.678 40.8351 40.798 40.8351C40.864 40.8351 40.942 40.8201 41.032 40.7901V41.3841ZM39.79 38.9991C39.694 39.0711 39.568 39.1251 39.412 39.1611C39.256 39.1911 39.091 39.2181 38.917 39.2421C38.749 39.2601 38.578 39.2841 38.404 39.3141C38.23 39.3381 38.074 39.3801 37.936 39.4401C37.798 39.5001 37.684 39.5871 37.594 39.7011C37.51 39.8091 37.468 39.9591 37.468 40.1511C37.468 40.2771 37.492 40.3851 37.54 40.4751C37.594 40.5591 37.66 40.6281 37.738 40.6821C37.822 40.7361 37.918 40.7751 38.026 40.7991C38.134 40.8231 38.248 40.8351 38.368 40.8351C38.62 40.8351 38.836 40.8021 39.016 40.7361C39.196 40.6641 39.343 40.5771 39.457 40.4751C39.571 40.3671 39.655 40.2531 39.709 40.1331C39.763 40.0071 39.79 39.8901 39.79 39.7821V38.9991ZM45.596 41.4021H44.876V40.6641H44.858C44.696 40.9521 44.489 41.1651 44.237 41.3031C43.985 41.4351 43.688 41.5011 43.346 41.5011C43.04 41.5011 42.785 41.4621 42.581 41.3841C42.377 41.3001 42.212 41.1831 42.086 41.0331C41.96 40.8831 41.87 40.7061 41.816 40.5021C41.768 40.2921 41.744 40.0611 41.744 39.8091V36.7491H42.509V39.8991C42.509 40.1871 42.593 40.4151 42.761 40.5831C42.929 40.7511 43.16 40.8351 43.454 40.8351C43.688 40.8351 43.889 40.7991 44.057 40.7271C44.231 40.6551 44.375 40.5531 44.489 40.4211C44.603 40.2891 44.687 40.1361 44.741 39.9621C44.801 39.7821 44.831 39.5871 44.831 39.3771V36.7491H45.596V41.4021ZM46.7179 36.7491H47.4379V37.7301H47.4559C47.6419 37.3521 47.8699 37.0731 48.1399 36.8931C48.4099 36.7131 48.7519 36.6291 49.1659 36.6411V37.4511C48.8599 37.4511 48.5989 37.4931 48.3829 37.5771C48.1669 37.6611 47.9929 37.7841 47.8609 37.9461C47.7289 38.1081 47.6329 38.3061 47.5729 38.5401C47.5129 38.7681 47.4829 39.0321 47.4829 39.3321V41.4021H46.7179V36.7491ZM53.864 41.3841C53.732 41.4621 53.549 41.5011 53.315 41.5011C53.117 41.5011 52.958 41.4471 52.838 41.3391C52.724 41.2251 52.667 41.0421 52.667 40.7901C52.457 41.0421 52.211 41.2251 51.929 41.3391C51.653 41.4471 51.353 41.5011 51.029 41.5011C50.819 41.5011 50.618 41.4771 50.426 41.4291C50.24 41.3811 50.078 41.3061 49.94 41.2041C49.802 41.1021 49.691 40.9701 49.607 40.8081C49.529 40.6401 49.49 40.4391 49.49 40.2051C49.49 39.9411 49.535 39.7251 49.625 39.5571C49.715 39.3891 49.832 39.2541 49.976 39.1521C50.126 39.0441 50.294 38.9631 50.48 38.9091C50.672 38.8551 50.867 38.8101 51.065 38.7741C51.275 38.7321 51.473 38.7021 51.659 38.6841C51.851 38.6601 52.019 38.6301 52.163 38.5941C52.307 38.5521 52.421 38.4951 52.505 38.4231C52.589 38.3451 52.631 38.2341 52.631 38.0901C52.631 37.9221 52.598 37.7871 52.532 37.6851C52.472 37.5831 52.391 37.5051 52.289 37.4511C52.193 37.3971 52.082 37.3611 51.956 37.3431C51.836 37.3251 51.716 37.3161 51.596 37.3161C51.272 37.3161 51.002 37.3791 50.786 37.5051C50.57 37.6251 50.453 37.8561 50.435 38.1981H49.67C49.682 37.9101 49.742 37.6671 49.85 37.4691C49.958 37.2711 50.102 37.1121 50.282 36.9921C50.462 36.8661 50.666 36.7761 50.894 36.7221C51.128 36.6681 51.377 36.6411 51.641 36.6411C51.851 36.6411 52.058 36.6561 52.262 36.6861C52.472 36.7161 52.661 36.7791 52.829 36.8751C52.997 36.9651 53.132 37.0941 53.234 37.2621C53.336 37.4301 53.387 37.6491 53.387 37.9191V40.3131C53.387 40.4931 53.396 40.6251 53.414 40.7091C53.438 40.7931 53.51 40.8351 53.63 40.8351C53.696 40.8351 53.774 40.8201 53.864 40.7901V41.3841ZM52.622 38.9991C52.526 39.0711 52.4 39.1251 52.244 39.1611C52.088 39.1911 51.923 39.2181 51.749 39.2421C51.581 39.2601 51.41 39.2841 51.236 39.3141C51.062 39.3381 50.906 39.3801 50.768 39.4401C50.63 39.5001 50.516 39.5871 50.426 39.7011C50.342 39.8091 50.3 39.9591 50.3 40.1511C50.3 40.2771 50.324 40.3851 50.372 40.4751C50.426 40.5591 50.492 40.6281 50.57 40.6821C50.654 40.7361 50.75 40.7751 50.858 40.7991C50.966 40.8231 51.08 40.8351 51.2 40.8351C51.452 40.8351 51.668 40.8021 51.848 40.7361C52.028 40.6641 52.175 40.5771 52.289 40.4751C52.403 40.3671 52.487 40.2531 52.541 40.1331C52.595 40.0071 52.622 39.8901 52.622 39.7821V38.9991ZM54.576 36.7491H55.296V37.4871H55.314C55.632 36.9231 56.136 36.6411 56.826 36.6411C57.132 36.6411 57.387 36.6831 57.591 36.7671C57.795 36.8511 57.96 36.9681 58.086 37.1181C58.212 37.2681 58.299 37.4481 58.347 37.6581C58.401 37.8621 58.428 38.0901 58.428 38.3421V41.4021H57.663V38.2521C57.663 37.9641 57.579 37.7361 57.411 37.5681C57.243 37.4001 57.012 37.3161 56.718 37.3161C56.484 37.3161 56.28 37.3521 56.106 37.4241C55.938 37.4961 55.797 37.5981 55.683 37.7301C55.569 37.8621 55.482 38.0181 55.422 38.1981C55.368 38.3721 55.341 38.5641 55.341 38.7741V41.4021H54.576V36.7491ZM60.639 36.7491H61.566V37.4241H60.639V40.3131C60.639 40.4031 60.645 40.4751 60.657 40.5291C60.675 40.5831 60.705 40.6251 60.747 40.6551C60.789 40.6851 60.846 40.7061 60.918 40.7181C60.996 40.7241 61.095 40.7271 61.215 40.7271H61.566V41.4021H60.981C60.783 41.4021 60.612 41.3901 60.468 41.3661C60.33 41.3361 60.216 41.2851 60.126 41.2131C60.042 41.1411 59.979 41.0391 59.937 40.9071C59.895 40.7751 59.874 40.6011 59.874 40.3851V37.4241H59.082V36.7491H59.874V35.3541H60.639V36.7491Z" fill="#505050"/>
</svg>
