<svg width="24" height="24" viewBox="0 0 24 24" fill="none" xmlns="http://www.w3.org/2000/svg">
<mask id="mask0_123_2679" style="mask-type:luminance" maskUnits="userSpaceOnUse" x="2" y="2" width="20" height="20">
<path d="M22 2H2V22H22V2Z" fill="white"/>
</mask>
<g mask="url(#mask0_123_2679)">
<path d="M21.9803 7.88C21.9334 6.8175 21.7616 6.08687 21.5153 5.45375C21.2613 4.78187 20.8706 4.18031 20.3588 3.68C19.8584 3.17188 19.2528 2.77719 18.5888 2.5275C17.9519 2.28125 17.2253 2.10938 16.1625 2.0625C15.0919 2.01187 14.7519 2 12.0366 2C9.32125 2 8.98125 2.01187 7.91469 2.05844C6.85188 2.10531 6.12157 2.2775 5.48844 2.52344C4.81625 2.7775 4.21469 3.16812 3.71438 3.68C3.20657 4.18 2.81219 4.78562 2.56188 5.44969C2.31563 6.08656 2.14375 6.81313 2.09688 7.87594C2.04625 8.94656 2.03438 9.28656 2.03438 12.0019C2.03438 14.7172 2.04625 15.0572 2.09282 16.1237C2.13969 17.1866 2.31157 17.9172 2.55782 18.55C2.81188 19.2222 3.20625 19.8237 3.71407 20.3237C4.21438 20.8316 4.82 21.2262 5.48407 21.4762C6.12094 21.7225 6.8475 21.8944 7.91032 21.9409C8.97688 21.9881 9.31688 21.9997 12.0322 21.9997C14.7475 21.9997 15.0872 21.9881 16.1541 21.9409C17.2169 21.8941 17.9472 21.7222 18.5803 21.4762C19.9244 20.9566 20.9872 19.8938 21.5069 18.5497C21.7531 17.9128 21.925 17.1863 21.9719 16.1234C22.0188 15.0569 22.0303 14.7169 22.0303 12.0016C22.0303 9.28625 22.0263 8.94625 21.9797 7.87969L21.9803 7.88ZM20.1794 16.0456C20.1363 17.0225 19.9722 17.55 19.8356 17.9016C19.4997 18.7728 18.8081 19.4644 17.9369 19.8003C17.5853 19.9369 17.0541 20.1009 16.0809 20.1441C15.0259 20.1909 14.7097 20.2025 12.0413 20.2025C9.37282 20.2025 9.05219 20.1909 8.00125 20.1441C7.02438 20.1009 6.49688 19.9372 6.14532 19.8003C5.71188 19.64 5.31719 19.3862 4.99688 19.0541C4.66469 18.7297 4.41063 18.3391 4.25063 17.9053C4.11407 17.5538 3.95 17.0222 3.90688 16.0494C3.86 14.9944 3.84844 14.6781 3.84844 12.0094C3.84844 9.34062 3.86 9.02031 3.90688 7.96938C3.94969 6.9925 4.11375 6.46531 4.25063 6.11375C4.41094 5.68 4.665 5.28531 5.00094 4.965C5.325 4.63281 5.71563 4.37906 6.14938 4.21875C6.50094 4.08219 7.0325 3.91813 8.00532 3.875C9.06032 3.82812 9.37657 3.81656 12.045 3.81656C14.7134 3.81656 15.0341 3.82844 16.085 3.875C17.0619 3.91813 17.5894 4.08219 17.9409 4.21875C18.3744 4.37906 18.7691 4.63281 19.0894 4.965C19.4216 5.28937 19.6756 5.68 19.8356 6.11375C19.9722 6.46531 20.1363 6.99656 20.1794 7.96938C20.2263 9.02437 20.2378 9.34062 20.2378 12.0094C20.2378 14.6781 20.2259 14.9903 20.1794 16.0453V16.0456Z" fill="black"/>
</g>
<path d="M12.0372 6.86438C9.20062 6.86438 6.89937 9.16532 6.89937 12.0022C6.89937 14.8391 9.20062 17.14 12.0372 17.14C14.8737 17.14 17.1747 14.8388 17.1747 12.0022C17.1747 9.16563 14.8734 6.86438 12.0372 6.86438ZM12.0372 15.3347C10.1972 15.3347 8.70437 13.8425 8.70437 12.0022C8.70437 10.1619 10.1969 8.66938 12.0372 8.66938C13.8775 8.66938 15.3697 10.1619 15.3697 12.0022C15.3697 13.8425 13.8772 15.3347 12.0372 15.3347Z" fill="black"/>
<path d="M18.5775 6.66092C18.5775 7.32342 18.0403 7.8603 17.3778 7.8603C16.7153 7.8603 16.1784 7.32342 16.1784 6.66092C16.1784 5.99842 16.7156 5.46155 17.3778 5.46155C18.04 5.46155 18.5775 5.99842 18.5775 6.66092Z" fill="black"/>
</svg>
