<svg width="29" height="22" viewBox="0 0 29 22" fill="none" xmlns="http://www.w3.org/2000/svg">
<g clip-path="url(#clip0_655_2624)">
<path fill-rule="evenodd" clip-rule="evenodd" d="M3.03962 22.6416C3.03962 22.6416 3.0396 22.6416 3.03958 22.6416C3.03956 22.6416 3.03955 22.6416 3.03955 22.6416V21.6191C3.03955 21.6191 3.03957 21.6191 3.0396 21.6191C3.03961 21.6191 3.03962 21.6191 3.03962 21.6191V22.6416ZM5.82216 20.3774C6.05429 20.3774 6.25689 20.2094 6.26183 19.9773C6.26226 19.9573 6.26247 19.9373 6.26247 19.9173C6.26247 18.3916 5.02565 17.1548 3.49996 17.1548C3.47977 17.1548 3.45963 17.155 3.43955 17.1554C3.2075 17.1604 3.03955 17.363 3.03955 17.5951V17.7498C3.03955 17.9846 3.26514 18.1548 3.49996 18.1548C4.47337 18.1548 5.26247 18.9439 5.26247 19.9173C5.26247 20.1519 5.43256 20.3774 5.66721 20.3774H5.82216Z" fill="#505050"/>
<path fill-rule="evenodd" clip-rule="evenodd" d="M3.03962 26.3469C3.03962 26.3469 3.0396 26.347 3.03958 26.347C3.03957 26.347 3.03955 26.3469 3.03955 26.3469V25.344C3.03955 25.344 3.03957 25.344 3.03959 25.344C3.03961 25.344 3.03962 25.344 3.03962 25.344V26.3469ZM9.46907 20.3775C9.72854 20.3775 9.94586 20.1768 9.94586 19.9173C9.94586 16.3573 7.05995 13.4714 3.5 13.4714C3.24041 13.4714 3.03955 13.6889 3.03955 13.9485V14.0296C3.03955 14.2778 3.25188 14.4714 3.5 14.4714C6.50767 14.4714 8.94586 16.9096 8.94586 19.9173C8.94586 20.1653 9.13944 20.3775 9.38745 20.3775H9.46907Z" fill="#505050"/>
<path fill-rule="evenodd" clip-rule="evenodd" d="M5 1C3.89543 1 3 1.89543 3 3V6.52496C3 6.8011 3.22386 7.02496 3.5 7.02496C3.77614 7.02496 4 6.8011 4 6.52496V3C4 2.44772 4.44772 2 5 2H24.1001C24.6524 2 25.1001 2.44772 25.1001 3V18.4167C25.1001 18.969 24.6524 19.4167 24.1001 19.4167H16.8916C16.6155 19.4167 16.3916 19.6406 16.3916 19.9167C16.3916 20.1929 16.6155 20.4167 16.8916 20.4167H24.1001C25.2047 20.4167 26.1001 19.5213 26.1001 18.4167V3C26.1001 1.89543 25.2047 1 24.1001 1H5Z" fill="#505050"/>
<path fill-rule="evenodd" clip-rule="evenodd" d="M3.03962 30.0355C3.03962 30.0355 3.03961 30.0355 3.03959 30.0355C3.03957 30.0355 3.03955 30.0355 3.03955 30.0355V29.0344C3.03955 29.0344 3.03957 29.0344 3.03959 29.0344C3.03961 29.0344 3.03962 29.0344 3.03962 29.0344V30.0355ZM13.1584 20.377C13.416 20.377 13.6292 20.1742 13.6292 19.9166C13.6292 14.3224 9.09425 9.78735 3.50004 9.78735C3.24237 9.78735 3.03955 10.0006 3.03955 10.2583V10.3381C3.03955 10.5887 3.2494 10.7874 3.50004 10.7874C8.54196 10.7874 12.6292 14.8746 12.6292 19.9166C12.6292 20.1672 12.8278 20.377 13.0784 20.377H13.1584Z" fill="#505050"/>
</g>
<defs>
<clipPath id="clip0_655_2624">
<rect width="28" height="22" fill="white" transform="translate(0.5)"/>
</clipPath>
</defs>
</svg>
