<svg width="25" height="25" viewBox="0 0 25 25" fill="none" xmlns="http://www.w3.org/2000/svg">
<circle cx="12.5" cy="12.5" r="11.25" stroke="#444444" stroke-width="1.5"/>
<path d="M11.1875 13.8125L12.4453 18.316C12.4724 18.4043 12.5266 18.4818 12.6004 18.5373C12.6741 18.5929 12.7635 18.6237 12.8558 18.6253C12.9482 18.6269 13.0386 18.5993 13.1143 18.5464C13.19 18.4936 13.2469 18.4181 13.2771 18.3308L16.8471 8.70581C16.8734 8.6286 16.8775 8.54559 16.8591 8.46614C16.8407 8.38669 16.8004 8.31397 16.7429 8.25619C16.6853 8.19841 16.6128 8.15787 16.5334 8.13914C16.454 8.12041 16.371 8.12423 16.2937 8.15019L6.66867 11.7202C6.58141 11.7504 6.50593 11.8073 6.45304 11.883C6.40014 11.9587 6.37253 12.0491 6.37417 12.1414C6.37581 12.2338 6.40661 12.3232 6.46216 12.3969C6.51771 12.4707 6.59516 12.5249 6.68343 12.552L11.1875 13.8125Z" fill="#444444" stroke="#444444" stroke-width="1.4" stroke-linecap="round" stroke-linejoin="round"/>
</svg>
