<svg width="29" height="22" viewBox="0 0 29 22" fill="none" xmlns="http://www.w3.org/2000/svg">
<path fill-rule="evenodd" clip-rule="evenodd" d="M4.5 1.19995H24.6C25.4284 1.19995 26.1 1.87152 26.1 2.69995V19.2461C26.1 20.0745 25.4284 20.7461 24.6 20.7461H13.6217C13.6481 20.4535 13.6615 20.1571 13.6615 19.8576C13.6615 14.4601 9.28598 10.0846 3.88846 10.0846C3.58897 10.0846 3.29263 10.098 3 10.1244V2.69995C3 1.87152 3.67157 1.19995 4.5 1.19995ZM12.6171 20.7461H10.0447C10.0862 20.4559 10.1077 20.1593 10.1077 19.8576C10.1077 16.4229 7.32325 13.6384 3.88846 13.6384C3.58681 13.6384 3.29017 13.6599 3 13.7014V11.129C3.29216 11.0996 3.58855 11.0846 3.88846 11.0846C8.7337 11.0846 12.6615 15.0124 12.6615 19.8576C12.6615 20.1576 12.6465 20.4539 12.6171 20.7461ZM9.10769 19.8576C9.10769 20.1605 9.08189 20.4574 9.03237 20.7461H6.40218C6.5004 20.4682 6.55385 20.1692 6.55385 19.8576C6.55385 18.3856 5.36051 17.1923 3.88846 17.1923C3.57694 17.1923 3.27789 17.2457 3 17.3439V14.7137C3.28874 14.6642 3.58559 14.6384 3.88846 14.6384C6.77096 14.6384 9.10769 16.9751 9.10769 19.8576ZM5.29731 20.7461H4.5C3.67157 20.7461 3 20.0745 3 19.2461V18.4488C3.25712 18.2863 3.56181 18.1923 3.88846 18.1923C4.80823 18.1923 5.55385 18.9379 5.55385 19.8576C5.55385 20.1843 5.4598 20.489 5.29731 20.7461Z" fill="#505050"/>
</svg>
