<svg width="17" height="20" viewBox="0 0 17 20" fill="none" xmlns="http://www.w3.org/2000/svg">
<circle cx="13.5" cy="5.5" r="3" fill="#1F57BA" stroke="#1E52AF"/>
<path fill-rule="evenodd" clip-rule="evenodd" d="M6.00001 2C6.00001 0.89543 6.89544 0 8.00001 0C9.08128 0 9.96215 0.858065 9.99882 1.93041C9.40434 2.51356 8.9549 3.24404 8.70961 4.06275C8.47931 4.02152 8.24217 4 8.00001 4C5.79087 4 4.00001 5.79086 4.00001 8V9.5V11.5996C4.00001 12.0223 3.86609 12.4341 3.61748 12.776L3.45455 13L2.00001 15H4.473L7.00001 15H9.00001H9.00119H11.527H14L12.5455 13L12.3825 12.776C12.1339 12.4341 12 12.0223 12 11.5996V10.2711C12.4735 10.4198 12.9774 10.5 13.5 10.5C13.6687 10.5 13.8355 10.4916 14 10.4753L14 11.5996L15.6175 13.8237C16.0599 14.432 16.1236 15.2372 15.7822 15.9076C15.4409 16.5779 14.7523 17 14 17H11C11 18.6569 9.65686 20 8.00001 20C6.34315 20 5.00001 18.6569 5.00001 17H2.00001C1.24776 17 0.559133 16.5779 0.217778 15.9076C-0.123575 15.2372 -0.0599155 14.432 0.382537 13.8237L2.00001 11.5996L2.00001 9.5L2.00001 8C2.00001 5.38756 3.66962 3.16508 6.00001 2.34141V2ZM7.00001 17C7.00001 17.5523 7.44772 18 8.00001 18C8.55229 18 9.00001 17.5523 9.00001 17H7.00001Z" fill="black"/>
</svg>
