<svg width="26" height="26" viewBox="0 0 26 26" fill="none" xmlns="http://www.w3.org/2000/svg">
<path d="M10 11.5L13.5 15L22.5 6" stroke="#7D7D7D" stroke-width="1.5"/>
<path fill-rule="evenodd" clip-rule="evenodd" d="M17.9376 4.30205C16.481 3.47334 14.7958 3 13 3C7.47715 3 3 7.47715 3 13C3 18.5228 7.47715 23 13 23C18.2765 23 22.5986 18.9133 22.9736 13.7324L21.4606 13.8238C21.0463 18.1317 17.4165 21.5 13 21.5C8.30558 21.5 4.5 17.6944 4.5 13C4.5 8.30558 8.30558 4.5 13 4.5C14.3679 4.5 15.6603 4.82313 16.8052 5.39721L17.9376 4.30205Z" fill="#7D7D7D"/>
</svg>
