<svg width="29" height="22" viewBox="0 0 29 22" fill="none" xmlns="http://www.w3.org/2000/svg">
<g clip-path="url(#clip0_655_2754)">
<path d="M12.5626 9.22995C12.5626 8.74893 12.1644 8.35864 11.6735 8.35864C11.1827 8.35864 10.7844 8.74893 10.7844 9.22995C10.7844 9.71098 11.1827 10.1013 11.6735 10.1013C12.1644 10.1013 12.5626 9.71098 12.5626 9.22995Z" fill="#505050"/>
<path d="M11.6736 10.1796C11.1391 10.1796 10.7043 9.75356 10.7043 9.22984C10.7043 8.70611 11.1391 8.28003 11.6736 8.28003C12.208 8.28003 12.6428 8.70611 12.6428 9.22984C12.6428 9.75356 12.208 10.1796 11.6736 10.1796ZM11.6736 8.43702C11.2276 8.43702 10.8645 8.79277 10.8645 9.22984C10.8645 9.6669 11.2276 10.0227 11.6736 10.0227C12.1196 10.0227 12.4826 9.6669 12.4826 9.22984C12.4826 8.79277 12.1196 8.43702 11.6736 8.43702Z" fill="#505050"/>
<path d="M17.3215 11.8948C16.8306 11.8948 16.4324 12.2851 16.4324 12.7661C16.4324 13.2471 16.8306 13.6374 17.3215 13.6374C17.8123 13.6374 18.2106 13.2474 18.2106 12.7661C18.2106 12.2847 17.8127 11.8948 17.3215 11.8948Z" fill="#505050"/>
<path d="M17.3215 13.7158C16.7871 13.7158 16.3523 13.2897 16.3523 12.766C16.3523 12.2422 16.7871 11.8162 17.3215 11.8162C17.8559 11.8162 18.2907 12.2422 18.2907 12.766C18.2907 13.2897 17.8559 13.7158 17.3215 13.7158ZM17.3215 11.9732C16.8755 11.9732 16.5125 12.3289 16.5125 12.766C16.5125 13.203 16.8755 13.5588 17.3215 13.5588C17.7675 13.5588 18.1305 13.203 18.1305 12.766C18.1305 12.3289 17.7675 11.9732 17.3215 11.9732Z" fill="#505050"/>
<path d="M24.6524 12.151L24.3297 11.7199C23.9812 11.2502 23.9725 10.6137 24.3169 10.1355L24.6306 9.70002C25.1099 9.03374 24.8876 8.10685 24.1513 7.71814L23.672 7.46632C23.1488 7.19284 22.861 6.62076 22.9613 6.04396L23.0526 5.51867C23.1923 4.7158 22.5778 3.9726 21.7451 3.93837L21.2004 3.91702C20.6077 3.89128 20.0934 3.49848 19.9278 2.93896L19.7753 2.42622C19.5442 1.64031 18.6641 1.23464 17.8971 1.5593L17.3956 1.76842C16.851 1.9992 16.2146 1.8623 15.8183 1.4268L15.4566 1.02961C14.9032 0.423304 13.9312 0.427699 13.382 1.04657L13.0247 1.44815C12.6326 1.88805 12.0004 2.03342 11.4516 1.81112L10.946 1.60609C10.1745 1.2943 9.30297 1.71724 9.08061 2.50283L8.93707 3.01965C8.78008 3.58326 8.27449 3.98484 7.68175 4.01499L7.13706 4.04482C6.30466 4.09191 5.70327 4.8436 5.85578 5.64646L5.95607 6.17176C6.065 6.74415 5.78626 7.32063 5.26753 7.60259L4.7927 7.8632C4.06507 8.26039 3.85584 9.19167 4.3483 9.84947L4.67094 10.2806C5.01954 10.7503 5.02819 11.3867 4.68376 11.8649L4.37009 12.3004C3.89077 12.9667 4.11281 13.8936 4.84941 14.2823L5.32872 14.5341C5.85194 14.8076 6.13934 15.3797 6.03905 15.9565L5.94742 16.4818C5.80804 17.2847 6.42257 18.0279 7.25497 18.0621L7.79965 18.0834C8.39239 18.1092 8.90664 18.502 9.0726 19.0615L9.22511 19.5739C9.45612 20.3598 10.3366 20.7652 11.1036 20.4408L11.6047 20.2314C12.1494 20.0009 12.7857 20.1375 13.1824 20.5733L13.5441 20.9705C14.1019 21.5772 15.0737 21.5728 15.6184 20.9536L15.9759 20.552C16.3681 20.1121 17.0003 19.967 17.5491 20.189L18.0547 20.3941C18.8262 20.7058 19.6977 20.2829 19.9198 19.497L20.0636 18.9802C20.2203 18.4163 20.7262 18.015 21.3186 17.9852L21.8633 17.9553C22.6957 17.9082 23.2971 17.1566 23.1446 16.3537L23.0443 15.8284C22.9354 15.256 23.2144 14.6792 23.7328 14.3976L24.208 14.1369C24.9356 13.7442 25.1448 12.8132 24.6524 12.151ZM9.52501 9.22966C9.52501 8.06792 10.484 7.12847 11.6694 7.12847C12.8549 7.12847 13.8136 8.06792 13.8136 9.22966C13.8136 10.3914 12.8546 11.3309 11.6694 11.3309C10.4843 11.3309 9.52501 10.387 9.52501 9.22966ZM12.0834 14.6494C11.9005 14.8673 11.5692 14.8971 11.3468 14.7178C11.1244 14.5385 11.094 14.2139 11.277 13.996L16.9035 7.35454C17.0865 7.13695 17.4178 7.10681 17.6401 7.28641C17.8625 7.46569 17.8929 7.79035 17.71 8.00826L12.0834 14.6494ZM17.3216 14.8673C16.1365 14.8673 15.1775 13.9275 15.1775 12.7658C15.1775 11.604 16.1365 10.6646 17.3216 10.6646C18.5068 10.6646 19.4658 11.6043 19.4658 12.7658C19.4658 13.9272 18.5071 14.8673 17.3216 14.8673Z" fill="#505050"/>
<path d="M14.5755 21.5C14.1603 21.5 13.763 21.3267 13.4839 21.0227L13.1218 20.6255C12.7479 20.2152 12.1507 20.0858 11.6358 20.3037L11.1344 20.5131C10.7474 20.677 10.3071 20.6701 9.92681 20.494C9.54778 20.3185 9.2639 19.9913 9.1476 19.5957L8.99541 19.0833C8.83937 18.5564 8.35717 18.1859 7.79615 18.1617L7.25179 18.1404C6.83142 18.1231 6.43861 17.929 6.17364 17.6081C5.90963 17.2882 5.79813 16.8728 5.8683 16.4684L5.95993 15.9431C6.05445 15.4002 5.78531 14.8617 5.29094 14.6033L4.8113 14.3512C4.43995 14.1552 4.17178 13.813 4.07534 13.4124C3.97922 13.0126 4.06284 12.591 4.30442 12.2553L4.6181 11.8195C4.94074 11.3714 4.93593 10.7714 4.60592 10.3265L4.2836 9.8954C4.03593 9.56446 3.94493 9.14466 4.03433 8.74338C4.12404 8.34085 4.38613 7.99516 4.75395 7.7942L5.22878 7.53391C5.71963 7.26702 5.98044 6.7254 5.87791 6.18597L5.77762 5.66067C5.70073 5.25626 5.80518 4.83834 6.06406 4.51431C6.32327 4.18996 6.71287 3.99027 7.13292 3.9664L7.67792 3.93657C8.23702 3.90832 8.71217 3.53153 8.86052 2.99901L9.00406 2.48219C9.11684 2.08374 9.39815 1.75186 9.77654 1.57069C10.1527 1.39046 10.5904 1.37696 10.9774 1.53333L11.483 1.73836C12.0004 1.94779 12.5964 1.81026 12.9652 1.39612L13.3224 0.994528C13.5983 0.683368 13.9975 0.502826 14.4172 0.5C14.4207 0.5 14.4239 0.5 14.4275 0.5C14.8427 0.5 15.239 0.673634 15.5162 0.977258L15.8779 1.37445C16.2515 1.78514 16.8487 1.91451 17.3639 1.69629L17.8657 1.48686C18.2527 1.32296 18.693 1.32986 19.073 1.5057C19.452 1.68121 19.7359 2.0087 19.8522 2.40401L20.0047 2.91643C20.1607 3.4433 20.6426 3.81381 21.2039 3.83798L21.7483 3.85933C22.1687 3.8766 22.5618 4.07065 22.8268 4.39154C23.0908 4.71149 23.202 5.1269 23.1315 5.53131L23.0402 6.05661C22.9456 6.59949 23.2148 7.13766 23.7095 7.39638L24.1888 7.64852C24.5605 7.84476 24.8286 8.187 24.9248 8.58765C25.0209 8.98704 24.9372 9.40903 24.6957 9.74468L24.382 10.1805C24.0594 10.6286 24.0642 11.2286 24.3942 11.6735L24.7168 12.1046C24.9658 12.4393 25.0561 12.8626 24.9648 13.2654C24.8741 13.6654 24.612 14.008 24.2461 14.2055L23.7713 14.4658C23.2801 14.7327 23.0197 15.2743 23.1222 15.8137L23.2225 16.339C23.2994 16.7437 23.1949 17.1617 22.936 17.4857C22.6768 17.81 22.2872 18.0097 21.8672 18.0336L21.3222 18.0634C20.7631 18.0917 20.2879 18.4682 20.1399 19.001L19.996 19.5178C19.8836 19.9159 19.6023 20.2481 19.2242 20.4293C18.848 20.6095 18.4104 20.623 18.0233 20.4667L17.5174 20.2616C17 20.0522 16.4043 20.1897 16.0352 20.6036L15.6777 21.0052C15.405 21.3151 15.0087 21.4956 14.5912 21.5C14.5858 21.5 14.5809 21.5 14.5755 21.5ZM12.1513 20.0419C12.5586 20.0419 12.9575 20.2092 13.2414 20.521L13.6031 20.9179C13.8549 21.192 14.2147 21.3452 14.5896 21.343C14.9613 21.3389 15.314 21.1785 15.5569 20.9022L15.9148 20.5003C16.329 20.0356 16.9977 19.8814 17.5789 20.1166L18.0845 20.3216C18.429 20.461 18.8189 20.4488 19.154 20.2883C19.4908 20.1269 19.7416 19.8309 19.8419 19.4764L19.9858 18.9599C20.1521 18.3617 20.6859 17.9385 21.3142 17.9071L21.8585 17.8772C22.2324 17.8562 22.5794 17.6782 22.8104 17.3893C23.0411 17.1007 23.134 16.7287 23.0655 16.3685L22.9652 15.8432C22.8498 15.2372 23.1427 14.6287 23.6938 14.3292L24.1686 14.0686C24.4948 13.8924 24.7277 13.5876 24.8088 13.2315C24.8901 12.8726 24.8097 12.4958 24.5877 12.1975L24.265 11.7664C23.8943 11.2669 23.8889 10.5934 24.2513 10.0904L24.5649 9.65489C24.7803 9.35597 24.8546 8.98013 24.769 8.62438C24.6832 8.26738 24.4442 7.96219 24.1132 7.78761L23.6342 7.53579C23.0786 7.24536 22.7765 6.64093 22.8825 6.03117L22.9738 5.50588C23.0363 5.14605 22.9376 4.77617 22.7025 4.49139C22.4666 4.20535 22.1164 4.03265 21.7422 4.01727L21.1975 3.99592C20.5673 3.9686 20.0261 3.55288 19.8512 2.96133L19.6987 2.44891C19.5952 2.09662 19.3424 1.80493 19.005 1.64887C18.6664 1.4922 18.2745 1.48623 17.9291 1.63223L17.4274 1.84166C16.8491 2.08657 16.1785 1.94119 15.7587 1.47995L15.397 1.08276C15.1503 0.812416 14.7975 0.657935 14.4278 0.657935C14.4249 0.657935 14.4217 0.657935 14.4185 0.657935C14.0446 0.660447 13.689 0.821207 13.4426 1.09908L13.0853 1.50067C12.671 1.96537 12.0024 2.11985 11.4212 1.88468L10.9156 1.67964C10.5711 1.54024 10.1812 1.55248 9.84607 1.71293C9.50901 1.87432 9.25813 2.1704 9.15785 2.52489L9.01431 3.0414C8.8477 3.63954 8.31359 4.0628 7.68593 4.09451L7.14157 4.12434C6.76766 4.14538 6.42067 4.32341 6.18966 4.61227C5.95897 4.90083 5.86606 5.2729 5.93462 5.63304L6.03491 6.15834C6.15025 6.76433 5.8574 7.37284 5.30632 7.67206L4.83148 7.93236C4.50371 8.11133 4.27014 8.41935 4.19036 8.77792C4.1109 9.13524 4.19164 9.50888 4.4124 9.80371L4.73504 10.2348C5.10542 10.7344 5.11119 11.4079 4.74882 11.9109L4.43515 12.3467C4.21984 12.6459 4.14551 13.0214 4.23105 13.3775C4.31692 13.7345 4.55594 14.0394 4.88691 14.2143L5.36623 14.4661C5.92148 14.7565 6.22362 15.3609 6.11757 15.9707L6.02594 16.496C5.96346 16.8558 6.06246 17.2257 6.29763 17.5108C6.53345 17.7965 6.88333 17.9692 7.25755 17.9846L7.80223 18.006C8.43246 18.0333 8.97362 18.449 9.14888 19.0405L9.30107 19.553C9.40456 19.9053 9.65767 20.197 9.99505 20.353C10.3337 20.5097 10.7259 20.516 11.071 20.3697L11.5724 20.1602C11.7595 20.0811 11.9565 20.0419 12.1513 20.0419ZM17.3216 14.9459C16.0952 14.9459 15.0974 13.9678 15.0974 12.7659C15.0974 11.5639 16.0952 10.5862 17.3216 10.5862C18.5481 10.5862 19.5459 11.5639 19.5459 12.7659C19.5459 13.9678 18.5481 14.9459 17.3216 14.9459ZM17.3216 10.7432C16.1836 10.7432 15.2576 11.6506 15.2576 12.7659C15.2576 13.8811 16.1836 14.7889 17.3216 14.7889C18.4597 14.7889 19.3857 13.8814 19.3857 12.7659C19.3857 11.6503 18.4597 10.7432 17.3216 10.7432ZM11.6794 14.9135C11.5394 14.9135 11.4051 14.8664 11.2959 14.7785C11.1719 14.6783 11.0953 14.5364 11.0803 14.3788C11.0652 14.2215 11.1129 14.0676 11.2151 13.9461L16.8417 7.30439C16.9436 7.18319 17.0884 7.10815 17.2492 7.09339C17.4098 7.07863 17.5668 7.12573 17.6908 7.22589C17.8147 7.32574 17.8913 7.46766 17.9064 7.62559C17.9214 7.7829 17.8734 7.93644 17.7715 8.05827L12.1449 14.6997C12.0431 14.8209 11.8982 14.8959 11.7374 14.911C11.7182 14.9129 11.6986 14.9135 11.6794 14.9135ZM17.3072 7.24787C17.2931 7.24787 17.279 7.2485 17.2646 7.24975C17.1464 7.26074 17.0403 7.31569 16.9654 7.40455L11.3388 14.0463C11.2638 14.1355 11.2289 14.2482 11.2398 14.364C11.251 14.4799 11.3071 14.5841 11.3978 14.6573C11.4891 14.7308 11.6041 14.7653 11.7223 14.7546C11.8406 14.7437 11.9466 14.6887 12.0216 14.5998L17.6481 7.95842C17.7231 7.86925 17.7584 7.75621 17.7471 7.64067C17.7359 7.5248 17.6799 7.42088 17.5892 7.3474C17.5091 7.28272 17.4104 7.24787 17.3072 7.24787ZM11.6695 11.4094C10.443 11.4094 9.44493 10.4317 9.44493 9.22975C9.44493 8.02781 10.443 7.05006 11.6695 7.05006C12.896 7.05006 13.8937 8.02781 13.8937 9.22975C13.8937 10.4317 12.896 11.4094 11.6695 11.4094ZM11.6695 7.20705C10.5311 7.20705 9.60513 8.11447 9.60513 9.22975C9.60513 10.345 10.5311 11.2524 11.6695 11.2524C12.8079 11.2524 13.7335 10.345 13.7335 9.22975C13.7335 8.11447 12.8075 7.20705 11.6695 7.20705Z" fill="#505050"/>
</g>
<defs>
<clipPath id="clip0_655_2754">
<rect width="21" height="21" fill="white" transform="translate(4 0.5)"/>
</clipPath>
</defs>
</svg>
