<svg width="31" height="22" viewBox="0 0 31 22" fill="none" xmlns="http://www.w3.org/2000/svg">
<path d="M29.1022 0.0499153C28.6064 0.194775 28.2136 0.506781 27.8542 1.04443C27.8124 1.10572 27.779 1.16979 27.779 1.18651C27.779 1.20322 27.7706 1.22272 27.7595 1.22829C27.6871 1.25894 27.4001 1.99438 27.2748 2.47632C27.1522 2.93875 27.0213 3.78841 26.9683 4.46814C26.921 5.10886 26.9043 6.61039 26.9405 7.17033C26.9572 7.4294 26.9851 7.87513 27.0018 8.15928C27.0185 8.44064 27.0352 8.71086 27.0408 8.75821C27.0491 8.80279 27.0658 9.02286 27.0826 9.24572C27.0965 9.46858 27.1216 9.73045 27.1383 9.83073C27.1522 9.93102 27.1717 10.0954 27.1828 10.1985L27.1996 10.3879H27.7706H28.3417L28.325 10.686C28.3139 10.8531 28.2944 11.1066 28.2777 11.2515C28.2637 11.3963 28.2331 11.6916 28.2108 11.9061C28.169 12.2878 28.0938 12.9424 28.0158 13.5497C27.779 15.4134 27.6871 16.2296 27.6286 17.0041C27.6035 17.3105 27.5729 17.7005 27.5561 17.8704C27.5199 18.2632 27.5199 19.6088 27.5561 19.8539C27.5701 19.957 27.5951 20.1464 27.6091 20.2773C27.6258 20.4083 27.6453 20.5448 27.6536 20.5838C27.662 20.6228 27.6815 20.7203 27.6982 20.8011C27.7344 20.9961 27.8988 21.3944 28.0019 21.5477C28.1133 21.7092 28.3668 21.9126 28.5117 21.9544C28.6788 22.0045 29.0215 21.9962 29.1552 21.9377C29.3697 21.8429 29.5563 21.6034 29.7597 21.1549C29.8516 20.9599 29.9881 20.2773 30.041 19.762C30.1218 18.9764 30.0661 16.3411 29.9519 15.4719C29.938 15.3633 29.9213 15.171 29.9101 15.0401C29.9018 14.9092 29.8823 14.7142 29.8683 14.6083C29.8516 14.4997 29.821 14.2183 29.7987 13.9815C29.7597 13.5832 29.7095 13.1402 29.6065 12.2961C29.5842 12.1123 29.548 11.7863 29.5229 11.5718C29.4978 11.3573 29.4644 11.101 29.4505 11.0008C29.3251 10.2207 29.3279 10.2765 29.3195 5.003C29.314 2.25067 29.3 -0.00301361 29.2889 -0.000228882C29.2777 -0.000228882 29.1942 0.0220566 29.1022 0.0499153Z" fill="black" fill-opacity="0.87"/>
<path d="M3.52866 0.40395C3.52031 0.465237 3.50081 0.56831 3.48688 0.637955C3.45066 0.807886 3.40609 2.34563 3.38102 4.10066L3.36152 5.54647L3.28352 5.61333C3.1693 5.71083 2.97987 5.70804 2.8768 5.60219L2.79879 5.52697L2.78208 4.57981C2.77094 4.05887 2.76258 3.43208 2.76258 3.18693C2.76258 2.94178 2.75144 2.50999 2.73472 2.22584C2.71801 1.94169 2.69293 1.4709 2.67901 1.18118C2.64836 0.651882 2.59822 0.289734 2.55922 0.351021C2.484 0.470808 2.43664 1.59626 2.41436 3.77472L2.39207 5.53533L2.32521 5.60776C2.23607 5.70526 2.0745 5.70804 1.96306 5.61333L1.88506 5.54647L1.86835 3.47386C1.85442 1.85533 1.84049 1.29539 1.80149 0.902601C1.75413 0.373306 1.72349 0.245161 1.69006 0.42345C1.67892 0.479166 1.67613 0.56831 1.6817 0.621239C1.68727 0.67417 1.68449 0.713169 1.67334 0.704813C1.63434 0.682526 1.62042 0.793957 1.58977 1.39011C1.54799 2.2342 1.53684 2.69663 1.51456 4.21209L1.49506 5.54647L1.41705 5.61333C1.30005 5.71362 1.11341 5.70804 1.00476 5.5994L0.923974 5.51861V4.92246C0.923974 4.0728 0.871045 1.71326 0.840401 1.15332C0.812544 0.663027 0.767971 0.33152 0.728971 0.33152C0.662112 0.33152 0.514467 1.30654 0.408608 2.43477C0.386322 2.67992 0.355678 2.98078 0.338964 3.10336C0.26932 3.63544 0.224747 3.96416 0.171818 4.32909C0.14396 4.54359 0.10496 4.84446 0.0882449 4.99767C0.0715303 5.15089 0.0464585 5.36818 0.0325296 5.47961C-0.0315429 5.94762 0.00188622 6.59949 0.107745 7.087C0.202461 7.51879 0.436465 7.98123 0.715042 8.27652C0.837616 8.41024 1.18026 8.67767 1.35298 8.78074C1.52013 8.87824 1.58141 9.00917 1.62042 9.36018C1.65663 9.67219 1.63434 10.533 1.57584 11.0149C1.55356 11.1988 1.51734 11.5191 1.49506 11.7253C1.4087 12.5192 1.3697 12.8591 1.34184 13.0207C1.32512 13.1126 1.30005 13.2937 1.28612 13.4246C1.27219 13.5555 1.23319 13.862 1.20255 14.1071C1.17191 14.3523 1.13012 14.7283 1.10783 14.9429C1.08276 15.1574 1.05769 15.3691 1.04933 15.4164C1.02705 15.5223 0.965761 16.1491 0.893331 17.0043C0.820901 17.8595 0.790258 19.3499 0.840401 19.804C0.923974 20.584 0.988047 20.8765 1.16634 21.2777C1.40313 21.8125 1.80706 22.066 2.29736 21.9853C2.64001 21.9268 2.85729 21.7652 3.04116 21.4337C3.25566 21.0437 3.35038 20.6787 3.43395 19.9238C3.48409 19.4558 3.48966 19.2664 3.47852 18.634C3.46459 17.9069 3.4033 16.8678 3.34759 16.4054C3.33087 16.2744 3.30023 15.9792 3.27516 15.7507C3.22223 15.2576 3.17487 14.8286 3.09966 14.2186C3.06901 13.9734 3.02444 13.6224 3.00215 13.4385C2.91858 12.7532 2.87401 12.4022 2.84615 12.2128C2.69851 11.2211 2.61493 9.71954 2.67901 9.26546C2.72358 8.96739 2.77094 8.89496 3.05508 8.70553C3.38659 8.48545 3.71531 8.14837 3.88524 7.85865C3.95767 7.73329 4.01617 7.62186 4.01617 7.61072C4.01617 7.59679 4.03567 7.55501 4.05517 7.51322C4.23068 7.17893 4.33375 6.25684 4.26968 5.62447C4.22511 5.19825 4.15546 4.61324 4.11089 4.28731C4.00224 3.53515 3.95767 3.173 3.91867 2.76906C3.89638 2.52392 3.87131 2.28434 3.86296 2.23977C3.8546 2.19241 3.82953 1.97512 3.80724 1.75226C3.72924 1.03075 3.61781 0.367735 3.56209 0.314806C3.55374 0.303663 3.53702 0.345449 3.52866 0.40395Z" fill="black" fill-opacity="0.87"/>
<path d="M14.4933 0.359627C14.2704 0.37077 14.0002 0.395842 13.8943 0.412556C13.7857 0.42927 13.5767 0.4627 13.4319 0.484985C13.0642 0.540701 12.5906 0.646559 12.1922 0.763561C11.8802 0.852707 11.4484 1.00035 11.4122 1.02821C11.3983 1.03935 11.337 1.06442 11.2785 1.08393C11.2172 1.10343 11.1364 1.13407 11.0974 1.15635C11.0556 1.17864 11.0111 1.19535 10.9999 1.19535C10.9804 1.19535 10.426 1.46557 10.27 1.55193C9.73239 1.84722 9.11116 2.2623 8.68215 2.61609C8.61808 2.66903 8.53451 2.73867 8.49829 2.76653C7.89378 3.26518 7.08591 4.11205 6.6764 4.67756C6.61512 4.76113 6.5594 4.83635 6.55104 4.84471C6.51761 4.87535 6.24182 5.29321 6.07189 5.56901C5.90753 5.83644 5.59831 6.43816 5.4451 6.78081C5.24173 7.23768 5.01609 7.91741 4.90744 8.41049C4.87401 8.55534 4.8378 8.71135 4.82387 8.75871C4.80994 8.80328 4.78487 8.94257 4.76815 9.06514C4.75144 9.18771 4.72637 9.34372 4.71244 9.41336C4.6818 9.56379 4.63722 10.1126 4.61215 10.653C4.59544 11.0235 4.63722 11.9763 4.68458 12.3663C4.72637 12.695 4.79323 13.1296 4.82108 13.2438C4.8378 13.3051 4.88237 13.4917 4.92416 13.6617C5.01609 14.0517 5.14145 14.4612 5.23059 14.6701C5.25288 14.7175 5.26959 14.7648 5.26959 14.7732C5.26959 14.8623 5.67074 15.737 5.91032 16.1688C6.01618 16.3611 6.21954 16.6926 6.24461 16.7121C6.25297 16.7204 6.29197 16.7761 6.32818 16.8374C6.4034 16.9656 6.40897 16.9739 6.75719 17.428C7.45363 18.3445 8.49272 19.3223 9.43431 19.9435C9.55688 20.0243 9.6906 20.1135 9.73239 20.1413C9.77417 20.172 9.81596 20.1943 9.8271 20.1943C9.83546 20.1943 9.87725 20.2166 9.91625 20.2472C10.1057 20.3781 10.8634 20.757 11.2088 20.8907C11.2896 20.9241 11.3955 20.9659 11.4401 20.9882C11.4874 21.0077 11.5626 21.0356 11.6072 21.0467C11.6546 21.0579 11.7047 21.0746 11.7186 21.0857C11.7855 21.1359 12.6212 21.3643 13.0474 21.4506C13.8052 21.6039 14.315 21.6484 15.2705 21.6484C16.4043 21.6484 16.9949 21.5816 17.9866 21.342C18.3153 21.2612 18.9951 21.0495 19.1566 20.9743C19.1873 20.9604 19.2931 20.9158 19.3934 20.8768C19.4937 20.835 19.6776 20.7542 19.8057 20.6929C19.9339 20.6344 20.0425 20.5843 20.0481 20.5843C20.0536 20.5843 20.1651 20.5202 20.2988 20.445C20.4325 20.367 20.5467 20.3057 20.5523 20.3057C20.6024 20.3057 21.7557 19.5201 21.817 19.4421C21.8254 19.4338 21.9257 19.3474 22.0427 19.2527C22.5107 18.8738 23.2238 18.1579 23.5999 17.6899C23.6529 17.623 23.7281 17.5283 23.7671 17.4809C23.9676 17.2386 24.366 16.648 24.5861 16.2719C24.6864 16.0964 25.0875 15.2941 25.1516 15.1381C25.2185 14.9737 25.3884 14.4918 25.4525 14.2884C25.6586 13.6171 25.7366 13.2716 25.8146 12.6448C25.8397 12.4693 25.8731 12.2353 25.8926 12.1295C25.94 11.8537 25.9372 10.185 25.8898 9.83122C25.7645 8.92864 25.7422 8.81164 25.6475 8.43834C25.6057 8.27677 25.5611 8.09569 25.5472 8.03441C25.511 7.88398 25.4135 7.58033 25.3661 7.47168C25.3438 7.42432 25.3271 7.36861 25.3271 7.35189C25.3271 7.33239 25.2519 7.13739 25.16 6.91732C25.0151 6.56909 24.912 6.35738 24.6112 5.79187C24.5749 5.72222 24.483 5.57179 24.4078 5.45757C24.3326 5.34336 24.2518 5.21243 24.2239 5.16786C24.1236 4.99235 23.6027 4.30984 23.3492 4.02291C22.767 3.36825 22.2655 2.90582 21.4967 2.3208C21.3992 2.24559 20.8086 1.85001 20.6609 1.76087C20.3601 1.57979 19.3628 1.08393 19.2959 1.08393C19.2848 1.08393 19.2374 1.06442 19.1901 1.04214C19.0034 0.958565 18.5243 0.799776 18.0563 0.674417C17.6467 0.562986 16.9754 0.445984 16.4126 0.387484C16.0561 0.348482 14.9473 0.334555 14.4933 0.359627ZM16.3848 3.26518C16.5909 3.29304 16.8054 3.32368 16.8584 3.33761C16.9113 3.35154 17.0701 3.39054 17.2122 3.42397C17.7637 3.54933 18.3822 3.78333 18.9421 4.08141C20.4242 4.86421 21.8365 6.37409 22.4494 7.8394C22.4884 7.93133 22.5413 8.05669 22.5664 8.11798C22.6918 8.40491 22.8199 8.84228 22.9174 9.30193C22.9369 9.40222 22.962 9.5025 22.9703 9.52479C22.9787 9.54708 23.0121 9.80337 23.0428 10.0931C23.1041 10.6697 23.1152 11.2213 23.0706 11.6364C22.9871 12.4248 22.9871 12.4303 22.8422 13.0349C22.8116 13.1658 22.7753 13.2967 22.7642 13.3274C22.753 13.358 22.7085 13.4834 22.6667 13.6059C22.6277 13.7285 22.5748 13.8678 22.5525 13.9179C22.5302 13.9653 22.5135 14.0099 22.5135 14.0182C22.5135 14.0266 22.4522 14.1631 22.377 14.3247C21.4215 16.3527 19.4157 18.0437 17.3459 18.559C17.254 18.5841 17.0979 18.6231 16.9977 18.6482C16.5185 18.7652 15.6131 18.8404 14.9641 18.8153C14.7105 18.807 14.4849 18.793 14.4626 18.7875C14.4403 18.7819 14.2676 18.7568 14.0782 18.7317C13.73 18.6872 13.6742 18.676 13.209 18.559C12.5794 18.4002 11.9025 18.1077 11.2451 17.7149C10.3731 17.194 9.33402 16.1911 8.75458 15.3136C8.43979 14.8345 8.14729 14.2801 8.01357 13.9124C7.98571 13.8344 7.95228 13.7592 7.94393 13.7452C7.93278 13.7285 7.88821 13.6032 7.84642 13.4666C7.80464 13.3274 7.76564 13.1964 7.75728 13.1741C7.74892 13.1519 7.73778 13.1129 7.73499 13.0906C7.73221 13.0683 7.70156 12.9401 7.66814 12.8092C7.44527 11.9317 7.41184 10.6725 7.58456 9.63622C7.61521 9.444 7.64585 9.26293 7.64863 9.23229C7.65421 9.20164 7.66535 9.15707 7.67371 9.13478C7.68206 9.1125 7.71828 8.99271 7.74892 8.87014C7.84364 8.5247 7.93 8.27398 8.05257 7.97869C8.27543 7.4494 8.79916 6.56631 9.0638 6.26823C9.0833 6.24595 9.15016 6.16237 9.21145 6.08437C9.34517 5.91444 9.50395 5.74172 9.77139 5.47429C10.6461 4.59956 11.6072 3.98669 12.6658 3.62454C13.2842 3.41561 13.4709 3.37104 14.184 3.27075C14.5824 3.21503 14.7356 3.20668 15.3262 3.21225C15.7496 3.21782 16.1508 3.23732 16.3848 3.26518Z" fill="black" fill-opacity="0.87"/>
<path d="M14.4762 4.06421C13.9887 4.1255 13.5179 4.23136 13.0276 4.39294C12.2503 4.64923 11.4285 5.10609 10.8101 5.62424C10.5232 5.86382 10.0106 6.39311 9.77936 6.68841C9.36985 7.20934 8.96313 7.92528 8.7542 8.49358C8.7347 8.54651 8.70684 8.61615 8.6957 8.6468C8.55363 8.98945 8.38927 9.74717 8.38927 10.062C8.38927 10.1511 8.37812 10.218 8.36419 10.2096C8.29455 10.165 8.29176 11.5746 8.36141 11.9897C8.47284 12.6806 8.63998 13.2684 8.8712 13.8005C9.17764 14.4997 9.62893 15.1961 10.1276 15.7338C10.5399 16.1795 11.097 16.6531 11.4592 16.8648C11.4842 16.8787 11.5957 16.9456 11.7015 17.0124C12.0219 17.2075 12.3952 17.3913 12.7072 17.5083C12.8075 17.5473 12.9133 17.5891 12.944 17.603C13.0888 17.6671 13.5764 17.7897 14.1502 17.9067C14.4817 17.9735 15.22 18.0042 15.7493 17.9708C16.3426 17.9318 16.6964 17.8677 17.3901 17.6755C17.5711 17.6253 17.9639 17.4721 18.2174 17.3523C18.3149 17.305 18.3985 17.2687 18.4069 17.2687C18.4236 17.2687 19.0587 16.9038 19.1005 16.8732C19.1172 16.8592 19.2677 16.7506 19.4348 16.628C19.7635 16.3912 19.8415 16.3244 20.187 15.9873C20.6216 15.5611 20.7887 15.3577 21.1564 14.8033C21.3041 14.5833 21.3709 14.4607 21.5548 14.093C21.786 13.625 21.8974 13.3157 22.0785 12.6444C22.1287 12.4577 22.2011 12.0009 22.2401 11.6276C22.2735 11.2988 22.254 10.3294 22.2067 10.0118C22.1482 9.61346 21.9754 8.87523 21.903 8.70251C21.8891 8.67187 21.8389 8.54094 21.7888 8.41001C21.5882 7.87793 21.2372 7.2762 20.8166 6.73855C20.3987 6.20925 19.6187 5.48495 19.1145 5.15623C19.0142 5.09216 18.9083 5.01973 18.8777 4.99745C18.7607 4.9083 17.95 4.51829 17.7494 4.45144C17.6965 4.43472 17.6269 4.41244 17.5962 4.39851C17.2926 4.27036 16.6881 4.13665 16.064 4.06421C15.83 4.03636 14.713 4.03636 14.4762 4.06421Z" fill="black" fill-opacity="0.87"/>
</svg>
