<svg width="29" height="22" viewBox="0 0 29 22" fill="none" xmlns="http://www.w3.org/2000/svg">
<path fill-rule="evenodd" clip-rule="evenodd" d="M3.80966 17.8054C4.59535 18.5467 5.6679 19 6.83947 19H22.3184C24.6913 19 26.6579 17.1407 26.6579 14.7949V6.20511C26.6579 3.85932 24.6913 2 22.3184 2H6.83947C4.46661 2 2.5 3.85932 2.5 6.20511V14.7949C2.5 15.9764 2.99892 17.0345 3.79738 17.7938V17.8178L3.80966 17.8054ZM6.83947 3.22711C5.90481 3.22711 5.07728 3.6163 4.51025 4.2269L12.8044 12.5503C13.2518 12.9992 13.8483 13.2386 14.4746 13.2386C15.0711 13.2386 15.6676 13.0291 16.1149 12.5802L24.5444 4.121C23.9824 3.57166 23.1979 3.22711 22.3184 3.22711H14.5789H6.83947ZM3.72281 6.20511C3.72281 5.81565 3.80195 5.44146 3.9464 5.09768L9.49383 10.6646L4.05173 16.1259C3.84085 15.7234 3.72281 15.2705 3.72281 14.7949V6.20511ZM4.67477 16.9373L10.2096 11.383L12.0886 13.2686C12.7448 13.927 13.6097 14.2562 14.4746 14.2562C15.3395 14.2562 16.1746 13.927 16.8307 13.2985L18.7395 11.3829L24.372 17.0352C23.8269 17.4929 23.1112 17.7729 22.3184 17.7729H6.83947C5.99158 17.7729 5.23184 17.4526 4.67477 16.9373ZM25.0313 16.2602C25.2889 15.8253 25.4351 15.3242 25.4351 14.7949V6.20511C25.4351 5.76054 25.332 5.33588 25.1463 4.95363L19.4553 10.6646L25.0313 16.2602Z" fill="#515151"/>
</svg>
