<svg width="29" height="22" viewBox="0 0 29 22" fill="none" xmlns="http://www.w3.org/2000/svg">
<g clip-path="url(#clip0_642_2396)">
<path d="M27.4564 1.04565C27.0056 1.17734 26.6485 1.46098 26.3219 1.94975C26.2839 2.00547 26.2535 2.06371 26.2535 2.07891C26.2535 2.0941 26.2459 2.11183 26.2357 2.1169C26.1699 2.14475 25.9091 2.81333 25.7951 3.25145C25.6837 3.67184 25.5646 4.44425 25.5165 5.06218C25.4735 5.64465 25.4583 7.00966 25.4912 7.51869C25.5064 7.75421 25.5317 8.15941 25.5469 8.41772C25.5621 8.6735 25.5773 8.91915 25.5824 8.96221C25.59 9.00273 25.6052 9.20279 25.6204 9.40539C25.633 9.60799 25.6558 9.84604 25.671 9.93721C25.6837 10.0284 25.7014 10.1778 25.7115 10.2715L25.7267 10.4437H26.2459H26.765L26.7498 10.7147C26.7397 10.8666 26.722 11.0971 26.7068 11.2288C26.6941 11.3605 26.6663 11.6289 26.646 11.8239C26.608 12.1709 26.5396 12.766 26.4687 13.3181C26.2535 15.0123 26.1699 15.7543 26.1167 16.4584C26.0939 16.7369 26.0661 17.0915 26.0509 17.246C26.018 17.603 26.018 18.8262 26.0509 19.0491C26.0635 19.1428 26.0863 19.315 26.099 19.434C26.1142 19.5531 26.1319 19.6772 26.1395 19.7126C26.1471 19.7481 26.1648 19.8367 26.18 19.9101C26.213 20.0874 26.3624 20.4496 26.4561 20.5889C26.5574 20.7357 26.7878 20.9206 26.9195 20.9586C27.0715 21.0042 27.383 20.9966 27.5045 20.9434C27.6995 20.8573 27.8692 20.6395 28.0541 20.2318C28.1376 20.0545 28.2617 19.434 28.3099 18.9655C28.3833 18.2514 28.3326 15.8556 28.2288 15.0655C28.2162 14.9667 28.201 14.792 28.1908 14.673C28.1832 14.5539 28.1655 14.3767 28.1528 14.2804C28.1376 14.1817 28.1098 13.9259 28.0895 13.7106C28.0541 13.3485 28.0085 12.9458 27.9148 12.1785C27.8945 12.0113 27.8616 11.715 27.8388 11.52C27.816 11.325 27.7856 11.092 27.773 11.0009C27.659 10.2918 27.6615 10.3424 27.6539 5.54841C27.6489 3.04632 27.6362 0.997536 27.6261 1.00007C27.616 1.00007 27.54 1.02033 27.4564 1.04565Z" fill="#505050"/>
<path d="M4.20784 1.36743C4.20025 1.42315 4.18252 1.51685 4.16986 1.58016C4.13693 1.73464 4.09641 3.13257 4.07362 4.72804L4.05589 6.0424L3.98498 6.10318C3.88115 6.19182 3.70894 6.18929 3.61524 6.09305L3.54433 6.02467L3.52914 5.16363C3.51901 4.69005 3.51141 4.12024 3.51141 3.89738C3.51141 3.67453 3.50128 3.28199 3.48608 3.02368C3.47089 2.76536 3.4481 2.33737 3.43543 2.074C3.40758 1.59282 3.36199 1.2636 3.32654 1.31931C3.25816 1.42821 3.21511 2.45134 3.19485 4.43174L3.17459 6.03227L3.11381 6.09812C3.03277 6.18675 2.88588 6.18929 2.78459 6.10318L2.71368 6.0424L2.69848 4.15823C2.68582 2.68686 2.67316 2.17783 2.6377 1.82075C2.59465 1.33957 2.56679 1.22308 2.5364 1.38516C2.52627 1.43581 2.52374 1.51685 2.5288 1.56496C2.53387 1.61308 2.53134 1.64854 2.52121 1.64094C2.48575 1.62068 2.47309 1.72198 2.44523 2.26393C2.40724 3.03127 2.39711 3.45167 2.37685 4.82934L2.35913 6.0424L2.28822 6.10318C2.18185 6.19435 2.01218 6.18929 1.91341 6.09052L1.83997 6.01708V5.47512C1.83997 4.70271 1.79185 2.5577 1.76399 2.04867C1.73867 1.60295 1.69815 1.30159 1.66269 1.30159C1.60191 1.30159 1.46769 2.18796 1.37146 3.21361C1.3512 3.43647 1.32334 3.70998 1.30815 3.82141C1.24483 4.30511 1.20431 4.60395 1.1562 4.93571C1.13087 5.13071 1.09542 5.40421 1.08022 5.5435C1.06503 5.68279 1.04223 5.88032 1.02957 5.98162C0.971325 6.40708 1.00171 6.99968 1.09795 7.44287C1.18405 7.8354 1.39678 8.25579 1.65003 8.52424C1.76146 8.6458 2.07296 8.88892 2.22997 8.98262C2.38192 9.07125 2.43763 9.19028 2.47309 9.50937C2.50601 9.79301 2.48575 10.5756 2.43257 11.0137C2.41231 11.1808 2.37939 11.4721 2.35913 11.6595C2.28062 12.3812 2.24517 12.6902 2.21984 12.8371C2.20465 12.9206 2.18185 13.0852 2.16919 13.2043C2.15653 13.3233 2.12107 13.6019 2.09322 13.8247C2.06536 14.0476 2.02737 14.3895 2.00711 14.5845C1.98432 14.7795 1.96153 14.9719 1.95393 15.015C1.93367 15.1112 1.87795 15.681 1.81211 16.4585C1.74627 17.236 1.71841 18.5909 1.76399 19.0037C1.83997 19.7128 1.89821 19.9787 2.06029 20.3434C2.27556 20.8296 2.64277 21.06 3.08848 20.9866C3.39998 20.9334 3.59751 20.7865 3.76466 20.4852C3.95966 20.1306 4.04576 19.7989 4.12174 19.1126C4.16732 18.6871 4.17239 18.5149 4.16226 17.94C4.1496 17.279 4.09388 16.3344 4.04323 15.914C4.02804 15.795 4.00018 15.5266 3.97739 15.3189C3.92927 14.8706 3.88622 14.4806 3.81784 13.926C3.78998 13.7032 3.74946 13.3841 3.7292 13.2169C3.65323 12.5939 3.61271 12.2748 3.58738 12.1026C3.45316 11.2011 3.37719 9.83607 3.43543 9.42327C3.47595 9.15229 3.51901 9.08645 3.77732 8.91424C4.07869 8.71417 4.37752 8.40774 4.532 8.14436C4.59785 8.0304 4.65103 7.9291 4.65103 7.91897C4.65103 7.90631 4.66875 7.86832 4.68648 7.83034C4.84603 7.52644 4.93973 6.68818 4.88148 6.11331C4.84096 5.72584 4.77765 5.19402 4.73713 4.89772C4.63837 4.21395 4.59785 3.88472 4.56239 3.51751C4.54213 3.29465 4.51934 3.07686 4.51174 3.03634C4.50414 2.99329 4.48135 2.79575 4.46109 2.59315C4.39018 1.93724 4.28888 1.33451 4.23823 1.28639C4.23063 1.27626 4.21544 1.31425 4.20784 1.36743Z" fill="#505050"/>
<circle cx="15.0908" cy="10.5456" r="9.17035" stroke="#505050" stroke-width="0.75"/>
<circle cx="15.3636" cy="10.3636" r="5.86357" stroke="#505050"/>
</g>
<defs>
<clipPath id="clip0_642_2396">
<rect width="28" height="22" fill="white" transform="translate(0.5)"/>
</clipPath>
</defs>
</svg>
