<svg width="29" height="22" viewBox="0 0 29 22" fill="none" xmlns="http://www.w3.org/2000/svg">
<path d="M21.8081 7.1288C21.7914 6.77496 21.6326 6.44091 21.3648 6.19629C21.0971 5.95166 20.7409 5.81532 20.3706 5.81567H8.74121C8.37091 5.81532 8.01475 5.95166 7.74695 6.19629C7.47915 6.44091 7.32038 6.77496 7.30371 7.1288L6.72152 18.9813C6.71178 19.1676 6.74174 19.3538 6.80961 19.5286C6.87747 19.7035 6.98181 19.8633 7.11628 19.9983C7.25075 20.1334 7.41253 20.2409 7.59179 20.3142C7.77106 20.3876 7.96405 20.4253 8.15902 20.425H20.9528C21.1478 20.4253 21.3407 20.3876 21.52 20.3142C21.6993 20.2409 21.8611 20.1334 21.9955 19.9983C22.13 19.8633 22.2343 19.7035 22.3022 19.5286C22.3701 19.3538 22.4 19.1676 22.3903 18.9813L21.8081 7.1288ZM10.9621 9.65192C10.82 9.65192 10.681 9.6116 10.5628 9.53606C10.4446 9.46052 10.3525 9.35314 10.2981 9.22752C10.2437 9.10189 10.2295 8.96366 10.2572 8.8303C10.2849 8.69694 10.3534 8.57444 10.4539 8.47829C10.5544 8.38214 10.6825 8.31666 10.8219 8.29013C10.9614 8.26361 11.1059 8.27722 11.2372 8.32926C11.3685 8.38129 11.4808 8.46941 11.5598 8.58247C11.6387 8.69553 11.6809 8.82845 11.6809 8.96442C11.6809 9.14676 11.6052 9.32163 11.4704 9.45056C11.3356 9.57949 11.1528 9.65192 10.9621 9.65192ZM18.1496 9.65192C18.0075 9.65192 17.8685 9.6116 17.7503 9.53606C17.6321 9.46052 17.54 9.35314 17.4856 9.22752C17.4312 9.10189 17.417 8.96366 17.4447 8.8303C17.4724 8.69694 17.5409 8.57444 17.6414 8.47829C17.7419 8.38214 17.87 8.31666 18.0094 8.29013C18.1489 8.26361 18.2934 8.27722 18.4247 8.32926C18.556 8.38129 18.6683 8.46941 18.7473 8.58247C18.8262 8.69553 18.8684 8.82845 18.8684 8.96442C18.8684 9.14676 18.7927 9.32163 18.6579 9.45056C18.5231 9.57949 18.3403 9.65192 18.1496 9.65192Z" stroke="#505050"/>
<path d="M10.8968 5.80005C10.7225 4.30005 11.2104 1.30005 14.5558 1.30005C16.0034 1.30005 18.215 1.80005 18.215 5.80005" stroke="#505050"/>
</svg>
