<svg width="26" height="26" viewBox="0 0 26 26" fill="none" xmlns="http://www.w3.org/2000/svg">
<path fill-rule="evenodd" clip-rule="evenodd" d="M7.625 3H19C19.431 3 19.8443 3.1712 20.149 3.47595C20.4538 3.7807 20.625 4.19402 20.625 4.625V22.5C20.6248 22.6448 20.5859 22.787 20.5123 22.9118C20.4387 23.0365 20.3331 23.1393 20.2064 23.2096C20.0798 23.2798 19.9366 23.3149 19.7918 23.3112C19.647 23.3075 19.5058 23.2652 19.3829 23.1886L13.3125 19.3952L7.24312 23.1886C7.12016 23.2654 6.97888 23.308 6.83393 23.3118C6.68898 23.3156 6.54564 23.2806 6.4188 23.2103C6.29196 23.1401 6.18623 23.0372 6.11259 22.9122C6.03895 22.7873 6.00007 22.645 6 22.5V4.625C6 4.19402 6.1712 3.7807 6.47595 3.47595C6.7807 3.1712 7.19402 3 7.625 3Z" fill="#D0BB00"/>
</svg>
