<svg width="41" height="41" viewBox="0 0 41 41" fill="none" xmlns="http://www.w3.org/2000/svg">
<circle cx="20.7854" cy="20.2029" r="20" fill="#DF2A5A"/>
<g clip-path="url(#clip0_150_1195)">
<path d="M26.9041 30.5154H14.6666C14.3869 30.5158 14.11 30.4592 13.8528 30.3492C13.5956 30.2391 13.3635 30.0779 13.1705 29.8753C12.9776 29.6728 12.8279 29.433 12.7305 29.1708C12.6332 28.9085 12.5902 28.6292 12.6041 28.3498L13.161 16.4973C13.1841 15.9659 13.4115 15.464 13.7958 15.0963C14.1801 14.7287 14.6916 14.5237 15.2235 14.5242H26.3473C26.8791 14.5237 27.3906 14.7287 27.775 15.0963C28.1593 15.464 28.3867 15.9659 28.4098 16.4973L28.9666 28.3498C28.9806 28.6292 28.9376 28.9085 28.8403 29.1708C28.7429 29.433 28.5932 29.6728 28.4003 29.8753C28.2073 30.0779 27.9752 30.2391 27.718 30.3492C27.4608 30.4592 27.1839 30.5158 26.9041 30.5154ZM15.2235 15.906C15.0412 15.906 14.8663 15.9785 14.7374 16.1074C14.6085 16.2363 14.536 16.4112 14.536 16.5935L13.9791 28.4185C13.9745 28.5117 13.9888 28.6048 14.0213 28.6922C14.0537 28.7796 14.1036 28.8595 14.1679 28.9271C14.2322 28.9946 14.3096 29.0483 14.3954 29.085C14.4811 29.1217 14.5734 29.1405 14.6666 29.1404H26.9041C26.9974 29.1405 27.0897 29.1217 27.1754 29.085C27.2612 29.0483 27.3385 28.9946 27.4028 28.9271C27.4672 28.8595 27.5171 28.7796 27.5495 28.6922C27.582 28.6048 27.5963 28.5117 27.5916 28.4185L27.0348 16.566C27.0348 16.3837 26.9623 16.2088 26.8334 16.0799C26.7045 15.951 26.5296 15.8785 26.3473 15.8785L15.2235 15.906Z" fill="#505050"/>
<path d="M24.9104 15.2185H23.5354V14.0154C23.5354 13.286 23.2457 12.5866 22.7299 12.0708C22.2142 11.5551 21.5147 11.2654 20.7854 11.2654C20.0561 11.2654 19.3566 11.5551 18.8409 12.0708C18.3251 12.5866 18.0354 13.286 18.0354 14.0154V15.2185H16.6604V14.0154C16.6604 12.9214 17.095 11.8722 17.8686 11.0986C18.6422 10.325 19.6914 9.89038 20.7854 9.89038C21.8794 9.89038 22.9286 10.325 23.7022 11.0986C24.4758 11.8722 24.9104 12.9214 24.9104 14.0154V15.2185Z" fill="#505050"/>
<path d="M27.7224 16.5316C27.7064 16.1778 27.5546 15.8437 27.2984 15.5991C27.0423 15.3545 26.7016 15.2181 26.3474 15.2185H15.2236C14.8694 15.2181 14.5288 15.3545 14.2726 15.5991C14.0164 15.8437 13.8646 16.1778 13.8486 16.5316L13.2918 28.3841C13.2824 28.5704 13.3111 28.7566 13.376 28.9315C13.4409 29.1063 13.5407 29.2661 13.6693 29.4012C13.798 29.5362 13.9527 29.6437 14.1242 29.717C14.2957 29.7904 14.4803 29.8281 14.6668 29.8279H26.9043C27.0908 29.8281 27.2754 29.7904 27.4468 29.717C27.6183 29.6437 27.773 29.5362 27.9017 29.4012C28.0303 29.2661 28.1301 29.1063 28.195 28.9315C28.2599 28.7566 28.2886 28.5704 28.2793 28.3841L27.7224 16.5316ZM17.348 19.0548C17.212 19.0548 17.0791 19.0144 16.9661 18.9389C16.853 18.8633 16.7649 18.756 16.7128 18.6304C16.6608 18.5047 16.6472 18.3665 16.6737 18.2331C16.7002 18.0998 16.7657 17.9773 16.8619 17.8811C16.958 17.785 17.0805 17.7195 17.2139 17.693C17.3472 17.6664 17.4855 17.6801 17.6111 17.7321C17.7367 17.7841 17.8441 17.8722 17.9196 17.9853C17.9952 18.0984 18.0355 18.2313 18.0355 18.3673C18.0355 18.5496 17.9631 18.7245 17.8341 18.8534C17.7052 18.9823 17.5303 19.0548 17.348 19.0548ZM24.223 19.0548C24.087 19.0548 23.9541 19.0144 23.8411 18.9389C23.728 18.8633 23.6399 18.756 23.5878 18.6304C23.5358 18.5047 23.5222 18.3665 23.5487 18.2331C23.5752 18.0998 23.6407 17.9773 23.7369 17.8811C23.833 17.785 23.9555 17.7195 24.0889 17.693C24.2222 17.6664 24.3605 17.6801 24.4861 17.7321C24.6117 17.7841 24.7191 17.8722 24.7946 17.9853C24.8702 18.0984 24.9105 18.2313 24.9105 18.3673C24.9105 18.5496 24.8381 18.7245 24.7091 18.8534C24.5802 18.9823 24.4053 19.0548 24.223 19.0548Z" fill="#505050"/>
</g>
<defs>
<clipPath id="clip0_150_1195">
<rect width="22" height="22" fill="white" transform="translate(9.7854 9.20288)"/>
</clipPath>
</defs>
</svg>
