<svg width="24" height="24" viewBox="0 0 24 24" fill="none" xmlns="http://www.w3.org/2000/svg">
<path d="M8.60403 17.5781C8.62125 17.5943 8.63674 17.6104 8.65396 17.6248C8.8072 17.7398 8.9174 17.8996 9.06375 18.0218C9.51831 18.4027 10.0297 18.6093 10.6168 18.647C12.0063 18.7368 13.2168 17.6463 13.3734 16.2128C13.3803 16.1427 13.3786 16.0727 13.3786 16.0026C13.3786 11.6875 13.3786 7.37061 13.3786 3.05551C13.3786 2.8615 13.471 2.76449 13.6558 2.76449C14.2843 2.76449 14.9127 2.76449 15.5412 2.76449C15.5997 2.76449 15.6617 2.75371 15.7151 2.79143C15.7185 2.79503 15.722 2.79862 15.7254 2.80042C15.7547 2.83275 15.765 2.87407 15.7736 2.91719C16.0147 4.08129 16.6018 5.00826 17.5213 5.70888C17.5781 5.752 17.6263 5.80769 17.6814 5.8544C17.721 5.89032 17.7623 5.92625 17.8019 5.96039C17.95 6.04841 18.055 6.19033 18.1842 6.30171C18.6938 6.74364 19.2672 7.04904 19.9077 7.2215C19.9645 7.23587 20.0282 7.23587 20.0696 7.29156C20.073 7.29516 20.0765 7.29875 20.0799 7.30054C20.1178 7.34186 20.1109 7.39396 20.1109 7.44426C20.1109 8.20596 20.1109 8.96586 20.1109 9.72756C20.1109 9.90182 20.0885 9.9108 19.9198 9.9108C19.386 9.9108 18.8609 9.83714 18.3409 9.71319C17.449 9.49941 16.6242 9.12215 15.8597 8.59759C15.8201 8.57064 15.7771 8.51136 15.7358 8.53292C15.6824 8.55807 15.7099 8.63172 15.7099 8.68202C15.7099 10.8234 15.7168 12.9666 15.7065 15.108C15.6979 16.6062 15.2416 17.9446 14.3015 19.0871C13.3028 20.2997 12.0356 21.0039 10.5135 21.1979C9.34096 21.3471 8.22695 21.1261 7.17148 20.5818C7.00102 20.4937 6.83745 20.3913 6.68421 20.271C6.636 20.2261 6.58779 20.1812 6.53958 20.138C6.17628 19.8237 5.92145 19.4177 5.68556 19.0027C5.32226 18.3613 5.08465 17.6697 4.96929 16.9332C4.90386 16.5128 4.86942 16.0888 4.8918 15.6631C4.96412 14.2906 5.40663 13.0672 6.25376 12.0091C6.96486 11.1216 7.85332 10.5018 8.90018 10.1282C9.33752 9.97188 9.78691 9.87667 10.2501 9.84253C10.3362 9.83714 10.4205 9.81559 10.5066 9.82098C10.548 9.82277 10.5893 9.82098 10.6237 9.84972C10.6272 9.85331 10.6323 9.85691 10.6358 9.8587C10.6599 9.90182 10.6547 9.95032 10.6547 9.99523C10.6547 10.7677 10.6547 11.5402 10.6547 12.3109C10.6547 12.3378 10.6547 12.3648 10.653 12.3935C10.6495 12.4708 10.6117 12.4977 10.5411 12.4761C10.3379 12.4169 10.1313 12.3881 9.92121 12.3773C9.59751 12.3594 9.27726 12.4079 8.97422 12.5246C7.95663 12.9163 7.34022 13.6762 7.21108 14.7954C7.08367 15.8984 7.50207 16.7823 8.38191 17.4182C8.45595 17.4721 8.53171 17.5206 8.60058 17.5817L8.60403 17.5781Z" fill="black"/>
<path d="M6.6894 20.2692C6.72901 20.2584 6.75139 20.2908 6.77894 20.3087C7.44011 20.7291 8.15467 21.004 8.91915 21.1333C9.30311 21.198 9.69224 21.2249 10.0814 21.2034C11.3831 21.1333 12.547 20.6806 13.5543 19.8129C14.5236 18.9776 15.1676 17.9212 15.4896 16.6529C15.5912 16.2523 15.648 15.8445 15.6669 15.4313C15.679 15.1924 15.6773 14.9553 15.6773 14.7181C15.6773 12.6774 15.6773 10.6348 15.6773 8.59402V8.45569C15.7289 8.44132 15.7513 8.48085 15.7788 8.50061C16.4762 8.99823 17.2303 9.3665 18.0447 9.60004C18.4924 9.72759 18.947 9.81382 19.4084 9.85693C19.603 9.8749 19.7975 9.8731 19.9904 9.88747C20.0748 9.89466 20.0765 9.89107 20.0782 9.79765C20.0782 9.70064 20.0782 9.60184 20.0782 9.50483C20.0782 8.81319 20.0782 8.12335 20.0782 7.43171C20.0782 7.3886 20.0799 7.34548 20.0816 7.30237C20.2556 7.32213 20.4277 7.36165 20.6034 7.37602C20.7118 7.38501 20.8203 7.39578 20.9288 7.39219C20.9822 7.39219 21.0045 7.41016 20.9994 7.46585C20.9976 7.4892 20.9994 7.51255 20.9994 7.53591V10.5324C20.9994 10.5522 20.9994 10.5719 20.9994 10.5917C20.9976 10.6779 20.9977 10.6797 20.9098 10.6797C20.6102 10.6797 20.3106 10.6582 20.0145 10.6168C19.4084 10.5324 18.8196 10.3779 18.2479 10.1462C17.7021 9.9234 17.1873 9.64136 16.7052 9.29464C16.6759 9.27308 16.6449 9.25332 16.5984 9.22278V9.36291C16.5984 11.5438 16.5984 13.7265 16.5984 15.9074C16.5984 17.0697 16.3092 18.1512 15.7134 19.1356C14.9954 20.3267 13.9985 21.162 12.7312 21.6435C11.9616 21.9345 11.1661 22.0459 10.35 21.983C8.9708 21.877 7.77931 21.3273 6.76344 20.3536C6.73589 20.3267 6.71351 20.2962 6.68768 20.2674L6.6894 20.2692Z" stroke="black" stroke-width="0.179646" stroke-miterlimit="10"/>
<path d="M15.7166 2.79324C15.6753 2.79504 15.6339 2.79863 15.5943 2.79863C14.9211 2.79863 14.2479 2.79863 13.5729 2.79863C13.4685 2.79863 13.4162 2.85133 13.4162 2.95672C13.4162 7.25026 13.4162 11.5438 13.4162 15.8355C13.4162 16.1337 13.3956 16.4284 13.306 16.7122C12.9892 17.7164 12.3436 18.3793 11.357 18.6147C10.298 18.8662 9.39754 18.5302 8.68299 17.6733C8.67093 17.6589 8.66233 17.641 8.65372 17.6248C8.85861 17.7092 9.06179 17.7955 9.28046 17.8404C9.9709 17.9823 10.6217 17.8727 11.2209 17.4883C11.9131 17.0428 12.3212 16.3924 12.4641 15.5589C12.4916 15.4008 12.4951 15.2409 12.4951 15.081C12.4951 10.7803 12.4951 6.47778 12.4951 2.17706C12.4951 1.97586 12.4675 2.00101 12.6604 2.00101C13.6108 2.00101 14.5612 2.00101 15.5117 2.00101C15.5341 2.00101 15.5565 2.00101 15.5788 2.00101C15.677 2.00101 15.677 2.00101 15.677 2.1052C15.677 2.33515 15.6735 2.56509 15.7166 2.79145V2.79324Z" stroke="black" stroke-width="0.179646" stroke-miterlimit="10"/>
<path d="M10.6288 9.84614C10.0486 9.8659 9.48036 9.96291 8.92766 10.1533C8.13046 10.43 7.42108 10.8629 6.80295 11.4576C5.99197 12.2372 5.43927 13.184 5.13623 14.287C5.02776 14.6804 4.96578 15.0828 4.93823 15.4924C4.92101 15.7385 4.91756 15.9846 4.92962 16.229C4.96405 16.9098 5.10008 17.5691 5.34802 18.2015C5.62523 18.9093 6.01436 19.5416 6.51885 20.0949C6.52918 20.1057 6.53607 20.1201 6.54468 20.1327C6.42931 20.0806 6.33806 19.9943 6.24164 19.9153C5.29808 19.1356 4.63347 18.1512 4.26844 16.9529C4.14103 16.5361 4.06182 16.1086 4.02394 15.6721C3.9964 15.3559 3.99295 15.0397 4.01189 14.7253C4.05666 13.9995 4.22195 13.3025 4.5095 12.6378C4.80909 11.9444 5.21888 11.3282 5.74059 10.7947C6.34667 10.1749 7.04917 9.70961 7.84981 9.4096C8.35258 9.22097 8.8674 9.10779 9.40116 9.06647C9.78685 9.03773 10.1708 9.04671 10.5531 9.09342C10.6047 9.10061 10.6357 9.11138 10.634 9.17426C10.6305 9.39702 10.6305 9.61978 10.6288 9.84075V9.84614Z" stroke="black" stroke-width="0.179646" stroke-miterlimit="10"/>
<path d="M8.60407 17.5781C8.36991 17.4685 8.16673 17.3087 7.98422 17.1236C7.52277 16.6601 7.24901 16.0961 7.17669 15.4314C7.02689 14.0391 7.86886 12.8355 9.03797 12.4636C9.53729 12.3037 10.0366 12.2983 10.5394 12.4403C10.5669 12.4474 10.5945 12.46 10.6255 12.4528C10.6427 12.4115 10.6341 12.3684 10.6341 12.3253C10.6341 11.5456 10.6341 10.7642 10.6341 9.9845C10.6341 9.94138 10.6375 9.89827 10.641 9.85695C10.9302 9.83719 11.2161 9.86414 11.5019 9.89647C11.5466 9.90186 11.5587 9.92342 11.557 9.96474C11.557 9.98809 11.557 10.0114 11.557 10.0348C11.557 11.0696 11.557 12.1025 11.557 13.1373C11.557 13.175 11.5673 13.2145 11.5432 13.2558C11.4123 13.2307 11.2849 13.1894 11.1524 13.1696C10.3861 13.0582 9.6957 13.2451 9.08962 13.7427C8.55586 14.181 8.22872 14.7559 8.11852 15.4529C8.00144 16.1931 8.14779 16.8775 8.55586 17.4991C8.57308 17.5242 8.58685 17.5512 8.60235 17.5781H8.60407Z" stroke="black" stroke-width="0.179646" stroke-miterlimit="10"/>
<path d="M17.6848 5.85613C17.3973 5.67829 17.1441 5.45373 16.9117 5.20402C16.2884 4.53574 15.8958 3.7417 15.7288 2.82551C15.7288 2.81832 15.7288 2.80934 15.7288 2.80215C15.9974 2.78599 16.266 2.80036 16.5364 2.79497C16.5846 2.79497 16.6052 2.81293 16.6001 2.86323C16.5983 2.883 16.6001 2.90276 16.6001 2.92252C16.5863 3.70937 16.8101 4.42795 17.1769 5.10342C17.3077 5.34414 17.4644 5.5687 17.6366 5.78068C17.6555 5.80404 17.6814 5.822 17.6865 5.85613H17.6848Z" stroke="black" stroke-width="0.179646" stroke-miterlimit="10"/>
<path d="M20.0729 7.29331C19.3067 7.12265 18.6318 6.76156 18.0481 6.21903C17.962 6.13998 17.8742 6.06094 17.8053 5.96213C17.8346 5.95854 17.8552 5.97651 17.8776 5.99088C18.3425 6.26753 18.8384 6.45077 19.367 6.54059C19.5719 6.57652 19.7802 6.59988 19.9903 6.59628C20.0781 6.59628 20.0798 6.59808 20.0798 6.68611C20.0798 6.88911 20.0764 7.09031 20.0746 7.29331H20.0729Z" stroke="black" stroke-width="0.179646" stroke-miterlimit="10"/>
</svg>
