<svg width="112" height="42" viewBox="0 0 112 42" fill="none" xmlns="http://www.w3.org/2000/svg">
<mask id="path-1-inside-1_48_1141" fill="white">
<path d="M77 21C77 32.598 67.598 42 56 42C44.402 42 35 32.598 35 21C35 9.40202 44.402 0 56 0C67.598 0 77 9.40202 77 21Z"/>
</mask>
<path d="M77 21C77 32.598 67.598 42 56 42C44.402 42 35 32.598 35 21C35 9.40202 44.402 0 56 0C67.598 0 77 9.40202 77 21Z" fill="white"/>
<path d="M76 21C76 32.0457 67.0457 41 56 41V43C68.1503 43 78 33.1503 78 21H76ZM56 41C44.9543 41 36 32.0457 36 21H34C34 33.1503 43.8497 43 56 43V41ZM36 21C36 9.9543 44.9543 1 56 1V-1C43.8497 -1 34 8.84974 34 21H36ZM56 1C67.0457 1 76 9.9543 76 21H78C78 8.84974 68.1503 -1 56 -1V1Z" fill="#808080" mask="url(#path-1-inside-1_48_1141)"/>
<path d="M20.5647 11.0324C19.5536 11.2301 18.5349 11.7774 17.8203 12.5149C16.8853 13.4651 16.3835 14.6587 16.3227 16.0803C16.2163 18.703 17.7215 21.4702 19.8197 22.4965C20.8612 23.0058 21.9027 23.0134 22.9594 22.5117C25.5213 21.3106 27.1558 17.3498 26.2359 14.5978C25.6886 12.9786 24.4646 11.7242 22.9214 11.2149C22.4348 11.0552 21.0284 10.9412 20.5647 11.0324Z" fill="#151515"/>
<path d="M16.688 22.4052C14.9395 23.0286 13.3279 23.8344 12.37 24.5642C11.7846 25.0051 11.5718 25.3624 11.2525 26.4572C10.9636 27.4226 10.9256 28.0536 11.1232 28.4413C11.2981 28.791 11.7998 29.2928 12.2864 29.6121C13.4115 30.3647 15.6541 31.0185 18.1476 31.3377C19.4172 31.4974 23.0814 31.5202 24.3282 31.3758C27.6199 30.9957 30.1058 30.1594 31.2005 29.0647C31.8619 28.4033 31.9456 27.9396 31.6339 26.7612C31.2158 25.218 31.0257 24.9215 29.9158 24.1917C28.9959 23.5835 26.7761 22.5801 25.6054 22.2304L25.2785 22.1391L24.9212 22.4736C23.5604 23.7432 21.8803 24.2373 20.3219 23.842C19.4248 23.614 18.3757 23.0134 17.7979 22.3976C17.6687 22.2684 17.5167 22.1619 17.4558 22.1695C17.3874 22.1695 17.0453 22.276 16.688 22.4052Z" fill="#151515"/>
<mask id="path-5-inside-2_48_1141" fill="white">
<path d="M42 21C42 32.598 32.598 42 21 42C9.40202 42 0 32.598 0 21C0 9.40202 9.40202 0 21 0C32.598 0 42 9.40202 42 21Z"/>
</mask>
<path d="M42 21C42 32.598 32.598 42 21 42C9.40202 42 0 32.598 0 21C0 9.40202 9.40202 0 21 0C32.598 0 42 9.40202 42 21Z" fill="white"/>
<path d="M41 21C41 32.0457 32.0457 41 21 41V43C33.1503 43 43 33.1503 43 21H41ZM21 41C9.9543 41 1 32.0457 1 21H-1C-1 33.1503 8.84974 43 21 43V41ZM1 21C1 9.9543 9.9543 1 21 1V-1C8.84974 -1 -1 8.84974 -1 21H1ZM21 1C32.0457 1 41 9.9543 41 21H43C43 8.84974 33.1503 -1 21 -1V1Z" fill="#808080" mask="url(#path-5-inside-2_48_1141)"/>
<g clip-path="url(#clip0_48_1141)">
<path d="M20.1634 10.7827C19.1523 10.9803 18.1336 11.5277 17.419 12.2651C16.4839 13.2154 15.9822 14.4089 15.9214 15.8305C15.8149 18.4533 17.3202 21.2204 19.4183 22.2467C20.4598 22.7561 21.5013 22.7637 22.558 22.2619C25.12 21.0608 26.7544 17.1001 25.8346 14.3481C25.2872 12.7288 24.0633 11.4745 22.52 10.9651C22.0335 10.8055 20.6271 10.6914 20.1634 10.7827Z" fill="#808080"/>
<path d="M16.2867 22.1555C14.5382 22.7788 12.9265 23.5847 11.9687 24.3145C11.3833 24.7554 11.1704 25.1127 10.8511 26.2074C10.5623 27.1729 10.5242 27.8039 10.7219 28.1916C10.8967 28.5413 11.3985 29.043 11.885 29.3623C13.0101 30.1149 15.2528 30.7687 17.7463 31.088C19.0159 31.2476 22.6801 31.2704 23.9269 31.126C27.2186 30.7459 29.7045 29.9097 30.7992 28.8149C31.4606 28.1536 31.5442 27.6898 31.2325 26.5115C30.8144 24.9683 30.6244 24.6718 29.5144 23.942C28.5946 23.3338 26.3748 22.3303 25.204 21.9806L24.8771 21.8894L24.5198 22.2239C23.159 23.4934 21.479 23.9876 19.9205 23.5923C19.0235 23.3642 17.9744 22.7636 17.3966 22.1478C17.2674 22.0186 17.1153 21.9122 17.0545 21.9198C16.9861 21.9198 16.644 22.0262 16.2867 22.1555Z" fill="#808080"/>
</g>
<g clip-path="url(#clip1_48_1141)">
<path d="M55.1634 10.7827C54.1523 10.9803 53.1336 11.5277 52.419 12.2651C51.4839 13.2154 50.9822 14.4089 50.9214 15.8305C50.8149 18.4533 52.3202 21.2204 54.4183 22.2467C55.4598 22.7561 56.5013 22.7637 57.558 22.2619C60.12 21.0608 61.7544 17.1001 60.8346 14.3481C60.2872 12.7288 59.0633 11.4745 57.52 10.9651C57.0335 10.8055 55.6271 10.6914 55.1634 10.7827Z" fill="#808080"/>
<path d="M51.2867 22.1555C49.5382 22.7788 47.9265 23.5847 46.9687 24.3145C46.3833 24.7554 46.1704 25.1127 45.8511 26.2074C45.5623 27.1729 45.5242 27.8039 45.7219 28.1916C45.8967 28.5413 46.3985 29.043 46.885 29.3623C48.0101 30.1149 50.2528 30.7687 52.7463 31.088C54.0159 31.2476 57.6801 31.2704 58.9269 31.126C62.2186 30.7459 64.7045 29.9097 65.7992 28.8149C66.4606 28.1536 66.5442 27.6898 66.2325 26.5115C65.8144 24.9683 65.6244 24.6718 64.5144 23.942C63.5946 23.3338 61.3748 22.3303 60.204 21.9806L59.8771 21.8894L59.5198 22.2239C58.159 23.4934 56.479 23.9876 54.9205 23.5923C54.0235 23.3642 52.9744 22.7636 52.3966 22.1478C52.2674 22.0186 52.1153 21.9122 52.0545 21.9198C51.9861 21.9198 51.644 22.0262 51.2867 22.1555Z" fill="#808080"/>
</g>
<mask id="path-11-inside-3_48_1141" fill="white">
<path d="M112 21C112 32.598 102.598 42 91 42C79.402 42 70 32.598 70 21C70 9.40202 79.402 0 91 0C102.598 0 112 9.40202 112 21Z"/>
</mask>
<path d="M112 21C112 32.598 102.598 42 91 42C79.402 42 70 32.598 70 21C70 9.40202 79.402 0 91 0C102.598 0 112 9.40202 112 21Z" fill="white"/>
<path d="M111 21C111 32.0457 102.046 41 91 41V43C103.15 43 113 33.1503 113 21H111ZM91 41C79.9543 41 71 32.0457 71 21H69C69 33.1503 78.8497 43 91 43V41ZM71 21C71 9.9543 79.9543 1 91 1V-1C78.8497 -1 69 8.84974 69 21H71ZM91 1C102.046 1 111 9.9543 111 21H113C113 8.84974 103.15 -1 91 -1V1Z" fill="#808080" mask="url(#path-11-inside-3_48_1141)"/>
<path d="M90.5647 10.5605C89.5536 10.7582 88.5349 11.3055 87.8203 12.0429C86.8853 12.9932 86.3835 14.1867 86.3227 15.6083C86.2163 18.2311 87.7215 20.9983 89.8197 22.0246C90.8612 22.5339 91.9027 22.5415 92.9594 22.0398C95.5213 20.8386 97.1558 16.8779 96.2359 14.1259C95.6886 12.5067 94.4646 11.2523 92.9214 10.743C92.4348 10.5833 91.0284 10.4693 90.5647 10.5605Z" fill="#808080"/>
<path d="M86.688 21.9333C84.9395 22.5567 83.3279 23.3625 82.37 24.0923C81.7846 24.5332 81.5718 24.8905 81.2525 25.9852C80.9636 26.9507 80.9256 27.5817 81.1232 27.9694C81.2981 28.3191 81.7998 28.8208 82.2864 29.1401C83.4115 29.8927 85.6541 30.5465 88.1476 30.8658C89.4172 31.0255 93.0814 31.0483 94.3282 30.9038C97.6199 30.5237 100.106 29.6875 101.201 28.5928C101.862 27.9314 101.946 27.4677 101.634 26.2893C101.216 24.7461 101.026 24.4496 99.9158 23.7198C98.9959 23.1116 96.7761 22.1081 95.6054 21.7584L95.2785 21.6672L94.9212 22.0017C93.5604 23.2713 91.8803 23.7654 90.3219 23.3701C89.4248 23.142 88.3757 22.5415 87.7979 21.9257C87.6687 21.7964 87.5167 21.69 87.4558 21.6976C87.3874 21.6976 87.0453 21.804 86.688 21.9333Z" fill="#808080"/>
<defs>
<clipPath id="clip0_48_1141">
<rect width="22" height="22" fill="white" transform="translate(10 10)"/>
</clipPath>
<clipPath id="clip1_48_1141">
<rect width="22" height="22" fill="white" transform="translate(45 10)"/>
</clipPath>
</defs>
</svg>
