<svg width="41" height="41" viewBox="0 0 41 41" fill="none" xmlns="http://www.w3.org/2000/svg">
<circle cx="20.2854" cy="20.2029" r="20" fill="#2AA1A0"/>
<path d="M31.8109 11.0407C31.4051 11.1593 31.0838 11.4145 30.7897 11.8544C30.7556 11.9046 30.7282 11.957 30.7282 11.9707C30.7282 11.9843 30.7214 12.0003 30.7123 12.0049C30.653 12.0299 30.4182 12.6317 30.3157 13.026C30.2154 13.4043 30.1082 14.0995 30.0649 14.6556C30.0262 15.1799 30.0125 16.4084 30.0422 16.8665C30.0558 17.0785 30.0786 17.4432 30.0923 17.6757C30.106 17.9059 30.1196 18.127 30.1242 18.1657C30.131 18.2022 30.1447 18.3822 30.1584 18.5646C30.1698 18.7469 30.1903 18.9612 30.204 19.0432C30.2154 19.1253 30.2313 19.2597 30.2404 19.3441L30.2541 19.4991H30.7214H31.1886L31.1749 19.743C31.1658 19.8797 31.1499 20.0871 31.1362 20.2056C31.1248 20.3242 31.0997 20.5658 31.0815 20.7413C31.0473 21.0535 30.9858 21.5892 30.9219 22.086C30.7282 23.6109 30.653 24.2787 30.6051 24.9123C30.5846 25.163 30.5595 25.4821 30.5459 25.6212C30.5162 25.9425 30.5162 27.0434 30.5459 27.244C30.5573 27.3283 30.5778 27.4833 30.5892 27.5904C30.6028 27.6976 30.6188 27.8093 30.6256 27.8412C30.6325 27.8731 30.6484 27.9529 30.6621 28.0189C30.6917 28.1785 30.8262 28.5044 30.9105 28.6298C31.0017 28.762 31.2091 28.9284 31.3277 28.9626C31.4644 29.0036 31.7448 28.9968 31.8542 28.9489C32.0297 28.8714 32.1824 28.6754 32.3488 28.3084C32.424 28.1489 32.5357 27.5904 32.579 27.1688C32.6451 26.526 32.5995 24.3699 32.506 23.6587C32.4946 23.5698 32.481 23.4126 32.4718 23.3054C32.465 23.1983 32.4491 23.0388 32.4377 22.9522C32.424 22.8633 32.3989 22.6331 32.3807 22.4393C32.3488 22.1134 32.3077 21.751 32.2234 21.0604C32.2052 20.9099 32.1755 20.6433 32.155 20.4678C32.1345 20.2923 32.1072 20.0826 32.0958 20.0005C31.9932 19.3623 31.9955 19.4079 31.9886 15.0933C31.9841 12.8413 31.9727 10.9974 31.9636 10.9997C31.9545 10.9997 31.8861 11.0179 31.8109 11.0407Z" fill="white"/>
<path d="M10.8871 11.3305C10.8803 11.3806 10.8643 11.465 10.8529 11.522C10.8233 11.661 10.7868 12.9191 10.7663 14.3551L10.7503 15.538L10.6865 15.5927C10.5931 15.6725 10.4381 15.6702 10.3537 15.5836L10.2899 15.5221L10.2762 14.7471C10.2671 14.3209 10.2603 13.8081 10.2603 13.6075C10.2603 13.4069 10.2512 13.0536 10.2375 12.8211C10.2238 12.5887 10.2033 12.2035 10.1919 11.9664C10.1668 11.5334 10.1258 11.2371 10.0939 11.2872C10.0324 11.3852 9.99362 12.306 9.97538 14.0884L9.95715 15.5289L9.90245 15.5882C9.82951 15.6679 9.69731 15.6702 9.60614 15.5927L9.54232 15.538L9.52865 13.8422C9.51725 12.518 9.50586 12.0599 9.47395 11.7385C9.4352 11.3054 9.41013 11.2006 9.38278 11.3465C9.37366 11.392 9.37138 11.465 9.37594 11.5083C9.3805 11.5516 9.37822 11.5835 9.3691 11.5767C9.33719 11.5584 9.32579 11.6496 9.30072 12.1374C9.26653 12.828 9.25742 13.2063 9.23918 14.4463L9.22323 15.538L9.15941 15.5927C9.06368 15.6748 8.91097 15.6702 8.82208 15.5813L8.75598 15.5152V15.0275C8.75598 14.3323 8.71267 12.4018 8.6876 11.9436C8.66481 11.5425 8.62834 11.2712 8.59643 11.2712C8.54173 11.2712 8.42093 12.069 8.33432 12.9921C8.31608 13.1927 8.29101 13.4388 8.27733 13.5391C8.22035 13.9744 8.18388 14.2434 8.14058 14.542C8.11779 14.7175 8.08588 14.9636 8.0722 15.089C8.05852 15.2144 8.03801 15.3921 8.02662 15.4833C7.97419 15.8662 8.00154 16.3996 8.08816 16.7985C8.16565 17.1517 8.35711 17.5301 8.58503 17.7717C8.68532 17.8811 8.96567 18.0999 9.10699 18.1842C9.24374 18.264 9.29388 18.3711 9.32579 18.6583C9.35542 18.9136 9.33719 19.6179 9.28933 20.0122C9.27109 20.1626 9.24146 20.4248 9.22323 20.5934C9.15257 21.243 9.12066 21.5211 9.09787 21.6533C9.08419 21.7285 9.06368 21.8766 9.05228 21.9838C9.04089 22.0909 9.00898 22.3416 8.98391 22.5422C8.95883 22.7428 8.92464 23.0505 8.90641 23.226C8.8859 23.4015 8.86538 23.5747 8.85855 23.6134C8.84031 23.7001 8.79017 24.2129 8.73091 24.9126C8.67165 25.6124 8.64657 26.8318 8.6876 27.2033C8.75598 27.8415 8.8084 28.0808 8.95427 28.409C9.14801 28.8466 9.4785 29.054 9.87965 28.9879C10.16 28.9401 10.3378 28.8079 10.4882 28.5366C10.6637 28.2176 10.7412 27.919 10.8096 27.3013C10.8506 26.9184 10.8552 26.7634 10.8461 26.246C10.8347 25.6511 10.7845 24.8009 10.7389 24.4226C10.7253 24.3155 10.7002 24.0739 10.6797 23.887C10.6364 23.4835 10.5976 23.1325 10.5361 22.6334C10.511 22.4328 10.4745 22.1456 10.4563 21.9952C10.3879 21.4345 10.3515 21.1473 10.3287 20.9923C10.2079 20.1809 10.1395 18.9524 10.1919 18.5808C10.2284 18.337 10.2671 18.2777 10.4996 18.1227C10.7708 17.9426 11.0398 17.6669 11.1788 17.4298C11.2381 17.3272 11.286 17.2361 11.286 17.227C11.286 17.2156 11.3019 17.1814 11.3179 17.1472C11.4615 16.8737 11.5458 16.1192 11.4934 15.6018C11.4569 15.2531 11.3999 14.7745 11.3635 14.5078C11.2746 13.8924 11.2381 13.5961 11.2062 13.2656C11.188 13.065 11.1674 12.869 11.1606 12.8325C11.1538 12.7938 11.1332 12.616 11.115 12.4337C11.0512 11.8433 10.96 11.3009 10.9144 11.2576C10.9076 11.2484 10.8939 11.2826 10.8871 11.3305Z" fill="white"/>
<path d="M19.8581 11.2943C19.6758 11.3034 19.4547 11.3239 19.3681 11.3376C19.2792 11.3513 19.1082 11.3786 18.9897 11.3969C18.6889 11.4424 18.3014 11.529 17.9754 11.6248C17.7202 11.6977 17.3669 11.8185 17.3373 11.8413C17.3259 11.8504 17.2757 11.8709 17.2279 11.8869C17.1777 11.9028 17.1116 11.9279 17.0797 11.9462C17.0455 11.9644 17.009 11.9781 16.9999 11.9781C16.984 11.9781 16.5304 12.1992 16.4028 12.2698C15.9629 12.5114 15.4546 12.851 15.1036 13.1405C15.0512 13.1838 14.9828 13.2408 14.9531 13.2636C14.4585 13.6716 13.7976 14.3645 13.4625 14.8271C13.4124 14.8955 13.3668 14.9571 13.3599 14.9639C13.3326 14.989 13.1069 15.3309 12.9679 15.5565C12.8334 15.7753 12.5804 16.2676 12.4551 16.548C12.2887 16.9218 12.1041 17.4779 12.0152 17.8814C11.9878 17.9999 11.9582 18.1275 11.9468 18.1663C11.9354 18.2027 11.9149 18.3167 11.9012 18.417C11.8875 18.5173 11.867 18.6449 11.8556 18.7019C11.8306 18.825 11.7941 19.274 11.7736 19.7162C11.7599 20.0193 11.7941 20.7988 11.8328 21.1179C11.867 21.3869 11.9217 21.7424 11.9445 21.8359C11.9582 21.886 11.9947 22.0387 12.0289 22.1778C12.1041 22.4969 12.2066 22.8319 12.2796 23.0029C12.2978 23.0416 12.3115 23.0803 12.3115 23.0872C12.3115 23.1601 12.6397 23.8758 12.8357 24.2291C12.9223 24.3864 13.0887 24.6576 13.1092 24.6736C13.1161 24.6804 13.148 24.726 13.1776 24.7761C13.2391 24.881 13.2437 24.8878 13.5286 25.2593C14.0984 26.0092 14.9486 26.8092 15.719 27.3175C15.8193 27.3836 15.9287 27.4565 15.9629 27.4793C15.9971 27.5044 16.0312 27.5226 16.0404 27.5226C16.0472 27.5226 16.0814 27.5409 16.1133 27.5659C16.2683 27.6731 16.8882 27.983 17.1709 28.0924C17.237 28.1198 17.3236 28.154 17.36 28.1722C17.3988 28.1882 17.4603 28.211 17.4968 28.2201C17.5356 28.2292 17.5766 28.2429 17.588 28.252C17.6427 28.293 18.3265 28.4799 18.6752 28.5506C19.2951 28.6759 19.7122 28.7124 20.494 28.7124C21.4217 28.7124 21.9049 28.6577 22.7163 28.4617C22.9853 28.3956 23.5414 28.2224 23.6736 28.1608C23.6987 28.1494 23.7853 28.113 23.8673 28.081C23.9494 28.0469 24.0998 27.9808 24.2047 27.9306C24.3095 27.8828 24.3984 27.8417 24.403 27.8417C24.4075 27.8417 24.4987 27.7893 24.6081 27.7278C24.7175 27.6639 24.811 27.6138 24.8155 27.6138C24.8565 27.6138 25.8002 26.971 25.8503 26.9072C25.8571 26.9004 25.9392 26.8297 26.0349 26.7522C26.4178 26.4423 27.0013 25.8565 27.309 25.4736C27.3523 25.4189 27.4139 25.3414 27.4458 25.3026C27.6099 25.1043 27.9358 24.6211 28.1159 24.3134C28.1979 24.1698 28.5262 23.5134 28.5786 23.3858C28.6333 23.2513 28.7723 22.857 28.8247 22.6906C28.9934 22.1413 29.0572 21.8587 29.121 21.3458C29.1416 21.2022 29.1689 21.0108 29.1849 20.9242C29.2236 20.6985 29.2213 19.3332 29.1826 19.0438C29.08 18.3053 29.0618 18.2096 28.9843 17.9041C28.9501 17.7719 28.9136 17.6238 28.9022 17.5737C28.8726 17.4506 28.7928 17.2021 28.7541 17.1132C28.7358 17.0745 28.7222 17.0289 28.7222 17.0152C28.7222 16.9993 28.6606 16.8397 28.5854 16.6597C28.4669 16.3748 28.3826 16.2015 28.1364 15.7388C28.1068 15.6819 28.0316 15.5588 27.97 15.4653C27.9085 15.3719 27.8424 15.2648 27.8196 15.2283C27.7375 15.0847 27.3113 14.5263 27.1039 14.2915C26.6275 13.7559 26.2173 13.3775 25.5882 12.8989C25.5084 12.8373 25.0252 12.5137 24.9044 12.4408C24.6582 12.2926 23.8423 11.8869 23.7876 11.8869C23.7784 11.8869 23.7397 11.8709 23.701 11.8527C23.5482 11.7843 23.1562 11.6544 22.7733 11.5518C22.4382 11.4607 21.8889 11.3649 21.4285 11.3171C21.1368 11.2852 20.2296 11.2738 19.8581 11.2943ZM21.4057 13.6716C21.5744 13.6943 21.7499 13.7194 21.7932 13.7308C21.8365 13.7422 21.9664 13.7741 22.0827 13.8015C22.534 13.904 23.04 14.0955 23.4981 14.3394C24.7107 14.9799 25.8663 16.2152 26.3677 17.4141C26.3996 17.4893 26.4429 17.5919 26.4634 17.642C26.566 17.8768 26.6708 18.2346 26.7506 18.6107C26.7666 18.6928 26.7871 18.7748 26.7939 18.7931C26.8007 18.8113 26.8281 19.021 26.8532 19.258C26.9033 19.7298 26.9124 20.1811 26.876 20.5207C26.8076 21.1658 26.8076 21.1703 26.6891 21.6649C26.664 21.7721 26.6344 21.8792 26.6252 21.9042C26.6161 21.9293 26.5797 22.0319 26.5455 22.1322C26.5136 22.2325 26.4703 22.3464 26.452 22.3875C26.4338 22.4262 26.4201 22.4627 26.4201 22.4695C26.4201 22.4763 26.37 22.588 26.3084 22.7202C25.5266 24.3795 23.8856 25.763 22.1921 26.1847C22.1169 26.2052 21.9892 26.2371 21.9072 26.2576C21.5151 26.3534 20.7744 26.4149 20.2433 26.3944C20.0359 26.3876 19.8513 26.3762 19.833 26.3716C19.8148 26.367 19.6735 26.3465 19.5185 26.326C19.2336 26.2895 19.188 26.2804 18.8074 26.1847C18.2923 26.0548 17.7384 25.8155 17.2005 25.4941C16.4871 25.0679 15.6369 24.2473 15.1628 23.5294C14.9053 23.1373 14.666 22.6838 14.5566 22.3829C14.5338 22.3191 14.5064 22.2575 14.4996 22.2461C14.4905 22.2325 14.454 22.1299 14.4198 22.0182C14.3856 21.9042 14.3537 21.7971 14.3469 21.7789C14.34 21.7607 14.3309 21.7287 14.3286 21.7105C14.3264 21.6923 14.3013 21.5874 14.2739 21.4803C14.0916 20.7623 14.0642 19.7321 14.2056 18.8842C14.2306 18.727 14.2557 18.5788 14.258 18.5537C14.2625 18.5287 14.2716 18.4922 14.2785 18.474C14.2853 18.4557 14.315 18.3577 14.34 18.2574C14.4175 17.9748 14.4882 17.7697 14.5885 17.5281C14.7708 17.095 15.1993 16.3725 15.4158 16.1286C15.4318 16.1104 15.4865 16.042 15.5366 15.9782C15.646 15.8391 15.776 15.6978 15.9948 15.479C16.7105 14.7633 17.4968 14.2619 18.3629 13.9656C18.8689 13.7946 19.0216 13.7582 19.6051 13.6761C19.9311 13.6305 20.0564 13.6237 20.5396 13.6282C20.8861 13.6328 21.2143 13.6488 21.4057 13.6716Z" fill="white"/>
<path d="M19.8442 14.3254C19.4453 14.3755 19.0601 14.4621 18.6589 14.5943C18.023 14.804 17.3506 15.1778 16.8446 15.6018C16.6099 15.7978 16.1905 16.2308 16.0013 16.4724C15.6663 16.8987 15.3335 17.4844 15.1626 17.9494C15.1466 17.9927 15.1238 18.0497 15.1147 18.0748C14.9984 18.3551 14.864 18.9751 14.864 19.2326C14.864 19.3056 14.8548 19.3603 14.8435 19.3534C14.7865 19.317 14.7842 20.4703 14.8412 20.8099C14.9323 21.3751 15.0691 21.8561 15.2583 22.2914C15.509 22.8635 15.8782 23.4333 16.2862 23.8732C16.6236 24.2379 17.0794 24.6254 17.3757 24.7986C17.3962 24.81 17.4874 24.8647 17.574 24.9194C17.8361 25.0789 18.1415 25.2294 18.3968 25.3251C18.4789 25.357 18.5655 25.3912 18.5906 25.4026C18.7091 25.455 19.108 25.5553 19.5775 25.651C19.8487 25.7057 20.4527 25.7308 20.8858 25.7035C21.3713 25.6715 21.6607 25.6191 22.2283 25.4619C22.3764 25.4208 22.6978 25.2955 22.9052 25.1975C22.985 25.1587 23.0534 25.1291 23.0602 25.1291C23.0739 25.1291 23.5935 24.8305 23.6277 24.8054C23.6414 24.794 23.7645 24.7051 23.9012 24.6048C24.1702 24.4111 24.234 24.3564 24.5166 24.0806C24.8722 23.7319 25.009 23.5655 25.3098 23.1119C25.4306 22.9319 25.4853 22.8316 25.6358 22.5307C25.8249 22.1478 25.9161 21.8948 26.0643 21.3455C26.1053 21.1928 26.1645 20.819 26.1965 20.5136C26.2238 20.2446 26.2079 19.4514 26.1691 19.1916C26.1212 18.8657 25.9799 18.2617 25.9207 18.1203C25.9093 18.0953 25.8682 17.9882 25.8272 17.881C25.6631 17.4457 25.3759 16.9534 25.0318 16.5135C24.6899 16.0804 24.0517 15.4878 23.6391 15.2188C23.5571 15.1664 23.4705 15.1072 23.4454 15.0889C23.3497 15.016 22.6864 14.6969 22.5223 14.6422C22.479 14.6285 22.422 14.6103 22.3969 14.5989C22.1485 14.494 21.6539 14.3846 21.1433 14.3254C20.9519 14.3026 20.0379 14.3026 19.8442 14.3254Z" fill="white"/>
</svg>
