<svg width="21" height="15" viewBox="0 0 21 15" fill="none" xmlns="http://www.w3.org/2000/svg">
<path fill-rule="evenodd" clip-rule="evenodd" d="M1.13846 13.946C1.82145 14.6001 2.75379 15 3.77222 15H17.2278C19.2905 15 21 13.3594 21 11.2896V3.71039C21 1.64058 19.2905 0 17.2278 0H3.77222C1.70954 0 0 1.64058 0 3.71039V11.2896C0 12.3321 0.433705 13.2658 1.12779 13.9357V13.9569L1.13846 13.946ZM3.77222 1.08275C2.95974 1.08275 2.24038 1.42615 1.74747 1.96491L8.95742 9.30904C9.34631 9.70517 9.86483 9.91644 10.4093 9.91644C10.9278 9.91644 11.4463 9.73158 11.8352 9.33545L19.1628 1.87147C18.6743 1.38676 17.9922 1.08275 17.2278 1.08275H10.5H3.77222ZM1.06296 3.71039C1.06296 3.36675 1.13176 3.03658 1.25733 2.73325L6.0796 7.64527L1.34889 12.464C1.16558 12.1089 1.06296 11.7093 1.06296 11.2896V3.71039ZM1.89049 13.18L6.70183 8.27907L8.3352 9.94285C8.90557 10.5238 9.65742 10.8143 10.4093 10.8143C11.1611 10.8143 11.887 10.5238 12.4574 9.96926L14.1167 8.27907L19.0129 13.2664C18.5391 13.6702 17.9169 13.9173 17.2278 13.9173H3.77222C3.03516 13.9173 2.37474 13.6346 1.89049 13.18ZM19.586 12.5825C19.81 12.1988 19.937 11.7567 19.937 11.2896V3.71039C19.937 3.31813 19.8474 2.94342 19.686 2.60614L14.7389 7.64527L19.586 12.5825Z" fill="#505050"/>
</svg>
