<svg width="22" height="18" viewBox="0 0 22 18" fill="none" xmlns="http://www.w3.org/2000/svg">
<path fill-rule="evenodd" clip-rule="evenodd" d="M2.6116 17.9236C2.84198 17.9236 3.04337 17.7568 3.04576 17.5265C3.04585 17.5175 3.04589 17.5085 3.04589 17.4995C3.04589 16.0935 1.90604 14.9536 0.499963 14.9536C0.490905 14.9536 0.481858 14.9537 0.472822 14.9538C0.242482 14.9562 0.0756836 15.1575 0.0756836 15.3879V15.5828C0.0756836 15.7983 0.284529 15.9536 0.499963 15.9536C1.35376 15.9536 2.04589 16.6458 2.04589 17.4995C2.04589 17.7149 2.20119 17.9236 2.41654 17.9236H2.6116Z" fill="#505050"/>
<path fill-rule="evenodd" clip-rule="evenodd" d="M6.00126 17.9237C6.24036 17.9237 6.44062 17.7387 6.44062 17.4996C6.44062 14.2187 3.78096 11.5591 0.500109 11.5591C0.260823 11.5591 0.0756836 11.7595 0.0756836 11.9988V12.1521C0.0756836 12.3807 0.27149 12.5591 0.500109 12.5591C3.22868 12.5591 5.44062 14.771 5.44062 17.4996C5.44062 17.728 5.61883 17.9237 5.84728 17.9237H6.00126Z" fill="#505050"/>
<path fill-rule="evenodd" clip-rule="evenodd" d="M2.5 0.026123C1.11929 0.026123 0 1.14541 0 2.52612V5.11802C0 5.39416 0.223858 5.61802 0.5 5.61802C0.776142 5.61802 1 5.39416 1 5.11802V2.52612C1 1.6977 1.67157 1.02612 2.5 1.02612H18.8675C19.6959 1.02612 20.3675 1.6977 20.3675 2.52612V15.499C20.3675 16.3274 19.6959 16.999 18.8675 16.999H12.8807C12.6046 16.999 12.3807 17.2229 12.3807 17.499C12.3807 17.7751 12.6046 17.999 12.8807 17.999H18.8675C20.2482 17.999 21.3675 16.8797 21.3675 15.499V2.52612C21.3675 1.14541 20.2482 0.026123 18.8675 0.026123H2.5Z" fill="#505050"/>
<path fill-rule="evenodd" clip-rule="evenodd" d="M9.40121 17.9234C9.63861 17.9234 9.8351 17.7366 9.8351 17.4991C9.8351 12.3435 5.65564 8.16406 0.500012 8.16406C0.262438 8.16406 0.0754395 8.36069 0.0754395 8.59826V8.74994C0.0754395 8.981 0.268953 9.16406 0.500012 9.16406C5.10335 9.16406 8.8351 12.8958 8.8351 17.4991C8.8351 17.73 9.01804 17.9234 9.24894 17.9234H9.40121Z" fill="#505050"/>
</svg>
