<svg width="34" height="35" viewBox="0 0 34 35" fill="none" xmlns="http://www.w3.org/2000/svg">
<g clip-path="url(#clip0_513_52)">
<path d="M0.594971 34.0762H14.6076V34.4303H0.594971V34.0762ZM18.038 34.0762H33.8735V34.4303H18.038V34.0762Z" fill="#261C02"/>
<path fill-rule="evenodd" clip-rule="evenodd" d="M14.6327 6.33597C15.4555 5.65292 16.4682 5.60232 17.1137 5.60232C18.4555 5.60232 19.177 6.14623 19.5315 6.5257C19.8479 6.85458 19.8985 7.23405 19.9365 7.51233C19.9365 7.61352 19.9745 7.66412 20.0504 7.66412C20.1517 7.66412 20.177 7.60087 20.177 7.41114C20.177 5.9312 20.2656 5.60232 20.2656 5.46318C20.2656 5.38729 20.2403 5.33669 20.1011 5.32404C19.8353 5.32404 19.4175 5.2355 19.1644 5.19755C18.9239 5.14695 18.1137 5.00781 17.3036 5.00781C16.3036 5.00781 15.253 5.09636 14.1137 5.77941C13.0378 6.42451 12.1011 7.66412 12.1011 9.54883C12.1011 12.8123 14.3922 14.2922 17.2909 14.2922C18.215 14.2922 19.0378 14.1657 19.7973 13.761C19.9365 13.6724 19.9492 13.6598 19.9492 13.3309V12.0281C19.9492 11.4335 19.9492 10.9655 19.9492 10.6114C19.9492 10.1939 20.0758 9.99155 20.4049 9.94095C20.5441 9.91566 20.6327 9.90301 20.7213 9.90301C20.8099 9.90301 20.8732 9.87771 20.8732 9.80181C20.8732 9.71327 20.7973 9.68797 20.6327 9.68797C20.2403 9.68797 19.9618 9.72592 19.5947 9.72592C19.2277 9.72592 18.4935 9.68797 17.8732 9.68797C17.8606 9.68797 17.8479 9.68797 17.8353 9.68797C17.8353 8.54955 17.8353 7.49968 17.8479 7.39849C17.8479 7.14551 17.9239 7.01902 18.177 6.96842C18.2277 6.95577 18.3669 6.94312 18.4682 6.94312C18.5441 6.94312 18.5947 6.93047 18.5947 6.87988C18.5947 6.82928 18.5441 6.81663 18.4302 6.81663C18.0251 6.81663 17.5568 6.84193 17.3416 6.84193C17.0378 6.84193 16.5947 6.81663 16.253 6.81663C15.3163 6.81663 14.9745 7.13286 14.8479 7.2467C14.6834 7.39849 14.4682 7.74001 14.4682 8.14478C14.4682 9.21996 15.253 9.96625 16.3289 9.96625C16.3669 9.96625 16.4428 9.96625 16.4808 9.96625C16.5188 9.96625 16.5694 9.9536 16.5694 9.90301C16.5694 9.83976 16.5188 9.81446 16.3542 9.81446C15.9365 9.81446 15.3416 9.34645 15.3416 8.57485C15.3416 8.32187 15.3669 7.82856 15.7846 7.44908C16.0504 7.1961 16.3669 7.15816 16.5315 7.15816C16.6454 7.15816 16.7593 7.15816 16.8226 7.18345C16.8606 7.1961 16.8859 7.2467 16.8859 7.32259V10.3331C16.8859 11.0288 16.8859 11.8004 16.8479 12.1292C16.8226 12.3443 16.7846 12.5087 16.5568 12.534C16.4555 12.5467 16.2909 12.572 16.177 12.572C16.1011 12.572 16.0504 12.5973 16.0504 12.6352C16.0504 12.6858 16.1137 12.7111 16.2023 12.7111C16.696 12.7111 17.177 12.6858 17.3669 12.6858C17.4682 12.6858 17.6201 12.6858 17.8226 12.6858C17.8226 12.6858 17.8226 11.2818 17.8226 9.91566C17.9871 9.91566 18.1644 9.91565 18.253 9.9536C18.6454 10.0421 18.7466 10.2319 18.7593 10.624C18.7593 10.9782 18.7593 11.4335 18.7593 12.0154V13.1285C18.7593 13.3309 18.7087 13.4827 18.5315 13.5712C18.253 13.6977 17.8353 13.6977 17.5188 13.6977C14.5694 13.6977 13.253 11.9142 13.253 9.37174C13.253 7.9171 13.9112 6.90517 14.5694 6.34861L14.6327 6.33597Z" fill="#261C02"/>
<path fill-rule="evenodd" clip-rule="evenodd" d="M12.7849 5.04605C14.0127 4.31241 15.4557 3.89499 17 3.89499C18.5444 3.89499 19.9747 4.31241 21.2026 5.04605C21.4557 4.4389 21.9747 3.6926 22.6962 2.9969C23.038 2.66803 23.3798 2.3771 23.7342 2.14941C23.5823 2.03557 23.4178 1.97233 23.2279 1.97233C22.8735 1.97233 22.5823 2.20001 22.4684 2.51624C22.3798 2.31385 22.1773 2.17471 21.9368 2.17471C21.6203 2.17471 21.3545 2.44034 21.3545 2.75657C21.3545 3.0222 21.5443 3.24988 21.7975 3.31313C21.6076 3.56611 21.3038 3.73055 20.9621 3.73055C20.3798 3.73055 19.9114 3.26253 19.9114 2.68067C19.9114 2.61743 19.9114 2.55418 19.9241 2.50359C19.9874 2.52889 20.0507 2.54153 20.1266 2.54153C20.4431 2.54153 20.7089 2.28855 20.7089 1.95968C20.7089 1.6308 20.4557 1.37782 20.1266 1.37782C19.7975 1.37782 19.5443 1.6308 19.5443 1.95968C19.5443 2.13676 19.6203 2.28855 19.7469 2.40239C19.519 2.74392 19.1393 2.9716 18.6962 2.9716C18 2.9716 17.4431 2.41504 17.4431 1.71934C17.4431 1.6308 17.4431 1.52961 17.4684 1.45371C17.4684 1.46636 17.4684 1.49166 17.4684 1.50431C17.4684 1.82054 17.7342 2.08617 18.0507 2.08617C18.3671 2.08617 18.633 1.83319 18.633 1.50431C18.633 1.17543 18.3798 0.922452 18.0507 0.922452C17.9494 0.922452 17.8481 0.947751 17.7722 0.998347C17.7849 0.935102 17.7975 0.871856 17.7975 0.808611C17.7975 0.365893 17.4431 0.0117188 17.0127 0.0117188C16.5823 0.0117188 16.2279 0.365893 16.2279 0.808611C16.2279 0.871856 16.2279 0.935102 16.2532 0.998347C16.1646 0.947751 16.0633 0.922452 15.9621 0.922452C15.6456 0.922452 15.3798 1.18808 15.3798 1.50431C15.3798 1.82054 15.633 2.08617 15.9621 2.08617C16.2912 2.08617 16.5444 1.83319 16.5444 1.50431C16.5444 1.47901 16.5444 1.46636 16.5444 1.45371C16.5697 1.54226 16.5697 1.6308 16.5697 1.71934C16.5697 2.41504 16 2.9716 15.3165 2.9716C14.8735 2.9716 14.4811 2.74392 14.2659 2.40239C14.3925 2.3012 14.4684 2.13676 14.4684 1.95968C14.4684 1.64345 14.2026 1.37782 13.8861 1.37782C13.5697 1.37782 13.3038 1.6308 13.3038 1.95968C13.3038 2.28855 13.5697 2.54153 13.8861 2.54153C13.9621 2.54153 14.0254 2.54153 14.0887 2.50359C14.0887 2.56683 14.1013 2.61743 14.1013 2.68067C14.1013 3.26253 13.633 3.73055 13.038 3.73055C12.6962 3.73055 12.3925 3.56611 12.2026 3.31313C12.4557 3.24988 12.6456 3.0222 12.6456 2.75657C12.6456 2.44034 12.3925 2.17471 12.0633 2.17471C11.8228 2.17471 11.6203 2.31385 11.5317 2.51624C11.4304 2.20001 11.1266 1.97233 10.7722 1.97233C10.5823 1.97233 10.4051 2.03557 10.2659 2.14941C10.6076 2.3771 10.9494 2.66803 11.2912 2.9969C12.0127 3.6926 12.5317 4.42625 12.7849 5.04605Z" fill="#261C02"/>
<path fill-rule="evenodd" clip-rule="evenodd" d="M5.75947 24.6523C5.60757 24.6523 5.17719 24.627 4.8101 24.627C4.70884 24.627 4.6582 24.6396 4.6582 24.6902C4.6582 24.7408 4.69618 24.7534 4.77213 24.7534C4.87339 24.7534 4.98732 24.7534 5.03795 24.7787C5.2658 24.8293 5.31643 24.9432 5.34175 25.1709C5.35441 25.3985 5.35441 25.5883 5.35441 26.6382V27.8525C5.35441 28.4976 5.35441 29.0415 5.31643 29.3324C5.29111 29.5348 5.25314 29.6866 5.1139 29.7119C5.05061 29.7245 4.962 29.7372 4.86073 29.7372C4.77213 29.7372 4.74681 29.7625 4.74681 29.8004C4.74681 29.851 4.79744 29.8637 4.88605 29.8637C5.16453 29.8637 5.59491 29.8384 5.73415 29.8384C5.83542 29.8384 6.35441 29.8637 6.75947 29.8637C6.84808 29.8637 6.89871 29.8384 6.89871 29.8004C6.89871 29.7625 6.87339 29.7372 6.8101 29.7372C6.72149 29.7372 6.58225 29.7372 6.46833 29.7119C6.2658 29.6866 6.21517 29.5348 6.20251 29.3324C6.16453 29.0415 6.16453 28.4976 6.16453 27.8525V27.7513C6.16453 27.7513 6.18985 27.7007 6.21516 27.7007H6.82276C6.82276 27.7007 6.91137 27.726 6.94934 27.7639C7.03795 27.8651 7.36706 28.3458 7.63289 28.7253C8.02529 29.2565 8.29111 29.5854 8.58225 29.7498C8.75947 29.851 8.93668 29.8763 9.32909 29.8763H9.98732C10.0759 29.8763 10.1139 29.8763 10.1139 29.8131C10.1139 29.7751 10.0886 29.7498 10.0253 29.7498C9.962 29.7498 9.91137 29.7498 9.83542 29.7245C9.73415 29.6992 9.44301 29.6486 9.06327 29.2565C8.6582 28.8264 8.17719 28.2066 7.55694 27.4351C8.25314 26.8658 8.46833 26.3978 8.46833 25.8792C8.46833 25.4112 8.18985 25.057 7.98732 24.9305C7.62023 24.6775 7.15187 24.627 6.70884 24.627C6.49365 24.627 5.962 24.6523 5.73415 24.6523H5.75947ZM7.67086 26.2334C7.67086 26.8026 7.46833 27.1188 7.2658 27.2706C7.13922 27.3592 7.05061 27.3845 6.77213 27.3845C6.59491 27.3845 6.39238 27.3592 6.24048 27.3086C6.18985 27.2833 6.17719 27.258 6.17719 27.1821V25.0697C6.17719 25.0697 6.18985 24.9811 6.24048 24.9685C6.31643 24.9432 6.43035 24.9432 6.60757 24.9432C7.01263 24.9432 7.67086 25.2215 7.67086 26.2081V26.2334Z" fill="#261C02"/>
<path fill-rule="evenodd" clip-rule="evenodd" d="M17.0252 33.4677C17.1644 33.0756 17.1897 32.6329 17.1897 32.2408C17.1897 31.8866 17.1644 31.5577 17.1644 31.2668V26.6499C17.1644 25.6 17.1644 25.3976 17.1771 25.1826C17.1897 24.9423 17.2404 24.8158 17.4303 24.7905C17.5189 24.7905 17.5568 24.7652 17.6328 24.7652C17.7214 24.7652 17.7594 24.7652 17.7594 24.7019C17.7594 24.6387 17.7087 24.6387 17.6075 24.6387C17.3416 24.6387 16.8986 24.664 16.7341 24.664C16.5568 24.664 16.1138 24.6387 15.7467 24.6387C15.6454 24.6387 15.5948 24.6513 15.5948 24.7019C15.5948 24.7525 15.6328 24.7652 15.7087 24.7652C15.81 24.7652 15.9239 24.7652 15.9746 24.7905C16.2024 24.8411 16.253 24.9549 16.2784 25.1826C16.291 25.4103 16.291 25.6 16.291 26.6499V31.9751C16.291 33.3286 16.291 34.0243 15.772 34.5555C15.6328 34.6947 15.5315 34.7706 15.4429 34.8212C15.329 34.8844 15.291 34.9097 15.291 34.9477C15.291 34.9856 15.3163 34.9983 15.3416 34.9983C15.3796 34.9983 15.4303 34.9983 15.4809 34.9603C15.6328 34.8971 15.7341 34.8338 15.8353 34.7832C16.5062 34.3785 16.8733 33.8978 17.0125 33.4677H17.0252Z" fill="#261C02"/>
<path fill-rule="evenodd" clip-rule="evenodd" d="M4.26575 23.9315C4.98727 23.9315 5.886 23.8303 6.4936 23.5141C6.60752 23.4509 6.60752 23.4256 6.60752 23.1852V22.1733C6.60752 21.7179 6.60752 21.3385 6.60752 21.0728C6.60752 20.7439 6.70879 20.5922 6.96195 20.5416C7.07588 20.5289 7.13917 20.5163 7.21512 20.5163C7.27841 20.5163 7.32904 20.5036 7.32904 20.4404C7.32904 20.3645 7.26575 20.3518 7.13917 20.3518C6.83537 20.3518 6.3417 20.3771 6.06322 20.3771C5.78474 20.3771 5.20246 20.3518 4.7341 20.3518C4.60752 20.3518 4.54423 20.3771 4.54423 20.4404C4.54423 20.491 4.59486 20.5163 4.68347 20.5163C4.81005 20.5163 4.96195 20.5163 5.0379 20.5416C5.3417 20.6048 5.43031 20.7566 5.43031 21.0728C5.43031 21.3511 5.43031 21.7053 5.43031 22.1606V23.0208C5.43031 23.1726 5.39233 23.2991 5.25309 23.3623C5.0379 23.4635 4.70879 23.4635 4.46828 23.4635C2.51891 23.4635 1.25309 21.9836 1.25309 19.9977C1.25309 18.8592 1.5822 18.1762 2.10119 17.7335C2.74676 17.2022 3.41765 17.1643 3.92398 17.1643C4.96195 17.1643 5.70879 17.5817 5.98727 17.8853C6.22777 18.1382 6.26575 18.4418 6.30372 18.6442C6.30372 18.7201 6.32904 18.758 6.39233 18.758C6.46828 18.758 6.4936 18.7074 6.4936 18.5683C6.4936 17.4172 6.55689 17.1516 6.55689 17.0504C6.55689 16.9872 6.53157 16.9492 6.43031 16.9366C6.21512 16.9366 5.89866 16.8733 5.69613 16.8354C5.50625 16.7974 4.69613 16.6836 4.06322 16.6836C3.29106 16.6836 2.46828 16.7468 1.5822 17.2781C0.746761 17.7841 -0.0253906 18.8213 -0.0253906 20.3012C-0.0253906 22.8437 1.97461 23.9189 4.24043 23.9189L4.26575 23.9315Z" fill="#261C02"/>
<path fill-rule="evenodd" clip-rule="evenodd" d="M8.82259 17.0004C8.93651 17.0004 9.05044 17.0004 9.1517 17.0383C9.35424 17.0889 9.44284 17.2407 9.46816 17.5569C9.48082 17.8479 9.48082 18.1135 9.48082 19.5049V21.124C9.48082 22.0221 9.48082 22.7431 9.43018 23.1352C9.40487 23.4008 9.34158 23.5652 9.16436 23.6032C9.07575 23.6158 8.96183 23.6411 8.83525 23.6411C8.72132 23.6411 8.68335 23.6664 8.68335 23.717C8.68335 23.7803 8.74664 23.8056 8.87322 23.8056C9.24031 23.8056 9.82259 23.7803 10.0378 23.7803C10.2909 23.7803 10.8732 23.8056 11.4808 23.8056C11.5821 23.8056 11.658 23.7803 11.658 23.717C11.658 23.6664 11.6074 23.6411 11.5061 23.6411C11.3669 23.6411 11.1644 23.6285 11.0378 23.6032C10.7593 23.5652 10.696 23.4008 10.6707 23.1478C10.6327 22.7557 10.6327 22.0221 10.6327 21.124V19.5049C10.6327 18.1008 10.6327 17.8479 10.658 17.5569C10.6707 17.2281 10.7466 17.0763 10.9998 17.0257C11.1137 17.013 11.1897 17.0004 11.2783 17.0004C11.3669 17.0004 11.4302 16.9877 11.4302 16.9118C11.4302 16.8486 11.3542 16.8359 11.2403 16.8359C10.8859 16.8359 10.3416 16.8612 10.1137 16.8612C9.84791 16.8612 9.26563 16.8359 8.9112 16.8359C8.7593 16.8359 8.69601 16.8486 8.69601 16.9118C8.69601 16.9877 8.74664 17.0004 8.84791 17.0004H8.82259Z" fill="#261C02"/>
<path fill-rule="evenodd" clip-rule="evenodd" d="M20.2911 16.8354C19.8354 16.8354 19.4937 16.8607 19.3924 16.8607C19.2025 16.8607 18.7595 16.8354 18.2785 16.8354C18.1392 16.8354 18.038 16.8354 18.038 16.9239C18.038 16.9745 18.0759 17.0125 18.1899 17.0125C18.3164 17.0125 18.5443 17.0125 18.6835 17.0631C18.8987 17.1516 18.9873 17.3287 19 17.8979L19.0886 22.0342H19.038C18.8861 21.8824 17.6329 20.5542 17.0126 19.9344C15.6709 18.5936 14.2658 17.0884 14.1519 16.9745C14 16.8101 13.9114 16.6836 13.8101 16.6836C13.7215 16.6836 13.6835 16.8101 13.6835 16.9998L13.6076 22.4516C13.6076 23.2485 13.557 23.5267 13.3164 23.59C13.1899 23.6279 13.0253 23.6406 12.8987 23.6406C12.8101 23.6406 12.7468 23.6659 12.7468 23.7165C12.7468 23.7924 12.8354 23.805 12.9494 23.805C13.4304 23.805 13.8608 23.7797 13.9494 23.7797C14.1266 23.7797 14.4937 23.805 15.0886 23.805C15.2152 23.805 15.3038 23.7924 15.3038 23.7165C15.3038 23.6659 15.2532 23.6406 15.1519 23.6406C15 23.6406 14.8228 23.6406 14.6709 23.5773C14.481 23.5141 14.3671 23.2738 14.3544 22.5528L14.2532 18.6821H14.2785C14.443 18.8592 15.4683 20.0103 16.481 21.0096C17.443 21.9583 18.6202 23.1726 19.2025 23.7165C19.3038 23.8177 19.4177 23.9189 19.519 23.9189C19.6076 23.9189 19.6329 23.8303 19.6329 23.6279L19.7342 17.8094C19.7342 17.2907 19.8228 17.101 20.0759 17.0251C20.1899 16.9998 20.2658 16.9998 20.3544 16.9998C20.4683 16.9998 20.519 16.9745 20.519 16.9113C20.519 16.8354 20.4177 16.8227 20.3038 16.8227L20.2911 16.8354Z" fill="#261C02"/>
<path fill-rule="evenodd" clip-rule="evenodd" d="M30.7594 20.9326H29.0632C29.0632 20.9326 29.0126 20.9073 29.0252 20.8693L29.8733 18.6051C29.8733 18.6051 29.8987 18.5166 29.924 18.5166C29.9493 18.5166 29.9619 18.5672 29.9746 18.6051L30.81 20.882C30.81 20.882 30.81 20.9326 30.7594 20.9326ZM33.8733 23.6395C33.7594 23.6395 33.6202 23.6395 33.4809 23.6015C33.2911 23.5509 33.0252 23.4244 32.6708 22.6022C32.0759 21.1982 30.6075 17.4414 30.3797 16.9355C30.2911 16.7204 30.2404 16.6445 30.1518 16.6445C30.0632 16.6445 29.9999 16.7457 29.886 17.0114L27.5695 22.8046C27.3797 23.26 27.2151 23.5762 26.7847 23.6395C26.7088 23.6395 26.5822 23.6521 26.5062 23.6521C26.5062 23.6521 26.5062 23.6521 26.4936 23.6521C26.4936 23.6395 26.4936 23.6142 26.5062 23.6015C26.5695 23.3738 26.6835 22.7667 26.6835 22.4758C26.6835 22.2607 26.6708 22.1975 26.5949 22.1975C26.5442 22.1975 26.5189 22.2481 26.5062 22.3493C26.4809 22.4758 26.4176 22.6402 26.3417 22.792C26.1898 23.0703 25.8354 23.2979 24.8987 23.2979H22.6328C23.9366 21.312 25.3417 19.1996 26.6075 17.1378C26.6455 17.0746 26.6835 17.024 26.6835 16.9608C26.6835 16.9102 26.6202 16.8849 26.5316 16.8849H23.7214C23.3417 16.8849 22.8987 16.8849 22.0252 16.8596C21.7974 16.8596 21.7341 16.7963 21.6581 16.7963C21.5949 16.7963 21.5695 16.8469 21.5442 16.9734C21.4936 17.2517 21.3544 18.0865 21.3544 18.3016C21.3544 18.4154 21.3543 18.4533 21.4303 18.4533C21.4809 18.4533 21.5189 18.4154 21.5442 18.2889C21.5695 18.0739 21.7341 17.7324 22.0379 17.5679C22.329 17.4035 22.8987 17.3782 23.367 17.3782H25.1771C23.9366 19.3261 22.5822 21.4006 21.2784 23.4371C21.1645 23.6015 21.1392 23.6521 21.1392 23.7154C21.1392 23.7786 21.1898 23.8039 21.2911 23.8039C23.1518 23.8039 24.7088 23.8545 26.2531 23.8545C26.3417 23.8545 26.3923 23.8292 26.443 23.7913C26.4683 23.8166 26.5189 23.8292 26.5949 23.8292C27.0759 23.8292 27.5822 23.8039 27.6835 23.8039C27.9746 23.8039 28.367 23.8292 28.6581 23.8292C28.7594 23.8292 28.81 23.8039 28.81 23.7407C28.81 23.6901 28.7847 23.6648 28.6708 23.6648H28.5316C28.2404 23.6648 28.1645 23.5509 28.1645 23.3738C28.1645 23.26 28.2151 23.045 28.3037 22.8173L28.7974 21.5018C28.7974 21.5018 28.8354 21.4259 28.886 21.4259H30.9366C30.9366 21.4259 31.0126 21.4385 31.0252 21.4891L31.7594 23.4371C31.81 23.5509 31.7468 23.6268 31.6708 23.6521C31.5822 23.6521 31.5442 23.6774 31.5442 23.7407C31.5442 23.8039 31.6581 23.8039 31.8227 23.8166C32.5569 23.8419 33.2278 23.8419 33.5695 23.8419C33.9113 23.8419 33.9999 23.8166 33.9999 23.7533C33.9999 23.6901 33.9493 23.6774 33.8733 23.6774V23.6395Z" fill="#261C02"/>
<path fill-rule="evenodd" clip-rule="evenodd" d="M12.7088 29.624C11.3796 29.624 10.5822 28.4729 10.5822 27.0436C10.5822 25.3107 11.4936 24.8679 12.291 24.8679C13.4303 24.8679 14.329 25.8293 14.329 27.3851C14.329 29.3837 13.2024 29.624 12.7214 29.624H12.7088ZM12.4936 24.5391C10.405 24.5391 9.63281 26.0696 9.63281 27.2586C9.63281 28.4476 10.4429 29.9782 12.4303 29.9782C14.1898 29.9782 15.3037 28.7259 15.3037 27.1321C15.3037 25.5383 14.2277 24.5391 12.4936 24.5391Z" fill="#261C02"/>
<path fill-rule="evenodd" clip-rule="evenodd" d="M20.1139 25.0073C20.2531 25.0073 20.9873 25.0199 21.1012 25.0326C21.4556 25.0705 21.5189 25.1591 21.5696 25.2855C21.6075 25.3741 21.6075 25.4879 21.6075 25.5385C21.6075 25.6018 21.6202 25.6397 21.6708 25.6397C21.7215 25.6397 21.7341 25.6018 21.7341 25.5638C21.7468 25.4753 21.7594 25.1717 21.7721 25.1085C21.7848 24.7922 21.8227 24.7037 21.8227 24.6531C21.8227 24.6151 21.8227 24.5898 21.7848 24.5898C21.7468 24.5898 21.7088 24.6151 21.6708 24.6151C21.6202 24.6278 21.5063 24.6404 21.367 24.6531C21.2404 24.6531 19.848 24.6531 19.6329 24.6531C19.5316 24.6531 19.3797 24.6531 19.1898 24.6404C19.0126 24.6404 18.8101 24.6404 18.6329 24.6404C18.5316 24.6404 18.481 24.6531 18.481 24.7037C18.481 24.7543 18.5189 24.7669 18.5949 24.7669C18.6961 24.7669 18.8101 24.7669 18.8607 24.7922C19.0886 24.8428 19.1392 24.9567 19.1518 25.1843C19.1645 25.412 19.1645 25.6018 19.1645 26.6516V27.8786C19.1645 28.5111 19.1645 29.0676 19.1265 29.3585C19.1012 29.5609 19.0632 29.7127 18.924 29.738C18.8607 29.7507 18.7721 29.7633 18.6708 29.7633C18.5822 29.7633 18.5569 29.7886 18.5569 29.8139C18.5569 29.8645 18.6075 29.8898 18.6961 29.8898C18.8354 29.8898 19.0126 29.8772 19.1772 29.8772C19.3417 29.8772 19.4936 29.8772 19.5696 29.8772C19.7848 29.8772 19.9999 29.8772 20.2911 29.9025C20.5822 29.9025 20.9746 29.9278 21.4936 29.9278C21.7594 29.9278 21.8227 29.9278 21.8734 29.7507C21.9113 29.6115 21.962 29.1435 21.962 28.9791C21.962 28.9158 21.962 28.8526 21.9113 28.8526C21.8607 28.8526 21.848 28.8779 21.8354 28.9538C21.7848 29.2321 21.7088 29.3838 21.5189 29.4597C21.3417 29.5483 21.0506 29.5483 20.8607 29.5483C20.1518 29.5483 20.0379 29.4471 20.0253 28.9664C20.0253 28.764 20.0253 28.1316 20.0253 27.8913V27.3473C20.0253 27.3473 20.0253 27.2714 20.0632 27.2714C20.2278 27.2714 20.9113 27.2714 21.0506 27.2967C21.3037 27.322 21.405 27.4232 21.443 27.5624C21.4683 27.6509 21.4683 27.7395 21.4683 27.8154C21.4683 27.8533 21.4683 27.8786 21.5316 27.8786C21.5949 27.8786 21.5949 27.8027 21.5949 27.7395C21.5949 27.6889 21.6202 27.4106 21.6202 27.2714C21.6455 26.9173 21.6708 26.8034 21.6708 26.7655C21.6708 26.7275 21.6455 26.7149 21.6202 26.7149C21.5822 26.7149 21.5569 26.7528 21.5063 26.8034C21.443 26.8667 21.3417 26.892 21.1772 26.9046C21.0126 26.9173 20.2151 26.9173 20.0632 26.9173C20.0253 26.9173 20.0126 26.892 20.0126 26.8414V25.0832C20.0126 25.0832 20.0253 25.0199 20.0632 25.0199L20.1139 25.0073Z" fill="#261C02"/>
<path fill-rule="evenodd" clip-rule="evenodd" d="M26 24.8806C26.6329 24.8806 27.1772 25.0703 27.405 25.3107C27.5823 25.4877 27.6709 25.7281 27.6709 25.9431C27.6709 26.0443 27.6709 26.0949 27.7342 26.0949C27.7974 26.0949 27.8101 26.0443 27.8228 25.9431C27.8354 25.804 27.8228 25.4245 27.8481 25.1968C27.8607 24.9565 27.8861 24.8679 27.8861 24.8173C27.8861 24.7794 27.8607 24.7414 27.7848 24.7288C27.5823 24.7035 27.3544 24.6403 27.0886 24.615C26.7721 24.577 26.5063 24.5391 26.0759 24.5391C25.038 24.5391 24.3797 24.8173 23.8861 25.2727C23.2152 25.8799 23.0759 26.7021 23.0759 27.1701C23.0759 27.8405 23.2531 28.6247 23.9367 29.2192C24.5696 29.7631 25.3671 29.9782 26.3164 29.9782C26.7595 29.9782 27.2911 29.9276 27.5696 29.8137C27.6835 29.7631 27.7215 29.7252 27.7468 29.6113C27.8228 29.371 27.8987 28.7765 27.8987 28.688C27.8987 28.6374 27.8861 28.5868 27.8354 28.5868C27.7848 28.5868 27.7595 28.6121 27.7468 28.7259C27.7215 28.8524 27.6329 29.0548 27.5063 29.1813C27.2278 29.4975 26.8481 29.5734 26.2405 29.5734C25.3164 29.5734 24.0506 28.7512 24.0506 27.1068C24.0506 26.4364 24.1772 25.7787 24.6835 25.3107C24.9873 25.0324 25.3924 24.8806 25.9873 24.8806H26Z" fill="#261C02"/>
<path fill-rule="evenodd" clip-rule="evenodd" d="M1.15184 29.3441C1.12653 29.5465 1.08855 29.6983 0.949311 29.7236C0.88602 29.7363 0.810071 29.7489 0.696147 29.7489C0.607539 29.7489 0.582223 29.7742 0.582223 29.7995C0.582223 29.8501 0.632856 29.8627 0.721463 29.8627C0.999944 29.8627 1.43032 29.8374 1.59488 29.8374C1.7721 29.8374 2.21513 29.8627 2.67083 29.8627C2.74678 29.8627 2.79741 29.8374 2.79741 29.7995C2.79741 29.7615 2.75944 29.7489 2.68349 29.7489C2.58222 29.7489 2.43032 29.7363 2.32906 29.7236C2.12653 29.6983 2.07589 29.5465 2.06324 29.3441C2.02526 29.0532 2.02526 28.4966 2.02526 27.8642V25.094C2.02526 25.0181 2.03792 24.9802 2.07589 24.9675C2.13918 24.9423 2.24045 24.9422 2.34172 24.9422C2.50627 24.9422 2.78475 24.9802 3.03792 25.2079C3.43032 25.5494 3.44298 26.0174 3.44298 26.2451C3.44298 26.9535 2.89868 27.3962 2.50627 27.3962C2.35437 27.3962 2.3164 27.4215 2.3164 27.4721C2.3164 27.5227 2.36703 27.5227 2.40501 27.5353C2.44298 27.5353 2.51893 27.5353 2.55691 27.5353C3.54425 27.5353 4.26577 26.8396 4.26577 25.853C4.26577 25.4862 4.07589 25.1699 3.92399 25.0308C3.81007 24.9296 3.49362 24.6387 2.63286 24.6387C2.3164 24.6387 1.91134 24.664 1.63286 24.664C1.44298 24.664 0.999944 24.6387 0.632856 24.6387C0.53159 24.6387 0.480957 24.6513 0.480957 24.7019C0.480957 24.7525 0.518932 24.7652 0.594881 24.7652C0.696147 24.7652 0.810071 24.7652 0.860704 24.7905C1.08855 24.8411 1.13918 24.9423 1.1645 25.1826C1.17716 25.3976 1.17716 25.6 1.17716 26.6499V27.8768C1.17716 28.5093 1.17716 29.0658 1.13918 29.3568L1.15184 29.3441Z" fill="#261C02"/>
<path fill-rule="evenodd" clip-rule="evenodd" d="M32.9619 25.4361V25.512C32.9745 25.6132 32.9872 25.6512 33.0505 25.6512C33.0884 25.6512 33.1011 25.6132 33.1138 25.5373C33.1138 25.3602 33.1391 24.8796 33.1391 24.7278C33.1391 24.6266 33.1391 24.576 33.0884 24.576C33.0631 24.576 32.9998 24.5886 32.8986 24.6139C32.7973 24.6266 32.6454 24.6519 32.4176 24.6519H29.6707C29.4429 24.6519 29.177 24.6392 28.9745 24.6139C28.7973 24.6013 28.734 24.5254 28.6707 24.5254C28.6327 24.5254 28.6074 24.5633 28.5948 24.6519C28.5821 24.7025 28.4429 25.3349 28.4429 25.4488C28.4429 25.5247 28.4429 25.5626 28.5062 25.5626C28.5441 25.5626 28.5695 25.5373 28.5821 25.4741C28.5948 25.4235 28.6327 25.3349 28.696 25.2337C28.7973 25.082 28.9619 25.044 29.3669 25.0314L30.4049 25.0061V27.8521C30.4049 28.4846 30.4049 29.0411 30.3669 29.332C30.3416 29.5344 30.3036 29.6862 30.1644 29.7115C30.1011 29.7115 30.0125 29.7368 29.9112 29.7368C29.8353 29.7368 29.7973 29.7621 29.7973 29.7874C29.7973 29.838 29.8479 29.8633 29.9365 29.8633C30.215 29.8633 30.6454 29.838 30.81 29.838C30.9998 29.838 31.4429 29.8633 31.8986 29.8633C31.9745 29.8633 32.0251 29.838 32.0251 29.7874C32.0251 29.7495 31.9872 29.7368 31.9112 29.7368C31.81 29.7368 31.6581 29.7242 31.5568 29.7115C31.3543 29.6862 31.3036 29.5344 31.291 29.332C31.253 29.0285 31.253 28.4846 31.253 27.8521V25.0061L32.1264 25.0314C32.7467 25.044 32.9365 25.2337 32.9492 25.4235L32.9619 25.4361Z" fill="#261C02"/>
</g>
<defs>
<clipPath id="clip0_513_52">
<rect width="34" height="35" fill="white"/>
</clipPath>
</defs>
</svg>
