<svg width="20" height="20" viewBox="0 0 20 20" fill="none" xmlns="http://www.w3.org/2000/svg">
<g clip-path="url(#clip0_128_2982)">
<path fill-rule="evenodd" clip-rule="evenodd" d="M9.99937 0C10.1994 0 10.3953 0.0367835 10.5822 0.108455C11.1435 0.323847 11.4935 0.788381 11.8504 1.24647C11.9688 1.39853 12.2403 1.7584 12.432 1.81529C12.6238 1.87217 13.0453 1.71745 13.2265 1.65412C13.9713 1.3936 14.724 1.14332 15.452 1.61506C15.6204 1.72428 15.7655 1.86193 15.8844 2.02423C16.2412 2.51152 16.2867 3.09323 16.3412 3.67304C16.3592 3.86568 16.3949 4.31657 16.5258 4.46863C16.6566 4.62107 17.0939 4.72043 17.2804 4.76593C18.0478 4.95326 18.8129 5.15007 19.1735 5.94642C19.2566 6.12996 19.3051 6.32487 19.3179 6.52623C19.3562 7.1197 19.0795 7.65173 18.8182 8.16253C18.7302 8.33431 18.5185 8.73287 18.5467 8.93271C18.5753 9.13218 18.8896 9.45451 19.022 9.59443C19.5668 10.1705 20.1052 10.7533 19.9815 11.6198C19.9529 11.8196 19.8894 12.01 19.7924 12.1863C19.5014 12.7161 18.9953 12.9994 18.4952 13.2902C18.329 13.3869 17.9373 13.6069 17.8542 13.79C17.7711 13.9732 17.8628 14.4161 17.8993 14.6061C18.0489 15.3877 18.1895 16.1715 17.621 16.8332C17.4902 16.9856 17.3342 17.1112 17.1582 17.2067C16.6296 17.4934 16.0517 17.4559 15.4749 17.4282C15.2831 17.4187 14.8357 17.3903 14.6677 17.4991C14.4996 17.6083 14.3394 18.0304 14.2684 18.2101C13.9755 18.9492 13.6732 19.6853 12.8403 19.9321C12.6486 19.989 12.4501 20.0095 12.2508 19.9939C11.6522 19.9469 11.1864 19.6003 10.716 19.2624C10.5596 19.1502 10.1986 18.8821 9.99899 18.8821C9.79934 18.8821 9.43801 19.1502 9.28198 19.2624C8.64317 19.7217 7.98181 20.1763 7.15764 19.9325C6.96589 19.8756 6.78804 19.785 6.62862 19.6629C6.15036 19.2969 5.94395 18.7513 5.72963 18.2105C5.65857 18.0308 5.4984 17.6083 5.33033 17.4995C5.16226 17.3906 4.71484 17.4191 4.52308 17.4286C3.73463 17.4669 2.94543 17.4953 2.37694 16.834C2.24609 16.6815 2.14495 16.5082 2.07652 16.3186C1.87161 15.7532 1.98967 15.1761 2.0987 14.6069C2.13517 14.4169 2.22692 13.9743 2.14382 13.7908C2.06073 13.6073 1.66895 13.3877 1.50276 13.291C0.818836 12.8932 0.139799 12.4871 0.0160987 11.6206C-0.0124765 11.4207 -0.00420478 11.2201 0.03941 11.0233C0.17063 10.4325 0.577075 10.0169 0.975623 9.59519C1.10797 9.45526 1.42267 9.13293 1.45087 8.93347C1.47945 8.734 1.26739 8.33545 1.17941 8.16329C0.819964 7.46023 0.467662 6.73518 0.824476 5.94718C0.907569 5.76364 1.02187 5.59906 1.16437 5.45724C1.59149 5.03176 2.15623 4.90359 2.71758 4.76669C2.90407 4.72119 3.34135 4.62145 3.47219 4.46939C3.60304 4.31695 3.63876 3.86606 3.6568 3.6738C3.73163 2.88125 3.81585 2.08946 4.54602 1.61582C4.71446 1.50661 4.8987 1.43077 5.09459 1.38905C5.68113 1.26429 6.22631 1.46452 6.7715 1.65488C6.95273 1.71821 7.37421 1.87293 7.56596 1.81604C7.75772 1.75916 8.02918 1.39929 8.14762 1.24723C8.63603 0.62039 9.13121 0 9.99937 0Z" fill="#505050"/>
<path fill-rule="evenodd" clip-rule="evenodd" d="M9.9994 0.857666C9.90277 0.857666 9.80915 0.875489 9.71854 0.909997C9.53769 0.979393 9.38278 1.11136 9.24968 1.25015C9.09364 1.41359 8.95565 1.59789 8.81654 1.77612C8.54959 2.11854 8.23714 2.51027 7.8055 2.63806C7.37424 2.76586 6.90125 2.60697 6.4933 2.46439C6.28087 2.39006 6.06618 2.31043 5.84697 2.25809C5.66048 2.21373 5.45971 2.18718 5.27021 2.22738C5.17546 2.24748 5.08748 2.2835 5.00589 2.33621C4.9243 2.38892 4.85511 2.45491 4.79796 2.5334C4.68291 2.6904 4.62351 2.88569 4.58628 3.0753C4.54267 3.29789 4.525 3.52807 4.50394 3.75408C4.46296 4.1879 4.40994 4.6877 4.11554 5.03013C3.82114 5.37294 3.338 5.49694 2.91839 5.59971C2.69994 5.65318 2.47623 5.70323 2.26417 5.7787C2.0837 5.84278 1.90059 5.93 1.7626 6.06728C1.6938 6.13591 1.6389 6.21441 1.59867 6.30314C1.55844 6.39188 1.5355 6.48517 1.52911 6.58224C1.5167 6.77716 1.57122 6.97397 1.64116 7.15372C1.7235 7.36494 1.83254 7.56782 1.93556 7.76956C2.1337 8.15673 2.35667 8.6061 2.29275 9.05508C2.22883 9.50369 1.88893 9.87191 1.59077 10.187C1.43549 10.3512 1.27419 10.515 1.1362 10.6944C1.01852 10.8469 0.911362 11.0202 0.868875 11.2109C0.84782 11.3061 0.843684 11.402 0.857596 11.4987C0.871507 11.5954 0.901962 11.6861 0.948961 11.7714C1.04296 11.9424 1.19411 12.0778 1.34977 12.1908C1.5325 12.3235 1.7329 12.435 1.92766 12.5484C2.30177 12.766 2.7304 13.0224 2.91727 13.435C3.10413 13.8476 3.0154 14.3421 2.93343 14.7698C2.89095 14.9924 2.8432 15.2184 2.82289 15.4444C2.8056 15.6367 2.80823 15.8411 2.87478 16.0246C2.90787 16.1164 2.95599 16.1991 3.01953 16.273C3.08308 16.3469 3.15752 16.4065 3.2425 16.4527C3.4132 16.5453 3.61322 16.5767 3.80422 16.587C4.02907 16.5991 4.25729 16.5836 4.48213 16.5726C4.91339 16.5517 5.41158 16.5335 5.78982 16.7789C6.16807 17.0238 6.3587 17.4884 6.51887 17.893C6.60234 18.1035 6.68317 18.3196 6.78732 18.5206C6.87606 18.692 6.98773 18.8623 7.14188 18.9802C7.21896 19.0393 7.30356 19.0826 7.39643 19.1103C7.4893 19.1379 7.58404 19.1474 7.6803 19.1398C7.87356 19.1247 8.05854 19.042 8.22511 18.9464C8.42062 18.8342 8.60448 18.6965 8.78759 18.565C9.13914 18.312 9.54859 18.0253 9.99827 18.0253C10.448 18.0253 10.857 18.312 11.209 18.565C11.3921 18.6965 11.5759 18.8342 11.7714 18.9464C11.9376 19.042 12.123 19.1247 12.3162 19.1398C12.4129 19.1474 12.5072 19.1379 12.6001 19.1103C12.693 19.0826 12.7776 19.0393 12.8547 18.9802C13.0088 18.8623 13.1205 18.6916 13.2092 18.5206C13.3134 18.3192 13.3942 18.1035 13.4781 17.893C13.6382 17.4884 13.8289 17.0242 14.2071 16.7789C14.5853 16.5339 15.0835 16.5517 15.5148 16.5726C15.7393 16.5836 15.9679 16.5987 16.1927 16.587C16.3841 16.5767 16.5841 16.5453 16.7548 16.4527C16.8402 16.4065 16.9146 16.3469 16.9778 16.273C17.0413 16.1991 17.0891 16.1164 17.1225 16.0246C17.1891 15.8411 17.1917 15.6371 17.1744 15.4444C17.1541 15.2184 17.1067 14.9924 17.0639 14.7698C16.9819 14.3421 16.8932 13.8476 17.08 13.435C17.2669 13.0224 17.6955 12.766 18.0696 12.5484C18.2644 12.435 18.4648 12.3235 18.6475 12.1908C18.8028 12.0778 18.9543 11.942 19.0483 11.7714C19.0953 11.6861 19.1258 11.5954 19.1397 11.4987C19.1536 11.402 19.1495 11.3061 19.1284 11.2109C19.0859 11.0202 18.9788 10.8472 18.8611 10.6944C18.7231 10.5154 18.5618 10.3512 18.4065 10.187C18.1084 9.87191 17.7685 9.50407 17.7046 9.05508C17.6406 8.6061 17.864 8.15673 18.0617 7.76956C18.1648 7.56782 18.2738 7.36494 18.3561 7.15372C18.4265 6.97397 18.481 6.77716 18.4686 6.58224C18.4622 6.48479 18.4392 6.39188 18.399 6.30314C18.3588 6.21441 18.3039 6.13591 18.2351 6.06728C18.0971 5.93 17.914 5.84278 17.7335 5.7787C17.5211 5.70323 17.2977 5.65318 17.0793 5.59971C16.6597 5.49732 16.1765 5.37294 15.8821 5.03013C15.5877 4.68732 15.5347 4.18752 15.4937 3.75408C15.4723 3.52845 15.455 3.29827 15.4114 3.0753C15.3742 2.88569 15.3144 2.69077 15.1993 2.5334C15.1418 2.45491 15.0726 2.38892 14.9914 2.33621C14.9098 2.2835 14.8218 2.24748 14.7271 2.22738C14.5376 2.18718 14.3368 2.21373 14.1503 2.25809C13.9315 2.31043 13.7164 2.39006 13.504 2.46439C13.096 2.60697 12.6231 2.76586 12.1918 2.63806C11.7605 2.51027 11.4477 2.11892 11.1808 1.77612C11.0416 1.59789 10.9037 1.41359 10.7476 1.25015C10.6145 1.11098 10.46 0.979393 10.2791 0.909997C10.1885 0.87511 10.0953 0.857666 9.99827 0.857666" fill="white"/>
<path fill-rule="evenodd" clip-rule="evenodd" d="M12.2076 12.9439C11.7399 12.9439 11.4075 12.4722 11.4075 11.8749V11.8541C11.4075 11.2883 11.6985 10.806 12.187 10.806C12.6754 10.806 12.9871 11.2879 12.9871 11.8749V11.8958C12.9871 12.4616 12.696 12.9439 12.2076 12.9439ZM7.81232 9.19241C7.34459 9.19241 7.01221 8.72067 7.01221 8.12341V8.10255C7.01221 7.53677 7.30323 7.05441 7.79164 7.05441C8.28005 7.05441 8.59175 7.53639 8.59175 8.12341V8.14427C8.59175 8.71005 8.30073 9.19241 7.81232 9.19241ZM12.1866 13.7509C13.2153 13.7509 13.9116 12.8916 13.9116 11.8749V11.8541C13.9116 10.848 13.2258 9.99899 12.2076 9.99899C11.1895 9.99899 10.4826 10.848 10.4826 11.8749V11.8958C10.4826 12.9019 11.1684 13.7509 12.1866 13.7509ZM7.18893 13.3106C7.18893 13.5412 7.36564 13.7194 7.59425 13.7194C7.73975 13.7194 7.87473 13.6565 7.95783 13.531L12.7273 6.95999C12.7791 6.8868 12.8209 6.79238 12.8209 6.68734C12.8209 6.45677 12.634 6.27854 12.4054 6.27854C12.2599 6.27854 12.1249 6.34149 12.052 6.46701L7.28255 13.038C7.23066 13.1112 7.18893 13.2056 7.18893 13.3106ZM7.79126 9.99899C8.8305 9.99899 9.5163 9.1397 9.5163 8.12303V8.10217C9.5163 7.09613 8.84103 6.24707 7.81232 6.24707C6.78361 6.24707 6.08728 7.09613 6.08728 8.12303V8.14389C6.08728 9.14994 6.77309 9.99899 7.79126 9.99899Z" fill="#505050"/>
</g>
<defs>
<clipPath id="clip0_128_2982">
<rect width="20" height="20" fill="white"/>
</clipPath>
</defs>
</svg>
