<svg width="45" height="16" viewBox="0 0 45 16" fill="none" xmlns="http://www.w3.org/2000/svg">
<path d="M2.75993 5.00005V6.72005C3.23993 5.44005 4.43993 4.80005 5.79993 4.80005V7.68005C5.01993 7.58005 4.29993 7.74005 3.67993 8.16005C3.05993 8.58005 2.75993 9.26005 2.75993 10.22V15H0.179932V5.00005H2.75993Z" fill="black"/>
<path d="M23.5599 0.720002V3.2C22.1399 3.1 21.4399 3.66 21.4399 4.9V5H23.5599V7.48H21.4399V15H18.8599V7.48H17.4199V5H18.8599V4.9C18.8599 2.08 20.4399 0.540002 23.5599 0.720002Z" fill="black"/>
<path d="M14.2799 6.17997V4.99997H16.8599V15H14.2799V13.82C13.4999 14.8 12.4199 15.28 11.0199 15.28C9.67991 15.28 8.53991 14.78 7.57991 13.76C6.63991 12.74 6.15991 11.48 6.15991 9.99997C6.15991 8.51997 6.63991 7.27997 7.57991 6.25997C8.53991 5.23997 9.67991 4.71997 11.0199 4.71997C12.4199 4.71997 13.4999 5.19997 14.2799 6.17997ZM9.51991 12.04C10.0399 12.56 10.6999 12.82 11.4999 12.82C12.2999 12.82 12.9599 12.56 13.4799 12.04C14.0199 11.5 14.2799 10.82 14.2799 9.99997C14.2799 9.17997 14.0199 8.49997 13.4799 7.97997C12.9599 7.43997 12.2999 7.17997 11.4999 7.17997C10.6999 7.17997 10.0399 7.43997 9.51991 7.97997C8.99991 8.49997 8.73991 9.17997 8.73991 9.99997C8.73991 10.82 8.99991 11.5 9.51991 12.04Z" fill="black"/>
<path d="M33.5597 14.9999H30.9797V0.399902H33.5597V14.9999Z" fill="black"/>
<path d="M30.3597 0.720002V3.2C28.9397 3.1 28.2397 3.66 28.2397 4.9V5H30.3597V7.48H28.2397V15H25.6597V7.48H24.2197V5H25.6597V4.9C25.6597 2.08 27.2397 0.540002 30.3597 0.720002Z" fill="black"/>
<path d="M44.6997 11.06H37.1597C37.4997 12.32 38.4397 12.94 39.9797 12.94C40.9597 12.94 41.7197 12.6 42.2197 11.94L44.2997 13.14C43.3197 14.56 41.8597 15.28 39.9397 15.28C38.2797 15.28 36.9597 14.78 35.9597 13.78C34.9597 12.78 34.4597 11.52 34.4597 9.99997C34.4597 8.49997 34.9597 7.23997 35.9397 6.23997C36.9197 5.21997 38.1997 4.71997 39.7397 4.71997C41.1997 4.71997 42.4197 5.21997 43.3597 6.23997C44.3197 7.25997 44.7997 8.49997 44.7997 9.99997C44.7997 10.34 44.7597 10.68 44.6997 11.06ZM37.1197 9.05997H42.2197C41.9197 7.69997 40.9197 7.03997 39.7397 7.03997C38.3597 7.03997 37.4197 7.77997 37.1197 9.05997Z" fill="black"/>
</svg>
