<svg width="181" height="54" viewBox="0 0 181 54" fill="none" xmlns="http://www.w3.org/2000/svg">
<path fill-rule="evenodd" clip-rule="evenodd" d="M139.431 7.5H23.75C10.9094 7.5 0.499995 17.9094 0.499995 30.75C0.499995 43.5906 10.9094 54 23.75 54H158C170.703 54 181 43.7025 181 31V15.5C181 11.0817 177.418 7.5 173 7.5H165.877C164.863 7.44422 163.799 7.35407 163.293 7.24593C161.818 6.93089 159.857 4.90761 158.867 3.78049C157.764 2.5241 155.194 0.0150803 152.62 6.76747e-05V0L152.609 1.73307e-05L152.597 0V7.0971e-05C150.083 0.0154437 147.574 2.52433 146.497 3.7807C145.531 4.90788 143.616 6.93128 142.175 7.24633C141.681 7.35438 140.522 7.44433 139.431 7.5Z" fill="url(#paint0_linear_759_501)"/>
<defs>
<linearGradient id="paint0_linear_759_501" x1="181" y1="39" x2="45.0001" y2="28.5" gradientUnits="userSpaceOnUse">
<stop stop-color="#FE21AC"/>
<stop offset="1" stop-color="#FA1D33"/>
</linearGradient>
</defs>
</svg>
