<svg width="30" height="24" viewBox="0 0 30 24" fill="none" xmlns="http://www.w3.org/2000/svg">
<g clip-path="url(#clip0_1_103)">
<path d="M2.88416 -0.0979443C1.70422 0.213593 0.77478 1.12225 0.464966 2.27105C0.319946 2.79677 0.319946 21.2035 0.464966 21.7292C0.695679 22.5924 1.40759 23.4686 2.15906 23.8256C2.98962 24.228 2.2052 24.2021 14.9999 24.2021C25.2172 24.2021 26.7531 24.1891 27.0892 24.1047C28.2889 23.7932 29.225 22.891 29.5348 21.7292C29.6798 21.2035 29.6798 2.79677 29.5348 2.27105C29.3041 1.40133 28.6053 0.531622 27.8407 0.17465C27.0101 -0.227753 27.8011 -0.201792 14.9669 -0.195301C5.02649 -0.195301 3.18079 -0.18232 2.88416 -0.0979443ZM26.7333 2.19965C26.8717 2.27105 27.0563 2.42032 27.142 2.53715C27.2804 2.73186 27.2936 2.83571 27.3134 3.54965L27.3397 4.34797L27.0167 4.29605C26.6014 4.22465 3.39832 4.22465 2.98303 4.29605L2.66003 4.34797L2.6864 3.54965C2.70618 2.83571 2.71936 2.73186 2.85779 2.53715C2.94348 2.42032 3.12146 2.27105 3.2533 2.19965C3.4906 2.07633 3.74768 2.07633 14.9867 2.06984C26.3048 2.06984 26.4762 2.06984 26.7333 2.19965ZM26.7135 6.6196C26.9047 6.71047 27.0563 6.84677 27.1617 7.0285C27.3134 7.28162 27.3265 7.37249 27.3265 8.06047V8.80686L27.0826 8.73547C26.7267 8.62513 3.27307 8.62513 2.92371 8.73547L2.67322 8.80686V8.05398C2.67322 7.14532 2.78528 6.87922 3.25989 6.63258L3.54993 6.4833H14.9867H26.4301L26.7135 6.6196ZM26.4828 10.9617C26.6212 11.0006 26.819 11.1045 26.931 11.2018C27.2672 11.4744 27.3265 11.6626 27.3265 12.422V13.1035H24.2482C20.86 13.1035 20.8138 13.11 20.0096 13.5059C19.3505 13.8369 18.8099 14.4146 18.3287 15.3102C17.8278 16.2513 17.3597 16.7381 16.6017 17.1081C15.692 17.5624 14.7626 17.6208 13.8529 17.2963C12.8378 16.9393 12.2577 16.4071 11.671 15.3037C11.1898 14.4081 10.6361 13.8174 9.98352 13.4994C9.17273 13.11 9.13318 13.1035 5.75818 13.1035H2.67322V12.422C2.67322 11.6886 2.72595 11.5069 3.02258 11.2343C3.39832 10.8838 2.83142 10.9033 14.9669 10.8968C22.5277 10.8968 26.318 10.9227 26.4828 10.9617Z" fill="black"/>
</g>
<defs>
<clipPath id="clip0_1_103">
<rect width="30" height="24" fill="white"/>
</clipPath>
</defs>
</svg>
