<svg width="47" height="48" viewBox="0 0 47 48" fill="none" xmlns="http://www.w3.org/2000/svg">
<rect x="5.89404" y="0.560269" width="40.2991" height="41.3859" rx="12.5" transform="rotate(7.40471 5.89404 0.560269)" fill="#9E2828" stroke="white"/>
<path d="M28.7412 24.4007C27.0015 25.4738 24.8892 25.9789 22.696 25.6939C20.5028 25.4089 18.588 24.3805 17.1822 22.8985C13.441 24.427 10.6124 27.8397 10.059 32.098C9.2354 38.4355 32.4509 41.4526 33.2745 35.1151C33.8279 30.8568 31.9656 26.8345 28.7412 24.4008L28.7412 24.4007ZM18.7315 22.3897C19.8537 23.381 21.2793 24.0593 22.8814 24.2675C24.4834 24.4757 26.0333 24.1841 27.3715 23.5126C29.5722 22.4104 31.1987 20.2832 31.5372 17.6788C32.0818 13.4888 29.0889 9.64706 24.853 9.09656C20.6171 8.54606 16.7399 11.495 16.1953 15.6849C15.8569 18.2892 16.8859 20.7598 18.7315 22.3897Z" fill="white"/>
</svg>
