<svg width="26" height="26" viewBox="0 0 26 26" fill="none" xmlns="http://www.w3.org/2000/svg">
<g clip-path="url(#clip0_1_86)">
<path d="M12.0117 0.924968C10.8168 1.15856 9.61291 1.80544 8.76838 2.67692C7.66331 3.79997 7.07034 5.21051 6.99846 6.89059C6.87268 9.9902 8.65159 13.2605 11.1313 14.4734C12.3621 15.0754 13.593 15.0843 14.8418 14.4914C17.8696 13.0718 19.8012 8.39098 18.7141 5.13864C18.0672 3.22497 16.6207 1.74255 14.7969 1.14059C14.2219 0.951921 12.5598 0.817155 12.0117 0.924968Z" fill="#151515"/>
<path d="M7.42972 14.3656C5.36331 15.1023 3.45863 16.0547 2.3266 16.9172C1.6348 17.4383 1.38324 17.8605 1.00589 19.1543C0.664487 20.2953 0.619565 21.041 0.853159 21.4992C1.0598 21.9125 1.65277 22.5054 2.22777 22.8828C3.55746 23.7722 6.20785 24.5449 9.15472 24.9222C10.6551 25.1109 14.9856 25.1379 16.459 24.9672C20.3493 24.5179 23.2871 23.5297 24.5809 22.2359C25.3625 21.4543 25.4614 20.9062 25.093 19.5136C24.5989 17.6898 24.3743 17.3394 23.0625 16.4769C21.9754 15.7582 19.352 14.5722 17.9684 14.159L17.5821 14.0511L17.1598 14.4465C15.5516 15.9468 13.566 16.5308 11.7243 16.0636C10.6641 15.7941 9.42425 15.0843 8.74144 14.3566C8.58871 14.2039 8.40902 14.0781 8.33714 14.0871C8.25628 14.0871 7.85199 14.2129 7.42972 14.3656Z" fill="#151515"/>
</g>
<defs>
<clipPath id="clip0_1_86">
<rect width="26" height="26" fill="white"/>
</clipPath>
</defs>
</svg>
